<?xml version="1.0" encoding="UTF-8" standalone="no"?>
<!-- Created with Inkscape (http://www.inkscape.org/) -->

<svg
   version="1.1"
   id="svg3565"
   xml:space="preserve"
   width="112.14614mm"
   height="84.548988mm"
   viewBox="0 0 423.85943 319.55522"
   sodipodi:docname="schaltung5.svg"
   inkscape:version="1.1.1 (3bf5ae0d25, 2021-09-20)"
   xmlns:inkscape="http://www.inkscape.org/namespaces/inkscape"
   xmlns:sodipodi="http://sodipodi.sourceforge.net/DTD/sodipodi-0.dtd"
   xmlns="http://www.w3.org/2000/svg"
   xmlns:svg="http://www.w3.org/2000/svg"><defs
     id="defs3569"><clipPath
       clipPathUnits="userSpaceOnUse"
       id="clipPath4207"><path
         d="m 322.01999,113.12 h 3.89999 v 25.74001 h -3.89999 z"
         id="path4205" /></clipPath></defs><sodipodi:namedview
     id="namedview3567"
     pagecolor="#505050"
     bordercolor="#ffffff"
     borderopacity="1"
     inkscape:pageshadow="0"
     inkscape:pageopacity="0"
     inkscape:pagecheckerboard="1"
     showgrid="false"
     units="mm"
     fit-margin-top="5"
     fit-margin-left="5"
     fit-margin-right="5"
     fit-margin-bottom="5"
     inkscape:zoom="0.52731588"
     inkscape:cx="162.1419"
     inkscape:cy="92.92343"
     inkscape:window-width="1368"
     inkscape:window-height="842"
     inkscape:window-x="-6"
     inkscape:window-y="-6"
     inkscape:window-maximized="1"
     inkscape:current-layer="g3571"
     inkscape:document-units="mm" /><g
     id="g3571"
     inkscape:groupmode="layer"
     inkscape:label="V302"
     transform="matrix(1.3333333,0,0,-1.3333333,-156.70236,738.28426)"><path
       d="m 210.12,476.47998 h -0.84 V 391.28 h 1.62001 v 85.19998 H 210.12"
       style="fill:#000000;fill-opacity:1;fill-rule:nonzero;stroke:none"
       id="path3755" /><path
       d="m 210.12,523.76001 -0.84,-0.54004 V 507.5 h 1.62001 v 15.71997 L 210.12,522.44 v 1.32001 h -0.84 v -0.54004"
       style="fill:#000000;fill-opacity:1;fill-rule:nonzero;stroke:none"
       id="path3757" /><path
       d="m 334.97998,523.21997 -0.77997,0.54004 H 210.12 V 522.44 h 124.08001 l -0.78003,0.77997 h 1.56 v 0.54004 h -0.77997"
       style="fill:#000000;fill-opacity:1;fill-rule:nonzero;stroke:none"
       id="path3759" /><path
       d="m 334.20001,379.45999 h 0.77997 v 143.75998 h -1.56 V 379.45999 h 0.78003"
       style="fill:#000000;fill-opacity:1;fill-rule:nonzero;stroke:none"
       id="path3761" /><path
       d="m 334.20001,344 0.77997,0.53998 V 371.84 h -1.56 v -27.30002 l 0.78003,0.78003 V 344 h 0.77997 v 0.53998"
       style="fill:#000000;fill-opacity:1;fill-rule:nonzero;stroke:none"
       id="path3763" /><path
       d="M 209.28,344.53998 210.12,344 h 124.08001 v 1.32001 H 210.12 l 0.78001,-0.78003 H 209.28 V 344 h 0.84"
       style="fill:#000000;fill-opacity:1;fill-rule:nonzero;stroke:none"
       id="path3765" /><path
       d="m 210.12,360.25998 h -0.84 v -15.72 h 1.62001 v 15.72 H 210.12"
       style="fill:#000000;fill-opacity:1;fill-rule:nonzero;stroke:none"
       id="path3767" /><path
       d="m 272.16,523.21997 h -3.42001 V 522.44 l 0.23999,-0.23999 v -0.54004 L 269.28,521.41998 V 521.12 h 0.23999 v -0.24 h 0.23999 v -0.23999 H 270.06 v -0.30004 h 0.24002 l 0.29999,-0.23993 h 0.47998 v -0.30005 h 2.1 v 0.30005 H 273.72 l 0.29999,0.23993 h 0.23999 v 0.30004 H 274.5 V 520.88 h 0.30002 v 0.24 h 0.23999 v 0.53997 l 0.23999,0.24005 V 522.44 l 0.29999,0.29999 v 0.77997 l -0.29999,0.24005 v 0.53998 l -0.23999,0.23999 v 0.54004 h -0.23999 v 0.23999 H 274.5 V 525.62 h -0.24002 v 0.23999 h -0.23999 l -0.29999,0.29998 h -0.54001 v 0.24005 h -2.1 v -0.24005 h -0.47998 l -0.29999,-0.29998 H 270.06 V 525.62 h -0.30002 v -0.29999 h -0.23999 v -0.23999 H 269.28 v -0.24005 l -0.30002,-0.29999 V 524 l -0.23999,-0.23999 v -0.54004 H 272.16"
       style="fill:#000000;fill-opacity:1;fill-rule:nonzero;stroke:none"
       id="path3769" /><path
       d="m 272.16,537.97998 -0.78,0.78003 v -15.54004 h 1.56 v 15.54004 l -0.78,0.77997 0.78,-0.77997 v 0.77997 h -0.78"
       style="fill:#000000;fill-opacity:1;fill-rule:nonzero;stroke:none"
       id="path3771" /><path
       d="m 148.56,538.76001 -0.54,-0.78003 h 124.14 v 1.56 H 148.02 l -0.78001,-0.77997 0.78001,0.77997 h -0.78001 v -0.77997"
       style="fill:#000000;fill-opacity:1;fill-rule:nonzero;stroke:none"
       id="path3773" /><path
       d="m 148.02,329.78 0.54,-0.78 v 209.76001 h -1.32001 V 329 l 0.78001,-0.78 -0.78001,0.78 v -0.78 H 148.02"
       style="fill:#000000;fill-opacity:1;fill-rule:nonzero;stroke:none"
       id="path3775" /><path
       d="m 271.38,329 0.78,0.78 H 148.02 v -1.56 h 124.14 l 0.78,0.78 -0.78,-0.78 h 0.78 V 329"
       style="fill:#000000;fill-opacity:1;fill-rule:nonzero;stroke:none"
       id="path3777" /><path
       d="m 272.16,344.53998 h -0.78 V 329 h 1.56 v 15.53998 h -0.78"
       style="fill:#000000;fill-opacity:1;fill-rule:nonzero;stroke:none"
       id="path3779" /><path
       d="m 272.16,344.53998 h -3.42001 v 0.78003 l 0.23999,0.23999 v 0.54001 L 269.28,346.34 v 0.29998 h 0.23999 V 346.88 h 0.23999 v 0.24 H 270.06 v 0.29998 h 0.24002 l 0.29999,0.24002 h 0.47998 v 0.29999 h 2.1 V 347.66 H 273.72 l 0.29999,-0.24002 h 0.23999 V 347.12 H 274.5 v -0.24 h 0.30002 v -0.24002 h 0.23999 v -0.53997 l 0.23999,-0.29999 v -0.48001 l 0.29999,-0.30002 v -0.78 L 275.28,344 v -0.54001 L 275.04001,343.22 v -0.54001 h -0.23999 V 342.44 H 274.5 v -0.30002 h -0.24002 v -0.23999 h -0.23999 L 273.72,341.60001 h -0.54001 v -0.24002 h -2.1 v 0.24002 h -0.47998 l -0.29999,0.29998 H 270.06 v 0.23999 h -0.30002 V 342.44 h -0.23999 v 0.23999 H 269.28 v 0.23999 l -0.30002,0.30002 v 0.48001 L 268.73999,344 v 0.53998 H 272.16"
       style="fill:#000000;fill-opacity:1;fill-rule:nonzero;stroke:none"
       id="path3781" /><path
       d="M 287.63998,411.01999 V 414.44 H 287.16 l -0.30001,-0.30002 H 286.38 l -0.30001,-0.23999 H 285.84 V 413.66 h -0.29999 L 285.30002,413.35999 285.06,413.12 v -0.24 h -0.30002 v -0.30001 L 284.51999,412.34 v -0.53998 L 284.28,411.56 v -1.08002 h 0.23999 v -0.77997 h 0.23999 V 409.16 H 285.06 v -0.24002 h 0.24002 V 408.62 l 0.23999,-0.24 H 285.84 v -0.24002 h 0.23999 L 286.38,407.84 h 0.47999 l 0.30001,-0.23999 h 1.01999 V 407.84 h 0.78 v 0.29998 H 289.5 l 0.30002,0.24002 0.23999,0.24 0.23999,0.29998 0.29999,0.24002 v 0.29999 l 0.24002,0.24002 v 0.53998 l 0.23999,0.23999 V 411.56 l -0.23999,0.24002 V 412.34 l -0.24002,0.23999 V 412.88 l -0.29999,0.24 v 0.23999 h -0.23999 L 289.80002,413.66 289.5,413.89999 h -0.24002 l -0.29999,0.23999 h -0.48001 l -0.29999,0.30002 h -0.54001 v -3.42001"
       style="fill:#000000;fill-opacity:1;fill-rule:nonzero;stroke:none"
       id="path3783" /><path
       d="m 334.20001,410.47998 v 0.78 l -46.56003,0.54004 v -1.56003 l 46.56003,-0.53998 v 0.77997"
       style="fill:#000000;fill-opacity:1;fill-rule:nonzero;stroke:none"
       id="path3785" /><path
       d="m 334.20001,410.47998 v 3.42001 H 335.28 l 0.23999,-0.23999 h 0.30002 l 0.23999,-0.30001 h 0.24002 V 413.12 h 0.29999 v -0.24 H 336.84 v -0.30001 l 0.23999,-0.23999 v -0.30002 H 337.38 V 411.56 l 0.24,-0.30002 v -1.55997 h -0.24 V 409.16 l -0.30001,-0.24002 V 408.62 H 336.84 v -0.24 l -0.23999,-0.24002 h -0.29999 V 407.84 H 336.06 v -0.23999 h -0.54001 L 335.28,407.35999 h -2.10001 v 0.24002 h -0.54001 V 407.84 h -0.23999 l -0.29998,0.29998 -0.24002,0.24002 H 331.56 v 0.24 l -0.23999,0.29998 V 409.16 l -0.24002,0.29999 v 1.01999 L 330.78,410.72 h 0.29999 v 1.08002 h 0.24002 V 412.34 l 0.23999,0.23999 V 412.88 h 0.29999 v 0.24 h 0.24002 l 0.29998,0.23999 h 0.23999 V 413.66 h 0.54001 l 0.23999,0.23999 h 0.78003 v -3.42001"
       style="fill:#000000;fill-opacity:1;fill-rule:nonzero;stroke:none"
       id="path3787" /><path
       d="M 210.12,411.01999 V 414.44 h -0.84 v -0.30002 h -0.78 v -0.23999 h -0.24001 l -0.3,-0.23999 H 207.72 v -0.30001 h -0.24 V 413.12 l -0.30001,-0.24 v -0.30001 H 206.94 v -0.54001 l -0.24,-0.23996 v -1.56003 l 0.24,-0.29999 v -0.23999 l 0.23999,-0.24002 V 409.16 l 0.30001,-0.24002 0.24,-0.29998 0.23999,-0.24 h 0.3 v -0.24002 H 208.5 l 0.3,-0.29998 h 0.48 l 0.3,-0.23999 h 1.02001 V 407.84 h 0.77998 v 0.29998 H 211.92 V 408.38 h 0.3 v 0.24 h 0.23999 v 0.29998 H 212.7 V 409.16 h 0.3 v 0.54001 l 0.23999,0.23999 v 2.4 H 213 v 0.54 h -0.3 v 0.24 l -0.24001,0.23999 H 212.22 V 413.66 h -0.3 v 0.23999 h -0.54001 v 0.23999 h -0.77998 V 414.44 H 210.12 v -3.42001"
       style="fill:#000000;fill-opacity:1;fill-rule:nonzero;stroke:none"
       id="path3789" /><path
       d="m 256.62,410.47998 v 0.78 l -46.5,0.54004 v -1.56003 l 46.5,-0.53998 v 0.77997"
       style="fill:#000000;fill-opacity:1;fill-rule:nonzero;stroke:none"
       id="path3791" /><path
       d="m 256.62,410.47998 v 3.42001 h 1.08001 V 413.66 h 0.53998 l 0.23999,-0.30001 H 258.72 V 413.12 h 0.29999 v -0.24 l 0.23999,-0.30001 L 259.56,412.34 v -0.30002 l 0.24002,-0.23996 v -0.54004 l 0.23999,-0.23999 v -0.78 L 259.80002,409.94 v -0.78 H 259.56 v -0.24002 L 259.25998,408.62 v -0.24 h -0.23999 v -0.24002 H 258.72 l -0.24002,-0.29998 -0.23999,-0.23999 H 257.94 l -0.23999,-0.24002 h -2.1 L 255.3,407.60001 h -0.24 l -0.24001,0.23999 h -0.3 v 0.29998 H 254.28 V 408.38 h -0.3 v 0.24 h -0.24001 v 0.29998 L 253.5,409.16 v 0.54001 l -0.3,0.23999 v 1.31998 l 0.3,0.30002 v 0.24002 l 0.23999,0.23996 v 0.54001 H 253.98 V 412.88 h 0.3 v 0.24 h 0.23999 v 0.23999 h 0.3 L 255.06,413.66 h 0.54001 v 0.23999 H 256.62 v -3.42001"
       style="fill:#000000;fill-opacity:1;fill-rule:nonzero;stroke:none"
       id="path3793" /><path
       d="m 202.2,429.91998 h 15.53999 v 31.02 H 202.2 Z"
       style="fill:#ffffff;fill-opacity:1;fill-rule:nonzero;stroke:none"
       id="path3795" /><path
       d="m 218.51999,460.94 -0.78,0.78 H 202.2 v -1.56 h 15.53999 l -0.83998,0.78 h 1.61998 v 0.78 h -0.78"
       style="fill:#000000;fill-opacity:1;fill-rule:nonzero;stroke:none"
       id="path3797" /><path
       d="m 217.73999,429.13998 0.78,0.78 V 460.94 h -1.61998 v -31.02002 l 0.83998,0.78003 v -1.56003 h 0.78 v 0.78"
       style="fill:#000000;fill-opacity:1;fill-rule:nonzero;stroke:none"
       id="path3799" /><path
       d="m 201.42,429.91998 0.78,-0.78 h 15.53999 v 1.56003 H 202.2 l 0.78,-0.78003 h -1.56 v -0.78 h 0.78"
       style="fill:#000000;fill-opacity:1;fill-rule:nonzero;stroke:none"
       id="path3801" /><path
       d="m 202.2,461.72 -0.78,-0.78 v -31.02002 h 1.56 V 460.94 l -0.78,-0.78 v 1.56 h -0.78 v -0.78"
       style="fill:#000000;fill-opacity:1;fill-rule:nonzero;stroke:none"
       id="path3803" /><path
       d="m 202.2,360.25998 h 15.53999 v 31.02 H 202.2 Z"
       style="fill:#ffffff;fill-opacity:1;fill-rule:nonzero;stroke:none"
       id="path3805" /><path
       d="m 218.51999,391.28 -0.78,0.78 H 202.2 v -1.56 h 15.53999 l -0.83998,0.78 h 1.61998 v 0.78 h -0.78"
       style="fill:#000000;fill-opacity:1;fill-rule:nonzero;stroke:none"
       id="path3807" /><path
       d="m 217.73999,359.47998 0.78,0.78 V 391.28 h -1.61998 v -31.02002 l 0.83998,0.54004 v -1.32004 h 0.78 v 0.78"
       style="fill:#000000;fill-opacity:1;fill-rule:nonzero;stroke:none"
       id="path3809" /><path
       d="m 201.42,360.25998 0.78,-0.78 h 15.53999 v 1.32004 H 202.2 l 0.78,-0.54004 h -1.56 v -0.78 h 0.78"
       style="fill:#000000;fill-opacity:1;fill-rule:nonzero;stroke:none"
       id="path3811" /><path
       d="m 202.2,392.06 -0.78,-0.78 v -31.02002 h 1.56 V 391.28 l -0.78,-0.78 v 1.56 h -0.78 v -0.78"
       style="fill:#000000;fill-opacity:1;fill-rule:nonzero;stroke:none"
       id="path3813" /><path
       d="m 326.57999,453.31998 h 15.53999 v 31.02 h -15.53999 z"
       style="fill:#ffffff;fill-opacity:1;fill-rule:nonzero;stroke:none"
       id="path3815" /><path
       d="m 342.89999,484.34 -0.77999,0.78 h -15.54001 v -1.56 H 342.12 l -0.78,0.78 h 1.55999 v 0.78 H 342.12"
       style="fill:#000000;fill-opacity:1;fill-rule:nonzero;stroke:none"
       id="path3817" /><path
       d="m 342.12,452.53998 0.77999,0.78 V 484.34 H 341.34 v -31.02002 l 0.78,0.78003 v -1.56003 h 0.77999 v 0.78"
       style="fill:#000000;fill-opacity:1;fill-rule:nonzero;stroke:none"
       id="path3819" /><path
       d="m 325.80002,453.31998 0.77997,-0.78 H 342.12 v 1.56003 h -15.54001 l 0.78,-0.78003 h -1.55997 v -0.78 h 0.77997"
       style="fill:#000000;fill-opacity:1;fill-rule:nonzero;stroke:none"
       id="path3821" /><path
       d="m 326.57999,485.12 -0.77997,-0.78 v -31.02002 h 1.55997 V 484.34 l -0.78,-0.78 v 1.56 h -0.77997 v -0.78"
       style="fill:#000000;fill-opacity:1;fill-rule:nonzero;stroke:none"
       id="path3823" /><path
       d="m 148.02,460.94 h 1.56 l 1.32001,-0.23999 1.61998,-0.30002 1.32001,-0.48001 1.56001,-0.78 1.01999,-0.83996 1.31999,-0.78003 1.08,-1.01999 1.02001,-1.08002 0.83999,-1.31997 0.78,-1.32001 0.78,-1.32001 0.54001,-1.25998 0.23999,-1.62002 0.24,-1.56 0.30001,-1.56 -0.30001,-1.61999 -0.24,-1.56 -0.23999,-1.32001 -0.54001,-1.56 -1.56,-2.64001 -0.83999,-1.01999 -1.02001,-1.07999 -1.08,-1.02002 L 156.42,432.56 155.40001,431.78 153.84,431.23999 152.51999,430.70001 150.90001,430.22 H 149.58 l -1.56,-0.30002 -1.8,0.30002 h -1.31999 l -1.62001,0.48001 -1.32001,0.53998 -1.55998,0.54001 -1.02002,0.78 -1.31999,1.07998 -1.08,1.02002 -1.02001,1.07999 -0.83999,1.01999 -0.78,1.32001 -0.78,1.32 -0.54,1.56 -0.24,1.32001 -0.24001,1.56 -0.3,1.61999 0.3,1.56 0.24001,1.56 0.24,1.62002 0.54,1.25998 0.78,1.32001 0.78,1.32001 0.83999,1.31997 1.02001,1.08002 1.08,1.01999 1.31999,0.78003 1.02002,0.83996 1.55998,0.78 1.32001,0.48001 1.62001,0.30002 1.31999,0.23999 h 1.8"
       style="fill:#ffffff;fill-opacity:1;fill-rule:evenodd;stroke:none"
       id="path3825" /><path
       d="m 164.34,445.45999 -0.23999,1.79999 -0.30001,1.62002 -0.24,1.56 -0.54001,1.31998 -0.78,1.56 -0.78,1.32 -1.08,1.32001 -1.01999,1.01999 -1.08,1.08002 -1.32001,1.07998 -1.31999,0.78 -1.32001,0.48001 -1.56,0.54001 -1.55999,0.53998 -1.62,0.24002 h -1.56 v -1.56 h 1.32 l 1.56001,-0.24002 1.31999,-0.29998 1.31999,-0.48002 1.32001,-0.53997 1.31999,-0.78003 1.08,-0.84 1.02001,-1.01999 1.08,-1.07999 0.78,-1.02001 0.78,-1.32001 0.53999,-1.31998 0.48001,-1.32001 0.29999,-1.32 0.24001,-1.56 0.3,-1.56"
       style="fill:#000000;fill-opacity:1;fill-rule:nonzero;stroke:none"
       id="path3827" /><path
       d="m 148.02,429.13998 1.56,0.24002 1.62,0.29999 1.55999,0.23999 1.56,0.54001 1.32001,0.78 1.31999,0.78 1.32001,0.78003 1.08,1.07998 1.01999,1.32001 1.08,1.31998 0.78,1.32001 0.78,1.32 0.54001,1.56 0.24,1.56 0.30001,1.56 0.23999,1.61999 h -1.56 l -0.3,-1.32001 -0.24001,-1.55999 -0.29999,-1.32001 -0.48001,-1.62 -0.53999,-1.01998 -0.78,-1.31998 -0.78,-1.08002 -1.08,-1.01999 -1.02001,-1.08001 -1.08,-0.78 -1.31999,-0.78 -1.32001,-0.54001 L 152.22,431.53998 150.90001,431 149.34,430.70001 h -1.32"
       style="fill:#000000;fill-opacity:1;fill-rule:nonzero;stroke:none"
       id="path3829" /><path
       d="M 131.7,445.45999 V 443.84 l 0.3,-1.56 0.23999,-1.56 0.54001,-1.56 0.78,-1.32 0.78,-1.32001 1.08,-1.31998 1.02,-1.32001 1.08,-1.07998 1.32,-0.78003 1.32,-0.78 1.32,-0.78 1.55999,-0.54001 1.56002,-0.23999 1.61999,-0.29999 1.8,-0.24002 v 1.56003 h -1.56001 L 144.90001,431 l -1.32001,0.53998 -1.32001,0.48001 -1.31999,0.54001 -1.32,0.78 -1.08001,0.78 -1.01999,1.08001 -1.08,1.01999 -0.78,1.08002 -0.78001,1.31998 -0.53999,1.01998 -0.48,1.62 -0.3,1.32001 -0.24001,1.55999 -0.29999,1.32001"
       style="fill:#000000;fill-opacity:1;fill-rule:nonzero;stroke:none"
       id="path3831" /><path
       d="m 148.02,461.72 h -1.8 l -1.61999,-0.24002 -1.56002,-0.53998 -1.55999,-0.54001 -1.32,-0.48001 -1.32,-0.78 -1.32,-1.07998 -1.08,-1.08002 -1.02,-1.01999 -1.08,-1.32001 -0.78,-1.32 -0.78,-1.56 L 132.23999,450.44 132,448.88 l -0.3,-1.62002 v -1.79999 h 1.32 l 0.29999,1.56 0.24001,1.56 0.3,1.32 0.48,1.32001 0.53999,1.31998 0.78001,1.32001 0.78,1.02001 1.08,1.07999 1.01999,1.01999 1.08001,0.84 1.32,0.78003 1.31999,0.53997 1.32001,0.48002 1.32001,0.29998 1.55998,0.24002 H 148.02"
       style="fill:#000000;fill-opacity:1;fill-rule:nonzero;stroke:none"
       id="path3833" /><text
       transform="matrix(1,0,0,-0.9752107,415.5,365.00031)"
       style="font-variant:normal;font-weight:normal;font-stretch:normal;font-size:11.3194px;font-family:Arial;-inkscape-font-specification:ArialMT;writing-mode:lr-tb;fill:#000000;fill-opacity:1;fill-rule:nonzero;stroke:none"
       id="text3837"><tspan
         x="0"
         y="0"
         id="tspan3835">4</tspan></text><text
       transform="matrix(1,0,0,-0.9752107,307.67935,366.80075)"
       style="font-variant:normal;font-weight:normal;font-stretch:normal;font-size:11.3194px;font-family:Arial;-inkscape-font-specification:ArialMT;writing-mode:lr-tb;fill:#000000;fill-opacity:1;fill-rule:nonzero;stroke:none"
       id="text3841"><tspan
         x="0"
         y="0"
         id="tspan3839">4</tspan></text><text
       transform="matrix(1,0,0,-0.9752107,360.53989,457.52103)"
       style="font-variant:normal;font-weight:normal;font-stretch:normal;font-size:11.3194px;font-family:Arial;-inkscape-font-specification:ArialMT;writing-mode:lr-tb;fill:#000000;fill-opacity:1;fill-rule:nonzero;stroke:none"
       id="text3845"><tspan
         x="0"
         y="0"
         id="tspan3843">3</tspan></text><text
       transform="matrix(1,0,0,-0.9752107,189.05887,371.06073)"
       style="font-variant:normal;font-weight:normal;font-stretch:normal;font-size:11.3194px;font-family:Arial;-inkscape-font-specification:ArialMT;writing-mode:lr-tb;fill:#000000;fill-opacity:1;fill-rule:nonzero;stroke:none"
       id="text3849"><tspan
         x="0"
         y="0"
         id="tspan3847">2</tspan></text><text
       transform="matrix(1,0,0,-0.9752107,189.05887,437.78033)"
       style="font-variant:normal;font-weight:normal;font-stretch:normal;font-size:11.3194px;font-family:Arial;-inkscape-font-specification:ArialMT;writing-mode:lr-tb;fill:#000000;fill-opacity:1;fill-rule:nonzero;stroke:none"
       id="text3853"><tspan
         x="0"
         y="0"
         id="tspan3851">x</tspan></text><text
       transform="matrix(1,0,0,-0.9752107,191.15863,484.82007)"
       style="font-variant:normal;font-weight:normal;font-stretch:normal;font-size:11.3194px;font-family:Arial;-inkscape-font-specification:ArialMT;writing-mode:lr-tb;fill:#000000;fill-opacity:1;fill-rule:nonzero;stroke:none"
       id="text3857"><tspan
         x="0"
         y="0"
         id="tspan3855">x</tspan></text><text
       transform="matrix(1,0,0,-0.99637658,405.23999,370.22028)"
       style="font-variant:normal;font-weight:bold;font-stretch:normal;font-size:13.1892px;font-family:Arial;-inkscape-font-specification:Arial-BoldMT;writing-mode:lr-tb;fill:#000000;fill-opacity:1;fill-rule:nonzero;stroke:none"
       id="text3861"><tspan
         x="0"
         y="0"
         id="tspan3859">R</tspan></text><text
       transform="matrix(1,0,0,-0.99637658,298.20035,370.51985)"
       style="font-variant:normal;font-weight:bold;font-stretch:normal;font-size:13.1892px;font-family:Arial;-inkscape-font-specification:Arial-BoldMT;writing-mode:lr-tb;fill:#000000;fill-opacity:1;fill-rule:nonzero;stroke:none"
       id="text3865"><tspan
         x="0"
         y="0"
         id="tspan3863">C</tspan></text><text
       transform="matrix(1,0,0,-0.99637658,179.10054,375.73964)"
       style="font-variant:normal;font-weight:bold;font-stretch:normal;font-size:13.1892px;font-family:Arial;-inkscape-font-specification:Arial-BoldMT;writing-mode:lr-tb;fill:#000000;fill-opacity:1;fill-rule:nonzero;stroke:none"
       id="text3869"><tspan
         x="0"
         y="0"
         id="tspan3867">R</tspan></text><text
       transform="matrix(1,0,0,-0.99637658,349.74097,462.73967)"
       style="font-variant:normal;font-weight:bold;font-stretch:normal;font-size:13.1892px;font-family:Arial;-inkscape-font-specification:Arial-BoldMT;writing-mode:lr-tb;fill:#000000;fill-opacity:1;fill-rule:nonzero;stroke:none"
       id="text3873"><tspan
         x="0"
         y="0"
         id="tspan3871">R</tspan></text><text
       transform="matrix(1,0,0,-0.99637658,182.22115,489.01988)"
       style="font-variant:normal;font-weight:bold;font-stretch:normal;font-size:13.1892px;font-family:Arial;-inkscape-font-specification:Arial-BoldMT;writing-mode:lr-tb;fill:#000000;fill-opacity:1;fill-rule:nonzero;stroke:none"
       id="text3877"><tspan
         x="0"
         y="0"
         id="tspan3875">L</tspan></text><text
       transform="matrix(1,0,0,-0.99637658,179.10054,440.65961)"
       style="font-variant:normal;font-weight:bold;font-stretch:normal;font-size:13.1892px;font-family:Arial;-inkscape-font-specification:Arial-BoldMT;writing-mode:lr-tb;fill:#000000;fill-opacity:1;fill-rule:nonzero;stroke:none"
       id="text3881"><tspan
         x="0"
         y="0"
         id="tspan3879">R</tspan></text><text
       transform="matrix(1,0,0,-0.99805731,137.81999,432.5603)"
       style="font-variant:normal;font-weight:normal;font-stretch:normal;font-size:36.3413px;font-family:Arial;-inkscape-font-specification:ArialMT;writing-mode:lr-tb;fill:#000000;fill-opacity:1;fill-rule:nonzero;stroke:none"
       id="text3885"><tspan
         x="0"
         y="0"
         id="tspan3883">~</tspan></text><path
       d="m 201.42,480.37997 0.23999,-1.01998 0.54001,-1.07999 1.08,-0.47998 1.02,-0.84003 1.07999,-0.48001 1.56001,-0.29999 1.56,-0.23999 1.62,-0.30002 v 1.62 L 208.5,477.5 h -1.32001 l -1.31999,0.53998 -1.02,0.24002 -0.78,0.53998 -0.54001,0.54001 -0.23999,0.54 -0.3,0.47998"
       style="fill:#000000;fill-opacity:1;fill-rule:nonzero;stroke:none"
       id="path3887" /><path
       d="m 210.12,485.12 h -1.62 l -1.56,-0.24003 -1.56001,-0.53997 -1.07999,-0.53998 -1.02,-0.48004 -1.08,-0.84 -0.54001,-1.01999 -0.23999,-1.08002 h 1.56 l 0.3,0.54001 0.23999,0.54001 L 204.06,482 l 0.78,0.47998 1.02,0.54001 1.31999,0.29999 L 208.5,483.56 h 1.62"
       style="fill:#000000;fill-opacity:1;fill-rule:nonzero;stroke:none"
       id="path3889" /><path
       d="m 201.42,488.30002 0.23999,-1.08002 0.54001,-1.01999 1.08,-0.78003 1.02,-0.54001 1.07999,-0.53997 1.56001,-0.53998 1.56,-0.24002 h 1.62 v 1.56 h -1.62 l -1.32001,0.29998 -1.31999,0.24002 -1.02,0.54001 -0.78,0.47998 -0.54001,0.54001 -0.23999,0.53998 -0.3,0.54004"
       style="fill:#000000;fill-opacity:1;fill-rule:nonzero;stroke:none"
       id="path3891" /><path
       d="M 210.12,492.73999 H 208.5 L 206.94,492.5 205.37999,492.20001 204.3,491.72 l -1.02,-0.78 -1.08,-0.83999 -0.54001,-0.78003 -0.23999,-1.01996 h 1.56 l 0.3,0.53998 0.23999,0.23999 0.54001,0.78 0.78,0.24002 1.02,0.53997 1.31999,0.30002 1.32001,0.23999 h 1.62"
       style="fill:#000000;fill-opacity:1;fill-rule:nonzero;stroke:none"
       id="path3893" /><path
       d="m 201.42,495.91998 0.23999,-1.07998 0.54001,-0.78 1.08,-0.78 1.02,-0.78 1.07999,-0.54001 1.56001,-0.23999 1.56,-0.30002 1.62,-0.23999 v 1.56 l -1.62,0.29999 h -1.32001 l -1.31999,0.48001 -1.02,0.29999 -0.78,0.48004 -0.54001,0.53998 -0.23999,0.53997 -0.3,0.54001"
       style="fill:#000000;fill-opacity:1;fill-rule:nonzero;stroke:none"
       id="path3895" /><path
       d="m 210.12,500.66 h -1.62 l -1.56,-0.30001 -1.56001,-0.54001 L 204.3,499.34 203.28,498.80002 202.2,498.01999 201.65999,496.94 201.42,495.91998 h 1.56 l 0.3,0.54001 0.23999,0.48001 0.54001,0.53998 0.78,0.54001 1.02,0.54001 1.31999,0.24002 1.32001,0.23996 h 1.62"
       style="fill:#000000;fill-opacity:1;fill-rule:nonzero;stroke:none"
       id="path3897" /><path
       d="m 201.42,503.78 0.23999,-1.02002 0.54001,-1.07999 1.08,-0.78 1.02,-0.54 1.07999,-0.54001 1.56001,-0.47998 1.56,-0.30002 h 1.62 V 500.66 h -1.62 l -2.64,0.47998 -1.02,0.54001 -0.78,0.54001 -0.54001,0.53998 -0.23999,0.48001 -0.3,0.54001"
       style="fill:#000000;fill-opacity:1;fill-rule:nonzero;stroke:none"
       id="path3899" /><path
       d="m 210.12,508.28 h -1.62 l -1.56,-0.30002 -1.56001,-0.23999 -1.07999,-0.53998 -1.02,-0.78003 -1.08,-0.78 -0.54001,-0.77999 L 201.42,503.78 h 1.56 l 0.3,0.53998 0.23999,0.54001 0.54001,0.48001 0.78,0.29998 1.02,0.54001 1.31999,0.23999 1.32001,0.24002 1.62,0.29999"
       style="fill:#000000;fill-opacity:1;fill-rule:nonzero;stroke:none"
       id="path3901" /><path
       d="m 334.20001,344.53998 v 3.42001 h -1.02002 V 347.66 h -0.54001 v -0.24002 h -0.23999 L 332.10001,347.12 h -0.24002 v -0.24 H 331.56 v -0.24002 L 331.32001,346.34 v -0.23999 l -0.24002,-0.29999 v -0.78003 L 330.78,344.78 v -0.24002 l 0.29999,-0.29999 v -0.78 l 0.24002,-0.23999 v -0.30002 L 331.56,342.67999 V 342.44 h 0.29999 v -0.30002 h 0.24002 l 0.29998,-0.23999 h 0.23999 v -0.29998 H 332.88 l 0.29999,-0.24002 h 2.34 v 0.24002 h 0.30002 l 0.23999,0.29998 h 0.24002 v 0.23999 h 0.29999 L 336.84,342.44 v 0.23999 h 0.23999 v 0.23999 L 337.38,343.22 v 0.48001 h 0.24 V 345.56 h -0.24 v 0.54001 l -0.30001,0.23999 v 0.29998 H 336.84 V 346.88 l -0.23999,0.24 h -0.29999 v 0.29998 H 336.06 l -0.23999,0.24002 h -0.30002 l -0.23999,0.29999 h -1.07999 v -3.42001"
       style="fill:#000000;fill-opacity:1;fill-rule:nonzero;stroke:none"
       id="path3903" /><path
       d="m 387.84,344.53998 0.83999,0.78003 H 334.20001 V 344 h 54.47998 l 0.78,0.53998 -0.78,-0.53998 h 0.78 v 0.53998"
       style="fill:#000000;fill-opacity:1;fill-rule:nonzero;stroke:none"
       id="path3905" /><path
       d="m 388.67999,409.70001 -0.83999,0.77997 v -65.94 h 1.61999 v 65.94 l -0.78,0.78 0.78,-0.78 v 0.78 h -0.78"
       style="fill:#000000;fill-opacity:1;fill-rule:nonzero;stroke:none"
       id="path3907" /><path
       d="m 334.20001,410.47998 v -0.77997 h 54.47998 v 1.55997 h -54.47998 v -0.78"
       style="fill:#000000;fill-opacity:1;fill-rule:nonzero;stroke:none"
       id="path3909" /><path
       d="m 380.75998,360.25998 h 15.53999 v 31.02 h -15.53999 z"
       style="fill:#ffffff;fill-opacity:1;fill-rule:nonzero;stroke:none"
       id="path3911" /><path
       d="m 397.07999,391.28 -0.77997,0.78 h -15.54004 v -1.56 h 15.54004 l -0.54004,0.78 h 1.32001 v 0.78 h -0.77997"
       style="fill:#000000;fill-opacity:1;fill-rule:nonzero;stroke:none"
       id="path3913" /><path
       d="m 396.30002,359.47998 0.77997,0.78 V 391.28 h -1.32001 v -31.02002 l 0.54004,0.54004 v -1.32004 h 0.77997 v 0.78"
       style="fill:#000000;fill-opacity:1;fill-rule:nonzero;stroke:none"
       id="path3915" /><path
       d="m 379.97998,360.25998 0.78,-0.78 h 15.54004 v 1.32004 h -15.54004 l 0.78,-0.54004 h -1.56 v -0.78 h 0.78"
       style="fill:#000000;fill-opacity:1;fill-rule:nonzero;stroke:none"
       id="path3917" /><path
       d="m 380.75998,392.06 -0.78,-0.78 v -31.02002 h 1.56 V 391.28 l -0.78,-0.78 v 1.56 h -0.78 v -0.78"
       style="fill:#000000;fill-opacity:1;fill-rule:nonzero;stroke:none"
       id="path3919" /><path
       d="m 401.28,388.39999 -0.54001,0.54001 -28.13998,-28.13998 1.07998,-1.32004 28.13999,28.38001 -0.53998,0.54"
       style="fill:#000000;fill-opacity:1;fill-rule:nonzero;stroke:none"
       id="path3921" /><path
       d="m 404.16,391.28 -4.20001,-1.56 2.88001,-2.88 1.32,4.44"
       style="fill:#000000;fill-opacity:1;fill-rule:nonzero;stroke:none"
       id="path3923" /><path
       d="m 347.10001,481.45999 -0.78,0.54001 -28.14002,-28.14001 1.02002,-1.07999 28.43997,28.13998 -0.53997,0.54001"
       style="fill:#000000;fill-opacity:1;fill-rule:nonzero;stroke:none"
       id="path3925" /><path
       d="m 349.73999,484.34 -4.20001,-1.56 2.88,-2.64002 1.32001,4.20002"
       style="fill:#000000;fill-opacity:1;fill-rule:nonzero;stroke:none"
       id="path3927" /><path
       d="M 346.01999,379.45999 V 380.78 H 322.62 v -2.34 h 23.39999 v 1.01999"
       style="fill:#000000;fill-opacity:1;fill-rule:nonzero;stroke:none"
       id="path3929" /><path
       d="m 346.01999,371.84 v 1.07998 H 322.62 v -2.1 h 23.39999 V 371.84"
       style="fill:#000000;fill-opacity:1;fill-rule:nonzero;stroke:none"
       id="path3931" /><text
       transform="matrix(0.99566982,0,0,-1,241.92,417.26028)"
       style="font-variant:normal;font-weight:bold;font-stretch:normal;font-size:11.0388px;font-family:Arial;-inkscape-font-specification:Arial-BoldMT;writing-mode:lr-tb;fill:#000000;fill-opacity:1;fill-rule:nonzero;stroke:none"
       id="text3935"><tspan
         x="0"
         y="0"
         id="tspan3933">N</tspan></text><text
       transform="matrix(0.99566982,0,0,-1,249.838,417.26028)"
       style="font-variant:normal;font-weight:bold;font-stretch:normal;font-size:11.0388px;font-family:Arial;-inkscape-font-specification:Arial-BoldMT;writing-mode:lr-tb;fill:#000000;fill-opacity:1;fill-rule:nonzero;stroke:none"
       id="text3939"><tspan
         x="0"
         y="0"
         id="tspan3937">u</tspan></text><text
       transform="matrix(0.99566982,0,0,-1,256.67996,417.26028)"
       style="font-variant:normal;font-weight:bold;font-stretch:normal;font-size:11.0388px;font-family:Arial;-inkscape-font-specification:Arial-BoldMT;writing-mode:lr-tb;fill:#000000;fill-opacity:1;fill-rule:nonzero;stroke:none"
       id="text3943"><tspan
         x="0 2.8944838"
         y="0"
         sodipodi:role="line"
         id="tspan3941">ll</tspan></text><text
       transform="matrix(0.99566982,0,0,-1,262.74385,417.26028)"
       style="font-variant:normal;font-weight:bold;font-stretch:normal;font-size:11.0388px;font-family:Arial;-inkscape-font-specification:Arial-BoldMT;writing-mode:lr-tb;fill:#000000;fill-opacity:1;fill-rule:nonzero;stroke:none"
       id="text3947"><tspan
         x="0 6.5704041"
         y="0"
         sodipodi:role="line"
         id="tspan3945">de</tspan></text><text
       transform="matrix(0.99566982,0,0,-1,275.34409,417.26028)"
       style="font-variant:normal;font-weight:bold;font-stretch:normal;font-size:11.0388px;font-family:Arial;-inkscape-font-specification:Arial-BoldMT;writing-mode:lr-tb;fill:#000000;fill-opacity:1;fill-rule:nonzero;stroke:none"
       id="text3951"><tspan
         x="0"
         y="0"
         id="tspan3949">t</tspan></text><text
       transform="matrix(0.99566982,0,0,-1,279.00418,417.26028)"
       style="font-variant:normal;font-weight:bold;font-stretch:normal;font-size:11.0388px;font-family:Arial;-inkscape-font-specification:Arial-BoldMT;writing-mode:lr-tb;fill:#000000;fill-opacity:1;fill-rule:nonzero;stroke:none"
       id="text3955"><tspan
         x="0"
         y="0"
         id="tspan3953">e</tspan></text><text
       transform="matrix(0.99566982,0,0,-1,285.06248,417.26028)"
       style="font-variant:normal;font-weight:bold;font-stretch:normal;font-size:11.0388px;font-family:Arial;-inkscape-font-specification:Arial-BoldMT;writing-mode:lr-tb;fill:#000000;fill-opacity:1;fill-rule:nonzero;stroke:none"
       id="text3959"><tspan
         x="0"
         y="0"
         id="tspan3957">k</tspan></text><text
       transform="matrix(0.99566982,0,0,-1,291.36041,417.26028)"
       style="font-variant:normal;font-weight:bold;font-stretch:normal;font-size:11.0388px;font-family:Arial;-inkscape-font-specification:Arial-BoldMT;writing-mode:lr-tb;fill:#000000;fill-opacity:1;fill-rule:nonzero;stroke:none"
       id="text3963"><tspan
         x="0"
         y="0"
         id="tspan3961">t</tspan></text><text
       transform="matrix(0.99566982,0,0,-1,294.78088,417.26028)"
       style="font-variant:normal;font-weight:bold;font-stretch:normal;font-size:11.0388px;font-family:Arial;-inkscape-font-specification:Arial-BoldMT;writing-mode:lr-tb;fill:#000000;fill-opacity:1;fill-rule:nonzero;stroke:none"
       id="text3967"><tspan
         x="0"
         y="0"
         id="tspan3965">o</tspan></text><text
       transform="matrix(0.99566982,0,0,-1,301.62286,417.26028)"
       style="font-variant:normal;font-weight:bold;font-stretch:normal;font-size:11.0388px;font-family:Arial;-inkscape-font-specification:Arial-BoldMT;writing-mode:lr-tb;fill:#000000;fill-opacity:1;fill-rule:nonzero;stroke:none"
       id="text3971"><tspan
         x="0"
         y="0"
         id="tspan3969">r</tspan></text></g></svg>
