<?xml version="1.0" encoding="UTF-8" standalone="no"?>
<!-- Created with Inkscape (http://www.inkscape.org/) -->

<svg
   version="1.1"
   id="svg1165"
   xml:space="preserve"
   width="76.516243mm"
   height="78.770485mm"
   viewBox="0 0 289.19526 297.7152"
   sodipodi:docname="schaltung3.svg"
   inkscape:version="1.1.1 (3bf5ae0d25, 2021-09-20)"
   xmlns:inkscape="http://www.inkscape.org/namespaces/inkscape"
   xmlns:sodipodi="http://sodipodi.sourceforge.net/DTD/sodipodi-0.dtd"
   xmlns="http://www.w3.org/2000/svg"
   xmlns:svg="http://www.w3.org/2000/svg"><defs
     id="defs1169"><clipPath
       clipPathUnits="userSpaceOnUse"
       id="clipPath1309"><path
         d="m 304.97998,542.12 h 8.03999 v 14.64 h -8.03999 z"
         id="path1307" /></clipPath><clipPath
       clipPathUnits="userSpaceOnUse"
       id="clipPath1321"><path
         d="m 278.70001,542.12 h 6.60001 v 14.64 h -6.60001 z"
         id="path1319" /></clipPath><clipPath
       clipPathUnits="userSpaceOnUse"
       id="clipPath1333"><path
         d="m 247.08,542.12 h 6.60001 v 14.64 H 247.08 Z"
         id="path1331" /></clipPath></defs><sodipodi:namedview
     id="namedview1167"
     pagecolor="#505050"
     bordercolor="#ffffff"
     borderopacity="1"
     inkscape:pageshadow="0"
     inkscape:pageopacity="0"
     inkscape:pagecheckerboard="1"
     showgrid="false"
     fit-margin-top="5"
     fit-margin-left="5"
     fit-margin-right="5"
     fit-margin-bottom="5"
     units="mm"
     inkscape:zoom="1.0546318"
     inkscape:cx="12.800677"
     inkscape:cy="98.61262"
     inkscape:window-width="1368"
     inkscape:window-height="842"
     inkscape:window-x="-6"
     inkscape:window-y="-6"
     inkscape:window-maximized="1"
     inkscape:current-layer="g1171"
     inkscape:document-units="mm" /><g
     id="g1171"
     inkscape:groupmode="layer"
     inkscape:label="V302"
     transform="matrix(1.3333333,0,0,-1.3333333,-223.90237,604.28426)"><path
       d="m 245.64,400.75998 h -0.60001 v -81 H 246.06 v 81 h -0.42"
       style="fill:#000000;fill-opacity:1;fill-rule:nonzero;stroke:none"
       id="path1403" /><path
       d="m 245.64,426.38 -0.60001,-0.42001 V 407.12 H 246.06 v 18.83999 l -0.42,-0.65997 V 426.38 h -0.60001 v -0.42001"
       style="fill:#000000;fill-opacity:1;fill-rule:nonzero;stroke:none"
       id="path1405" /><path
       d="M 346.25998,425.95999 345.60001,426.38 H 245.64 v -1.07998 h 99.96001 L 345,425.95999 h 1.25998 V 426.38 h -0.65997"
       style="fill:#000000;fill-opacity:1;fill-rule:nonzero;stroke:none"
       id="path1407" /><path
       d="m 345.60001,256.75998 0.65997,0.42001 v 168.78 H 345 v -168.78 l 0.60001,0.66001 v -1.08002 h 0.65997 v 0.42001"
       style="fill:#000000;fill-opacity:1;fill-rule:nonzero;stroke:none"
       id="path1409" /><path
       d="m 245.03999,257.17999 0.60001,-0.42001 h 99.96001 V 257.84 H 245.64 l 0.42,-0.66001 h -1.02001 v -0.42001 H 245.64"
       style="fill:#000000;fill-opacity:1;fill-rule:nonzero;stroke:none"
       id="path1411" /><path
       d="m 245.64,313.45999 h -0.60001 v -56.28 H 246.06 v 56.28 h -0.42"
       style="fill:#000000;fill-opacity:1;fill-rule:nonzero;stroke:none"
       id="path1413" /><path
       d="m 295.62,425.95999 h -2.76001 v -0.65997 l 0.24002,-0.18002 v -0.41999 L 293.28,424.45999 V 424.28 h 0.23999 v -0.24002 l 0.18002,-0.17999 H 293.94 V 423.62 h 0.23999 l 0.18,-0.18 H 294.78 v -0.23999 h 1.67999 V 423.44 H 296.88 l 0.24,0.18 h 0.23999 v 0.23999 h 0.18002 v 0.17999 H 297.78 V 424.28 h 0.17999 v 0.42001 l 0.24002,0.17999 v 0.42002 l 0.17999,0.23996 v 0.6 l -0.17999,0.24002 v 0.42002 l -0.24002,0.17996 v 0.48001 H 297.78 v 0.17999 h -0.23999 V 427.88 h -0.18002 v 0.18 H 297.12 l -0.24,0.24002 h -0.17999 l -0.24002,0.17996 H 294.78 l -0.17999,-0.17996 h -0.24002 l -0.18,-0.24002 H 293.94 v -0.18 h -0.23999 l -0.18002,-0.24002 v -0.17999 H 293.28 V 427.22 l -0.17999,-0.24002 V 426.56 l -0.24002,-0.18 v -0.42001 H 295.62"
       style="fill:#000000;fill-opacity:1;fill-rule:nonzero;stroke:none"
       id="path1415" /><path
       d="m 295.62,437.78 -0.60001,0.66 V 425.95999 H 296.28 V 438.44 l -0.66,0.59998 0.66,-0.59998 v 0.59998 h -0.66"
       style="fill:#000000;fill-opacity:1;fill-rule:nonzero;stroke:none"
       id="path1417" /><path
       d="m 196.08,438.44 -0.6,-0.66 h 100.14 v 1.25998 H 195.48 l -0.66001,-0.59998 0.66001,0.59998 h -0.66001 V 438.44"
       style="fill:#000000;fill-opacity:1;fill-rule:nonzero;stroke:none"
       id="path1419" /><path
       d="m 195.48,245.36 0.6,-0.66 v 193.74 h -1.26001 V 244.7 L 195.48,244.10001 194.81999,244.7 v -0.59999 H 195.48"
       style="fill:#000000;fill-opacity:1;fill-rule:nonzero;stroke:none"
       id="path1421" /><path
       d="m 295.01999,244.7 0.60001,0.66 H 195.48 v -1.25999 h 100.14 l 0.66,0.59999 -0.66,-0.59999 h 0.66 V 244.7"
       style="fill:#000000;fill-opacity:1;fill-rule:nonzero;stroke:none"
       id="path1423" /><path
       d="m 295.62,257.17999 h -0.60001 V 244.7 H 296.28 v 12.47999 h -0.66"
       style="fill:#000000;fill-opacity:1;fill-rule:nonzero;stroke:none"
       id="path1425" /><path
       d="m 295.62,257.17999 h -2.76001 V 257.84 l 0.24002,0.17999 V 258.44 l 0.17999,0.23999 v 0.18 h 0.23999 v 0.24002 l 0.18002,0.17999 H 293.94 v 0.23999 h 0.23999 l 0.18,0.18002 H 294.78 V 259.94 h 1.67999 v -0.23999 H 296.88 l 0.24,-0.18002 h 0.23999 V 259.28 h 0.18002 v -0.17999 H 297.78 v -0.24002 h 0.17999 V 258.44 l 0.24002,-0.18002 V 257.84 L 298.38,257.60001 V 257 l -0.17999,-0.24002 V 256.34 l -0.24002,-0.23999 v -0.42002 H 297.78 V 255.5 h -0.23999 v -0.24001 h -0.18002 V 255.08 H 297.12 l -0.24,-0.24 h -0.17999 l -0.24002,-0.18001 H 294.78 l -0.17999,0.18001 h -0.24002 l -0.18,0.24 H 293.94 v 0.17999 h -0.23999 L 293.51999,255.5 v 0.17999 H 293.28 V 255.92 l -0.17999,0.18001 v 0.47998 l -0.24002,0.17999 v 0.42001 H 295.62"
       style="fill:#000000;fill-opacity:1;fill-rule:nonzero;stroke:none"
       id="path1427" /><path
       d="m 308.16,342.01999 v 2.51999 h -0.90002 l -0.17999,-0.23996 H 306.84 L 306.66,344.12 h -0.24002 v -0.24 h -0.17999 v -0.17999 H 306 v -0.24002 L 305.82001,343.28 v -0.24002 h -0.24002 V 342.44 h -0.18 v -0.90002 l 0.18,-0.17999 v -0.65998 h 0.24002 v -0.18002 L 306,340.28 l 0.23999,-0.17999 v -0.24002 h 0.17999 v -0.18 H 306.66 l 0.18,-0.23999 h 0.41998 v -0.18002 H 309 V 339.44 h 0.41998 v 0.23999 H 309.84 v 0.18 l 0.17999,0.24002 h 0.23999 V 340.28 l 0.18002,0.23999 v 0.18002 l 0.23999,0.23999 v 0.41999 l 0.18,0.17999 V 342.44 l -0.18,0.18 v 0.41998 L 310.44,343.28 v 0.17999 h -0.18002 v 0.24002 h -0.23999 V 343.88 H 309.84 v 0.24 h -0.23999 l -0.18003,0.18002 h -0.23999 v 0.23996 H 308.16 v -2.51999"
       style="fill:#000000;fill-opacity:1;fill-rule:nonzero;stroke:none"
       id="path1429" /><path
       d="m 337.80002,341.53998 v 0.66003 L 308.16,342.62 v -1.26001 L 337.80002,340.94 v 0.59998"
       style="fill:#000000;fill-opacity:1;fill-rule:nonzero;stroke:none"
       id="path1431" /><path
       d="m 339.06,341.12 v 0.89999 l -4.85999,3.36001 -0.66003,-1.07998 4.86001,-3.18002 v 1.08001"
       style="fill:#000000;fill-opacity:1;fill-rule:nonzero;stroke:none"
       id="path1433" /><path
       d="m 339.06,341.12 -0.42002,0.41998 0.42002,0.48001"
       style="fill:#000000;fill-opacity:1;fill-rule:nonzero;stroke:none"
       id="path1435" /><path
       d="M 333.78,338.41998 333.95999,338 l 5.10001,3.12 -0.66001,1.08001 -5.04,-3.18002 0.42001,-0.60001"
       style="fill:#000000;fill-opacity:1;fill-rule:nonzero;stroke:none"
       id="path1437" /><path
       d="m 245.64,342.01999 v 2.51999 h -1.02 v -0.23996 h -0.48 V 344.12 h -0.18001 v -0.24 H 243.72 L 243.53999,343.70001 243.3,343.45999 V 343.28 h -0.18 v -0.42001 L 242.87999,342.62 v -1.5 l 0.24001,-0.18 v -0.23999 l 0.18,-0.18002 V 340.28 h 0.23999 v -0.17999 l 0.18001,-0.24002 0.23999,-0.18 H 244.14 V 339.44 h 0.48 l 0.18,-0.18002 h 1.5 l 0.18,0.18002 h 0.24 l 0.18001,0.23999 H 247.14 l 0.17999,0.18 v 0.24002 H 247.56 l 0.17999,0.17999 v 0.23999 H 247.98 V 340.94 l 0.24,0.18 v 1.73999 h -0.24 V 343.28 h -0.24001 v 0.17999 L 247.56,343.70001 V 343.88 h -0.24001 l -0.17999,0.24 h -0.23999 v 0.18002 H 246.72 l -0.24,0.23996 h -0.84 v -2.51999"
       style="fill:#000000;fill-opacity:1;fill-rule:nonzero;stroke:none"
       id="path1439" /><path
       d="m 283.13998,341.53998 v 0.66003 L 245.64,342.62 v -1.26001 L 283.13998,340.94 v 0.59998"
       style="fill:#000000;fill-opacity:1;fill-rule:nonzero;stroke:none"
       id="path1441" /><path
       d="m 283.13998,341.53998 v 2.76004 H 283.56 V 344.12 h 0.66 v -0.24 h 0.41998 v -0.17999 h 0.18003 v -0.24002 H 285.06 V 343.28 h 0.17999 v -0.24002 l 0.23999,-0.17999 V 342.62 H 285.66 v -0.60001 l 0.23999,-0.23999 v -0.42001 H 285.66 v -0.84 L 285.47998,340.28 v -0.17999 h -0.23999 v -0.24002 l -0.17999,-0.18 h -0.23999 V 339.44 h -0.18003 v -0.18002 h -0.23999 L 284.22,339.01999 h -0.66 V 338.84 h -0.84 l -0.24002,0.17999 H 282.06 l -0.18,0.23999 h -0.24002 V 339.44 h -0.17999 l -0.65997,0.66001 V 340.28 l -0.18002,0.23999 v 0.18002 l -0.24,0.23999 v 1.26001 h 0.24 v 0.65998 h 0.18002 v 0.17999 l 0.23999,0.24002 v 0.17999 H 281.22 l 0.23999,0.24002 0.17999,0.17999 H 281.88 v 0.24 h 0.59998 l 0.24002,0.18002 h 0.41998 v -2.76004"
       style="fill:#000000;fill-opacity:1;fill-rule:nonzero;stroke:none"
       id="path1443" /><path
       d="m 239.28,357.20001 h 12.53999 v 24.96001 H 239.28 Z"
       style="fill:#ffffff;fill-opacity:1;fill-rule:nonzero;stroke:none"
       id="path1445" /><path
       d="m 252.42,382.16 -0.60001,0.65998 H 239.28 V 381.56 h 12.53999 l -0.66,0.6 H 252.42 v 0.65998 h -0.60001"
       style="fill:#000000;fill-opacity:1;fill-rule:nonzero;stroke:none"
       id="path1447" /><path
       d="m 251.81999,356.60001 0.60001,0.6 V 382.16 h -1.26001 v -24.95999 l 0.66,0.65998 v -1.25998 H 252.42 v 0.6"
       style="fill:#000000;fill-opacity:1;fill-rule:nonzero;stroke:none"
       id="path1449" /><path
       d="m 238.67999,357.20001 0.60001,-0.6 h 12.53999 v 1.25998 H 239.28 l 0.65999,-0.65998 h -1.26 v -0.6 H 239.28"
       style="fill:#000000;fill-opacity:1;fill-rule:nonzero;stroke:none"
       id="path1451" /><path
       d="M 239.28,382.81998 238.67999,382.16 v -24.95999 h 1.26 V 382.16 l -0.65999,-0.6 v 1.25998 h -0.60001 V 382.16"
       style="fill:#000000;fill-opacity:1;fill-rule:nonzero;stroke:none"
       id="path1453" /><path
       d="m 239.28,269.89999 h 12.53999 V 294.86 H 239.28 Z"
       style="fill:#ffffff;fill-opacity:1;fill-rule:nonzero;stroke:none"
       id="path1455" /><path
       d="m 252.42,294.85999 -0.60001,0.6 H 239.28 v -1.25998 h 12.53999 l -0.66,0.65998 H 252.42 v 0.6 h -0.60001"
       style="fill:#000000;fill-opacity:1;fill-rule:nonzero;stroke:none"
       id="path1457" /><path
       d="m 251.81999,269.23999 0.60001,0.66 v 24.96 h -1.26001 v -24.96 l 0.66,0.42002 v -1.08002 H 252.42 v 0.66"
       style="fill:#000000;fill-opacity:1;fill-rule:nonzero;stroke:none"
       id="path1459" /><path
       d="m 238.67999,269.89999 0.60001,-0.66 h 12.53999 v 1.08002 H 239.28 l 0.65999,-0.42002 h -1.26 v -0.66 H 239.28"
       style="fill:#000000;fill-opacity:1;fill-rule:nonzero;stroke:none"
       id="path1461" /><path
       d="m 239.28,295.45999 -0.60001,-0.6 v -24.96 h 1.26 v 24.96 L 239.28,294.20001 v 1.25998 h -0.60001 v -0.6"
       style="fill:#000000;fill-opacity:1;fill-rule:nonzero;stroke:none"
       id="path1463" /><path
       d="M 195.23999,354.44 H 196.5 l 1.08,-0.18002 1.26,-0.41998 1.26001,-0.42002 1.07998,-0.41998 1.08,-0.66 0.84002,-0.84 0.83999,-0.60001 0.84,-1.07998 0.84,-0.84003 0.41999,-1.07999 0.66001,-1.01999 0.42,-1.32 0.18,-1.02002 0.23999,-1.25998 0.18001,-1.26001 -0.18001,-1.31998 L 207.3,339.44 l -0.18,-1.26001 -0.42,-1.07998 -0.66001,-1.02002 L 205.62,335 l -0.84,-1.02002 -0.84,-0.89999 -0.83999,-0.84 -0.84002,-0.60001 -1.08,-0.66 -1.07998,-0.41998 -1.26001,-0.42002 -1.26,-0.41998 -1.08,-0.18002 h -2.52 l -1.26,0.18002 -1.26001,0.41998 -1.08,0.42002 -1.25999,0.41998 -0.84,0.66 -1.08,0.60001 -0.84,0.84 -0.84001,0.89999 L 184.86,335 l -0.66,1.07999 -0.59999,1.02002 -0.42002,1.07998 -0.23999,1.26001 -0.18001,1.26001 -0.24,1.31998 0.24,1.26001 0.18001,1.25998 0.23999,1.02002 0.42002,1.32 0.59999,1.01999 0.66,1.07999 0.65999,0.84003 0.84001,1.07998 0.84,0.60001 1.08,0.84 0.84,0.66 1.25999,0.41998 1.08,0.42002 1.26001,0.41998 1.26,0.18002 h 1.25999"
       style="fill:#ffffff;fill-opacity:1;fill-rule:evenodd;stroke:none"
       id="path1465" /><path
       d="M 208.37999,342.01999 208.14,343.28 l -0.18001,1.25998 -0.23999,1.26004 -0.42,1.25998 -0.6,1.07998 -0.66001,1.26001 -0.83999,0.84 -0.84,1.08002 -0.84001,0.83999 -1.07999,0.59998 -1.08,0.66 -1.02,0.60001 -1.26,0.42001 -1.32001,0.47998 -1.25999,0.18003 h -1.26001 V 353.84 h 1.08 l 1.26001,-0.23999 1.07999,-0.42002 1.02,-0.17999 1.08,-0.66 1.02001,-0.60001 0.89999,-0.66 0.84,-0.60001 0.84001,-0.89999 0.59999,-1.01999 0.66001,-0.84 0.83999,-2.16 0.42,-1.25998 V 343.28 l 0.24001,-1.26001"
       style="fill:#000000;fill-opacity:1;fill-rule:nonzero;stroke:none"
       id="path1467" /><path
       d="M 195.23999,328.88 H 196.5 l 1.25999,0.24 1.32001,0.41998 1.26,0.42001 1.02,0.42001 1.08,0.84 1.07999,0.60001 0.84001,0.83999 0.84,1.07999 0.83999,0.84 0.66001,1.08001 0.6,1.25998 0.42,1.26001 0.23999,1.07999 0.18001,1.44003 0.23999,1.31998 H 207.12 l -0.24001,-1.31998 v -1.02002 l -0.42,-1.26001 -0.42,-1.07998 -0.41999,-1.08002 -0.66001,-0.84 -0.59999,-1.01999 -0.84001,-0.83999 -0.84,-0.66001 -0.89999,-0.83999 -1.02001,-0.42002 -1.08,-0.66 -1.02,-0.41998 -1.07999,-0.18 -1.26001,-0.24002 h -1.08"
       style="fill:#000000;fill-opacity:1;fill-rule:nonzero;stroke:none"
       id="path1469" /><path
       d="m 182.10001,342.01999 v -1.31998 l 0.23999,-1.44003 0.17999,-1.07999 0.42001,-1.26001 0.66001,-1.25998 0.59999,-1.08001 0.90001,-0.84 0.83999,-1.07999 0.84,-0.83999 1.02,-0.60001 1.07999,-0.84 1.08,-0.42001 1.26001,-0.42001 1.26,-0.41998 1.25999,-0.24 h 1.5 v 1.25998 H 193.98 l -1.26,0.24002 -1.08,0.18 -1.08,0.41998 -1.02001,0.66 -1.08,0.42002 -0.83999,0.83999 -0.84,0.66001 -0.84,0.83999 -0.66,1.01999 -0.60001,0.84 -0.47999,1.08002 -0.42,1.07998 -0.17999,1.26001 -0.24001,1.02002 -0.18001,1.31998"
       style="fill:#000000;fill-opacity:1;fill-rule:nonzero;stroke:none"
       id="path1471" /><path
       d="m 195.23999,355.10001 h -1.5 l -1.25999,-0.18003 -1.26,-0.47998 -1.26001,-0.42001 -1.08,-0.60001 -1.07999,-0.66 -1.02,-0.59998 -0.84,-0.83999 -0.83999,-1.08002 -0.90001,-0.84 -0.59999,-1.26001 L 182.94,347.06 182.51999,345.80002 182.34,344.53998 182.10001,343.28 v -1.26001 h 1.07998 l 0.18001,1.26001 0.24001,1.02002 0.17999,1.25998 0.42,1.07998 0.47999,1.08002 0.60001,0.84 0.66,1.01999 0.84,0.89999 0.84,0.60001 0.83999,0.66 1.08,0.60001 1.02001,0.66 1.08,0.17999 1.08,0.42002 1.26,0.23999 h 1.25999"
       style="fill:#000000;fill-opacity:1;fill-rule:nonzero;stroke:none"
       id="path1473" /><text
       transform="matrix(1,0,0,-0.974267,363.66,324.38028)"
       style="font-variant:normal;font-weight:normal;font-stretch:normal;font-size:9.1167px;font-family:Arial;-inkscape-font-specification:ArialMT;writing-mode:lr-tb;fill:#000000;fill-opacity:1;fill-rule:nonzero;stroke:none"
       id="text1477"><tspan
         x="0"
         y="0"
         id="tspan1475">4</tspan></text><text
       transform="matrix(1,0,0,-0.974267,363.8396,347.47987)"
       style="font-variant:normal;font-weight:normal;font-stretch:normal;font-size:9.1167px;font-family:Arial;-inkscape-font-specification:ArialMT;writing-mode:lr-tb;fill:#000000;fill-opacity:1;fill-rule:nonzero;stroke:none"
       id="text1481"><tspan
         x="0"
         y="0"
         id="tspan1479">3</tspan></text><text
       transform="matrix(1,0,0,-0.974267,228.29977,275.95947)"
       style="font-variant:normal;font-weight:normal;font-stretch:normal;font-size:9.1167px;font-family:Arial;-inkscape-font-specification:ArialMT;writing-mode:lr-tb;fill:#000000;fill-opacity:1;fill-rule:nonzero;stroke:none"
       id="text1485"><tspan
         x="0"
         y="0"
         id="tspan1483">2</tspan></text><text
       transform="matrix(1,0,0,-0.974267,228.72003,309.79942)"
       style="font-variant:normal;font-weight:normal;font-stretch:normal;font-size:9.1167px;font-family:Arial;-inkscape-font-specification:ArialMT;writing-mode:lr-tb;fill:#000000;fill-opacity:1;fill-rule:nonzero;stroke:none"
       id="text1489"><tspan
         x="0"
         y="0"
         id="tspan1487">2</tspan></text><text
       transform="matrix(1,0,0,-0.974267,228.54044,363.31941)"
       style="font-variant:normal;font-weight:normal;font-stretch:normal;font-size:9.1167px;font-family:Arial;-inkscape-font-specification:ArialMT;writing-mode:lr-tb;fill:#000000;fill-opacity:1;fill-rule:nonzero;stroke:none"
       id="text1493"><tspan
         x="0"
         y="0"
         id="tspan1491">x</tspan></text><text
       transform="matrix(1,0,0,-0.974267,228.96069,397.15936)"
       style="font-variant:normal;font-weight:normal;font-stretch:normal;font-size:9.1167px;font-family:Arial;-inkscape-font-specification:ArialMT;writing-mode:lr-tb;fill:#000000;fill-opacity:1;fill-rule:nonzero;stroke:none"
       id="text1497"><tspan
         x="0"
         y="0"
         id="tspan1495">x</tspan></text><text
       transform="matrix(1,0,0,-0.974267,263.28047,359.95935)"
       style="font-variant:normal;font-weight:normal;font-stretch:normal;font-size:9.1167px;font-family:Arial;-inkscape-font-specification:ArialMT;writing-mode:lr-tb;fill:#000000;fill-opacity:1;fill-rule:nonzero;stroke:none"
       id="text1501"><tspan
         x="0 4.4205966"
         y="0"
         sodipodi:role="line"
         id="tspan1499">zu</tspan></text><text
       transform="matrix(1,0,0,-0.974267,272.55933,359.95935)"
       style="font-variant:normal;font-weight:normal;font-stretch:normal;font-size:9.1167px;font-family:Arial;-inkscape-font-specification:ArialMT;writing-mode:lr-tb;fill:#000000;fill-opacity:1;fill-rule:nonzero;stroke:none"
       id="text1505"><tspan
         x="0 7.4564576 9.7382765 15.681362"
         y="0"
         sodipodi:role="line"
         id="tspan1503">m Y-</tspan></text><text
       transform="matrix(1,0,0,-0.974267,291.24101,359.95935)"
       style="font-variant:normal;font-weight:normal;font-stretch:normal;font-size:9.1167px;font-family:Arial;-inkscape-font-specification:ArialMT;writing-mode:lr-tb;fill:#000000;fill-opacity:1;fill-rule:nonzero;stroke:none"
       id="text1509"><tspan
         x="0"
         y="0"
         id="tspan1507">E</tspan></text><text
       transform="matrix(1,0,0,-0.974267,297.12122,359.95935)"
       style="font-variant:normal;font-weight:normal;font-stretch:normal;font-size:9.1167px;font-family:Arial;-inkscape-font-specification:ArialMT;writing-mode:lr-tb;fill:#000000;fill-opacity:1;fill-rule:nonzero;stroke:none"
       id="text1513"><tspan
         x="0"
         y="0"
         id="tspan1511">i</tspan></text><text
       transform="matrix(1,0,0,-0.974267,299.03932,359.95935)"
       style="font-variant:normal;font-weight:normal;font-stretch:normal;font-size:9.1167px;font-family:Arial;-inkscape-font-specification:ArialMT;writing-mode:lr-tb;fill:#000000;fill-opacity:1;fill-rule:nonzero;stroke:none"
       id="text1517"><tspan
         x="0"
         y="0"
         id="tspan1515">n</tspan></text><text
       transform="matrix(1,0,0,-0.974267,303.89755,359.95935)"
       style="font-variant:normal;font-weight:normal;font-stretch:normal;font-size:9.1167px;font-family:Arial;-inkscape-font-specification:ArialMT;writing-mode:lr-tb;fill:#000000;fill-opacity:1;fill-rule:nonzero;stroke:none"
       id="text1521"><tspan
         x="0"
         y="0"
         id="tspan1519">g</tspan></text><text
       transform="matrix(1,0,0,-0.974267,308.81595,359.95935)"
       style="font-variant:normal;font-weight:normal;font-stretch:normal;font-size:9.1167px;font-family:Arial;-inkscape-font-specification:ArialMT;writing-mode:lr-tb;fill:#000000;fill-opacity:1;fill-rule:nonzero;stroke:none"
       id="text1525"><tspan
         x="0"
         y="0"
         id="tspan1523">a</tspan></text><text
       transform="matrix(1,0,0,-0.974267,313.85471,359.95935)"
       style="font-variant:normal;font-weight:normal;font-stretch:normal;font-size:9.1167px;font-family:Arial;-inkscape-font-specification:ArialMT;writing-mode:lr-tb;fill:#000000;fill-opacity:1;fill-rule:nonzero;stroke:none"
       id="text1529"><tspan
         x="0"
         y="0"
         id="tspan1527">n</tspan></text><text
       transform="matrix(1,0,0,-0.974267,318.7731,359.95935)"
       style="font-variant:normal;font-weight:normal;font-stretch:normal;font-size:9.1167px;font-family:Arial;-inkscape-font-specification:ArialMT;writing-mode:lr-tb;fill:#000000;fill-opacity:1;fill-rule:nonzero;stroke:none"
       id="text1533"><tspan
         x="0"
         y="0"
         id="tspan1531">g</tspan></text><text
       transform="matrix(1,0,0,-0.974267,255.66072,349.99898)"
       style="font-variant:normal;font-weight:normal;font-stretch:normal;font-size:9.1167px;font-family:Arial;-inkscape-font-specification:ArialMT;writing-mode:lr-tb;fill:#000000;fill-opacity:1;fill-rule:nonzero;stroke:none"
       id="text1537"><tspan
         x="0 4.8582892 9.7165785"
         y="0"
         sodipodi:role="line"
         id="tspan1535">des</tspan></text><text
       transform="matrix(1,0,0,-0.974267,272.33877,349.99898)"
       style="font-variant:normal;font-weight:normal;font-stretch:normal;font-size:9.1167px;font-family:Arial;-inkscape-font-specification:ArialMT;writing-mode:lr-tb;fill:#000000;fill-opacity:1;fill-rule:nonzero;stroke:none"
       id="text1541"><tspan
         x="0"
         y="0"
         id="tspan1539">O</tspan></text><text
       transform="matrix(1,0,0,-0.974267,279.12064,349.99898)"
       style="font-variant:normal;font-weight:normal;font-stretch:normal;font-size:9.1167px;font-family:Arial;-inkscape-font-specification:ArialMT;writing-mode:lr-tb;fill:#000000;fill-opacity:1;fill-rule:nonzero;stroke:none"
       id="text1545"><tspan
         x="0"
         y="0"
         id="tspan1543">s</tspan></text><text
       transform="matrix(1,0,0,-0.974267,283.62062,349.99898)"
       style="font-variant:normal;font-weight:normal;font-stretch:normal;font-size:9.1167px;font-family:Arial;-inkscape-font-specification:ArialMT;writing-mode:lr-tb;fill:#000000;fill-opacity:1;fill-rule:nonzero;stroke:none"
       id="text1549"><tspan
         x="0"
         y="0"
         id="tspan1547">z</tspan></text><text
       transform="matrix(1,0,0,-0.974267,288.06042,349.99898)"
       style="font-variant:normal;font-weight:normal;font-stretch:normal;font-size:9.1167px;font-family:Arial;-inkscape-font-specification:ArialMT;writing-mode:lr-tb;fill:#000000;fill-opacity:1;fill-rule:nonzero;stroke:none"
       id="text1553"><tspan
         x="0"
         y="0"
         id="tspan1551">i</tspan></text><text
       transform="matrix(1,0,0,-0.974267,289.91931,349.99898)"
       style="font-variant:normal;font-weight:normal;font-stretch:normal;font-size:9.1167px;font-family:Arial;-inkscape-font-specification:ArialMT;writing-mode:lr-tb;fill:#000000;fill-opacity:1;fill-rule:nonzero;stroke:none"
       id="text1557"><tspan
         x="0"
         y="0"
         id="tspan1555">l</tspan></text><text
       transform="matrix(1,0,0,-0.974267,291.83745,349.99898)"
       style="font-variant:normal;font-weight:normal;font-stretch:normal;font-size:9.1167px;font-family:Arial;-inkscape-font-specification:ArialMT;writing-mode:lr-tb;fill:#000000;fill-opacity:1;fill-rule:nonzero;stroke:none"
       id="text1561"><tspan
         x="0"
         y="0"
         id="tspan1559">l</tspan></text><text
       transform="matrix(1,0,0,-0.974267,293.99626,349.99898)"
       style="font-variant:normal;font-weight:normal;font-stretch:normal;font-size:9.1167px;font-family:Arial;-inkscape-font-specification:ArialMT;writing-mode:lr-tb;fill:#000000;fill-opacity:1;fill-rule:nonzero;stroke:none"
       id="text1565"><tspan
         x="0 4.8582892 9.7165785"
         y="0"
         sodipodi:role="line"
         id="tspan1563">ogr</tspan></text><text
       transform="matrix(1,0,0,-0.974267,306.65292,349.99898)"
       style="font-variant:normal;font-weight:normal;font-stretch:normal;font-size:9.1167px;font-family:Arial;-inkscape-font-specification:ArialMT;writing-mode:lr-tb;fill:#000000;fill-opacity:1;fill-rule:nonzero;stroke:none"
       id="text1569"><tspan
         x="0"
         y="0"
         id="tspan1567">a</tspan></text><text
       transform="matrix(1,0,0,-0.974267,311.57137,349.99898)"
       style="font-variant:normal;font-weight:normal;font-stretch:normal;font-size:9.1167px;font-family:Arial;-inkscape-font-specification:ArialMT;writing-mode:lr-tb;fill:#000000;fill-opacity:1;fill-rule:nonzero;stroke:none"
       id="text1573"><tspan
         x="0"
         y="0"
         id="tspan1571">p</tspan></text><text
       transform="matrix(1,0,0,-0.974267,316.42964,349.99898)"
       style="font-variant:normal;font-weight:normal;font-stretch:normal;font-size:9.1167px;font-family:Arial;-inkscape-font-specification:ArialMT;writing-mode:lr-tb;fill:#000000;fill-opacity:1;fill-rule:nonzero;stroke:none"
       id="text1577"><tspan
         x="0"
         y="0"
         id="tspan1575">h</tspan></text><text
       transform="matrix(1,0,0,-0.974267,321.46843,349.99898)"
       style="font-variant:normal;font-weight:normal;font-stretch:normal;font-size:9.1167px;font-family:Arial;-inkscape-font-specification:ArialMT;writing-mode:lr-tb;fill:#000000;fill-opacity:1;fill-rule:nonzero;stroke:none"
       id="text1581"><tspan
         x="0"
         y="0"
         id="tspan1579">e</tspan></text><text
       transform="matrix(1,0,0,-0.974267,326.38687,349.99898)"
       style="font-variant:normal;font-weight:normal;font-stretch:normal;font-size:9.1167px;font-family:Arial;-inkscape-font-specification:ArialMT;writing-mode:lr-tb;fill:#000000;fill-opacity:1;fill-rule:nonzero;stroke:none"
       id="text1585"><tspan
         x="0"
         y="0"
         id="tspan1583">n</tspan></text><text
       transform="matrix(1,0,0,-0.99540705,355.62,327.38028)"
       style="font-variant:normal;font-weight:bold;font-stretch:normal;font-size:10.6228px;font-family:Arial;-inkscape-font-specification:Arial-BoldMT;writing-mode:lr-tb;fill:#000000;fill-opacity:1;fill-rule:nonzero;stroke:none"
       id="text1589"><tspan
         x="0"
         y="0"
         id="tspan1587">R</tspan></text><text
       transform="matrix(1,0,0,-0.99540705,220.50005,279.38066)"
       style="font-variant:normal;font-weight:bold;font-stretch:normal;font-size:10.6228px;font-family:Arial;-inkscape-font-specification:Arial-BoldMT;writing-mode:lr-tb;fill:#000000;fill-opacity:1;fill-rule:nonzero;stroke:none"
       id="text1593"><tspan
         x="0"
         y="0"
         id="tspan1591">R</tspan></text><text
       transform="matrix(1,0,0,-0.99540705,355.62,350.84087)"
       style="font-variant:normal;font-weight:bold;font-stretch:normal;font-size:10.6228px;font-family:Arial;-inkscape-font-specification:Arial-BoldMT;writing-mode:lr-tb;fill:#000000;fill-opacity:1;fill-rule:nonzero;stroke:none"
       id="text1597"><tspan
         x="0"
         y="0"
         id="tspan1595">R</tspan></text><text
       transform="matrix(1,0,0,-0.99540705,220.50005,365.84109)"
       style="font-variant:normal;font-weight:bold;font-stretch:normal;font-size:10.6228px;font-family:Arial;-inkscape-font-specification:Arial-BoldMT;writing-mode:lr-tb;fill:#000000;fill-opacity:1;fill-rule:nonzero;stroke:none"
       id="text1601"><tspan
         x="0"
         y="0"
         id="tspan1599">R</tspan></text><text
       transform="matrix(1,0,0,-0.99540705,220.91969,399.50136)"
       style="font-variant:normal;font-weight:bold;font-stretch:normal;font-size:10.6228px;font-family:Arial;-inkscape-font-specification:Arial-BoldMT;writing-mode:lr-tb;fill:#000000;fill-opacity:1;fill-rule:nonzero;stroke:none"
       id="text1605"><tspan
         x="0"
         y="0"
         id="tspan1603">C</tspan></text><text
       transform="matrix(1,0,0,-0.99540705,220.67964,312.98172)"
       style="font-variant:normal;font-weight:bold;font-stretch:normal;font-size:10.6228px;font-family:Arial;-inkscape-font-specification:Arial-BoldMT;writing-mode:lr-tb;fill:#000000;fill-opacity:1;fill-rule:nonzero;stroke:none"
       id="text1609"><tspan
         x="0"
         y="0"
         id="tspan1607">C</tspan></text><path
       d="m 339.47998,319.75998 h 12.48 v 43.62 h -12.48 z"
       style="fill:#ffffff;fill-opacity:1;fill-rule:nonzero;stroke:none"
       id="path1611" /><path
       d="m 352.62,363.38 -0.66001,0.59998 H 339.47998 V 362.72 h 12.48001 l -0.6,0.66 H 352.62 v 0.59998 h -0.66001"
       style="fill:#000000;fill-opacity:1;fill-rule:nonzero;stroke:none"
       id="path1613" /><path
       d="m 351.95999,319.16 0.66001,0.59998 V 363.38 h -1.26001 v -43.62002 l 0.6,0.66 V 319.16 H 352.62 v 0.59998"
       style="fill:#000000;fill-opacity:1;fill-rule:nonzero;stroke:none"
       id="path1615" /><path
       d="m 338.82001,319.75998 0.65997,-0.59998 h 12.48001 v 1.25998 h -12.48001 l 0.66,-0.66 h -1.31997 V 319.16 h 0.65997"
       style="fill:#000000;fill-opacity:1;fill-rule:nonzero;stroke:none"
       id="path1617" /><path
       d="M 339.47998,363.97998 338.82001,363.38 v -43.62002 h 1.31997 V 363.38 l -0.66,-0.66 v 1.25998 h -0.65997 V 363.38"
       style="fill:#000000;fill-opacity:1;fill-rule:nonzero;stroke:none"
       id="path1619" /><path
       d="M 351.95999,341.53998 H 370.62"
       style="fill:none;stroke:#000000;stroke-width:0.06;stroke-linecap:round;stroke-linejoin:round;stroke-miterlimit:10;stroke-dasharray:none;stroke-opacity:1"
       id="path1621" /><path
       d="M 255,400.75998 V 401.84 h -18.89999 v -1.92002 H 255 v 0.84"
       style="fill:#000000;fill-opacity:1;fill-rule:nonzero;stroke:none"
       id="path1623" /><path
       d="m 255,407.12 v 0.83999 H 236.10001 V 406.28 H 255 v 0.84"
       style="fill:#000000;fill-opacity:1;fill-rule:nonzero;stroke:none"
       id="path1625" /><path
       d="m 255,313.45999 v 0.84003 H 236.10001 V 312.62 H 255 v 0.83999"
       style="fill:#000000;fill-opacity:1;fill-rule:nonzero;stroke:none"
       id="path1627" /><path
       d="M 255,319.75998 V 320.66 h -18.89999 v -1.74002 H 255 v 0.84"
       style="fill:#000000;fill-opacity:1;fill-rule:nonzero;stroke:none"
       id="path1629" /><text
       transform="matrix(1,0,0,-0.99710312,187.2,331.4003)"
       style="font-variant:normal;font-weight:normal;font-stretch:normal;font-size:29.2694px;font-family:Arial;-inkscape-font-specification:ArialMT;writing-mode:lr-tb;fill:#000000;fill-opacity:1;fill-rule:nonzero;stroke:none"
       id="text1633"><tspan
         x="0"
         y="0"
         id="tspan1631">~</tspan></text><path
       d="m 255.84,292.51999 -0.42,0.42001 -22.92,-22.61999 1.08,-1.08002 22.67998,22.86002 -0.41998,0.41998"
       style="fill:#000000;fill-opacity:1;fill-rule:nonzero;stroke:none"
       id="path1635" /><path
       d="m 258.12,294.85999 -3.60001,-1.31998 2.34,-2.28003 1.26001,3.60001"
       style="fill:#000000;fill-opacity:1;fill-rule:nonzero;stroke:none"
       id="path1637" /></g></svg>
