<?xml version="1.0" encoding="UTF-8" standalone="no"?>
<!-- Created with Inkscape (http://www.inkscape.org/) -->

<svg
   version="1.1"
   id="svg4954"
   xml:space="preserve"
   width="121.18456mm"
   height="83.786995mm"
   viewBox="0 0 458.02037 316.67524"
   sodipodi:docname="schaltung6.svg"
   inkscape:version="1.1.1 (3bf5ae0d25, 2021-09-20)"
   xmlns:inkscape="http://www.inkscape.org/namespaces/inkscape"
   xmlns:sodipodi="http://sodipodi.sourceforge.net/DTD/sodipodi-0.dtd"
   xmlns="http://www.w3.org/2000/svg"
   xmlns:svg="http://www.w3.org/2000/svg"><defs
     id="defs4958"><clipPath
       clipPathUnits="userSpaceOnUse"
       id="clipPath4976"><path
         d="m 362.75998,759.56 h 3.89999 v 25.74001 h -3.89999 z"
         id="path4974" /></clipPath></defs><sodipodi:namedview
     id="namedview4956"
     pagecolor="#505050"
     bordercolor="#ffffff"
     borderopacity="1"
     inkscape:pageshadow="0"
     inkscape:pageopacity="0"
     inkscape:pagecheckerboard="1"
     showgrid="false"
     units="mm"
     fit-margin-top="5"
     fit-margin-left="5"
     fit-margin-right="5"
     fit-margin-bottom="5"
     inkscape:zoom="0.52731588"
     inkscape:cx="200.06983"
     inkscape:cy="-138.43695"
     inkscape:window-width="1368"
     inkscape:window-height="842"
     inkscape:window-x="-6"
     inkscape:window-y="-6"
     inkscape:window-maximized="1"
     inkscape:current-layer="g4960"
     inkscape:document-units="mm" /><g
     id="g4960"
     inkscape:groupmode="layer"
     inkscape:label="V302"
     transform="matrix(1.3333333,0,0,-1.3333333,-196.38234,422.60429)"><path
       d="m 277.44,278.84 h -0.78 V 156.08 h 1.56 v 122.76 h -0.78"
       style="fill:#000000;fill-opacity:1;fill-rule:nonzero;stroke:none"
       id="path5308" /><path
       d="m 277.44,287.17999 -0.78,-0.54001 v -15.59997 h 1.56 v 15.59997 l -0.78,-0.77999 v 1.32 h -0.78 v -0.54001"
       style="fill:#000000;fill-opacity:1;fill-rule:nonzero;stroke:none"
       id="path5310" /><path
       d="m 401.75998,286.63998 -0.84,0.54001 H 277.44 v -1.32 h 123.47998 l -0.78,0.77999 h 1.62 v 0.54001 h -0.84"
       style="fill:#000000;fill-opacity:1;fill-rule:nonzero;stroke:none"
       id="path5312" /><path
       d="m 400.91998,263.47998 h 0.84 v 23.16 h -1.62 v -23.16 h 0.78"
       style="fill:#000000;fill-opacity:1;fill-rule:nonzero;stroke:none"
       id="path5314" /><path
       d="m 400.91998,144.31999 h 0.84 v 111.36 h -1.62 v -111.36 h 0.78"
       style="fill:#000000;fill-opacity:1;fill-rule:nonzero;stroke:none"
       id="path5316" /><path
       d="m 400.91998,109.22 0.84,0.53999 v 27.06 h -1.62 v -27.06 l 0.78,0.78002 V 109.22 h 0.84 v 0.53999"
       style="fill:#000000;fill-opacity:1;fill-rule:nonzero;stroke:none"
       id="path5318" /><path
       d="m 276.66,109.75999 0.78,-0.53999 h 123.47998 v 1.32001 H 277.44 l 0.78,-0.78002 h -1.56 V 109.22 h 0.78"
       style="fill:#000000;fill-opacity:1;fill-rule:nonzero;stroke:none"
       id="path5320" /><path
       d="m 277.44,125.36 h -0.78 v -15.60001 h 1.56 V 125.36 h -0.78"
       style="fill:#000000;fill-opacity:1;fill-rule:nonzero;stroke:none"
       id="path5322" /><path
       d="m 339.17999,286.63998 h -3.42001 v -0.77999 L 336.06,285.62 v -0.54001 l 0.24002,-0.23999 v -0.23999 h 0.23996 v -0.29999 L 336.84,284.06 h 0.23999 v -0.23999 H 337.38 l 0.24,-0.30002 h 0.54 V 283.28 h 2.09998 v 0.23999 h 0.48001 l 0.29999,0.30002 H 341.28 V 284.06 h 0.23999 v 0.24002 h 0.30002 v 0.29999 H 342.06 v 0.47998 l 0.24002,0.30001 v 0.47999 l 0.29999,0.30001 v 0.78 l -0.29999,0.23999 V 287.72 L 342.06,287.95999 V 288.5 h -0.23999 v 0.23999 h -0.30002 v 0.23999 H 341.28 V 289.28 h -0.24002 l -0.29999,0.23999 h -0.48001 v 0.23999 H 338.16 v -0.23999 h -0.54 L 337.38,289.28 h -0.30001 v -0.30002 H 336.84 l -0.30002,-0.23999 V 288.5 h -0.23996 v -0.29999 L 336.06,287.95999 v -0.54001 l -0.30002,-0.23999 v -0.54001 h 3.42001"
       style="fill:#000000;fill-opacity:1;fill-rule:nonzero;stroke:none"
       id="path5324" /><path
       d="m 339.17999,301.22 -0.78,0.78 v -15.36002 h 1.56 V 302 l -0.78,0.78 0.78,-0.78 v 0.78 h -0.78"
       style="fill:#000000;fill-opacity:1;fill-rule:nonzero;stroke:none"
       id="path5326" /><path
       d="m 216.17999,302 -0.77998,-0.78 h 123.77998 v 1.56 H 215.40001 L 214.62,302 l 0.78001,0.78 H 214.62 V 302"
       style="fill:#000000;fill-opacity:1;fill-rule:nonzero;stroke:none"
       id="path5328" /><path
       d="m 215.40001,95.18001 0.77998,-0.78 V 302 H 214.62 V 94.40001 L 215.40001,93.62 214.62,94.40001 V 93.62 h 0.78001"
       style="fill:#000000;fill-opacity:1;fill-rule:nonzero;stroke:none"
       id="path5330" /><path
       d="m 338.39999,94.40001 0.78,0.78 H 215.40001 V 93.62 h 123.77998 l 0.78,0.78001 -0.78,-0.78001 h 0.78 v 0.78001"
       style="fill:#000000;fill-opacity:1;fill-rule:nonzero;stroke:none"
       id="path5332" /><path
       d="m 339.17999,109.75999 h -0.78 V 94.40001 h 1.56 v 15.35998 h -0.78"
       style="fill:#000000;fill-opacity:1;fill-rule:nonzero;stroke:none"
       id="path5334" /><path
       d="m 339.17999,109.75999 h -3.42001 v 0.78002 L 336.06,110.78 v 0.54001 l 0.24002,0.23999 v 0.24 h 0.23996 v 0.30001 L 336.84,112.34 h 0.23999 v 0.24 H 337.38 l 0.24,0.3 h 0.54 v 0.24 h 2.09998 v -0.24 h 0.48001 l 0.29999,-0.3 H 341.28 v -0.24 h 0.23999 v -0.23999 h 0.30002 V 111.8 H 342.06 v -0.47999 l 0.24002,-0.30001 v -0.47999 l 0.29999,-0.3 v -0.78 L 342.30002,109.22 v -0.53999 L 342.06,108.44 v -0.53999 h -0.23999 V 107.66 h -0.30002 v -0.24 H 341.28 v -0.3 h -0.24002 l -0.29999,-0.24 h -0.48001 v -0.24 H 338.16 v 0.24 h -0.54 l -0.24,0.24 h -0.30001 v 0.3 H 336.84 l -0.30002,0.24 v 0.24001 h -0.23996 v 0.3 L 336.06,108.44 v 0.54 l -0.30002,0.24 v 0.53999 h 3.42001"
       style="fill:#000000;fill-opacity:1;fill-rule:nonzero;stroke:none"
       id="path5336" /><path
       d="m 354.60001,175.58 v 3.36 H 354.12 l -0.29999,-0.24 H 353.34 l -0.30002,-0.29999 h -0.23996 v -0.24002 H 352.56 l -0.30002,-0.23999 -0.23999,-0.3 v -0.24001 H 351.72 V 177.14 l -0.24002,-0.3 v -0.48 l -0.23999,-0.3 v -1.02001 h 0.23999 v -0.78 H 351.72 V 173.72 h 0.29999 v -0.24 h 0.23999 v -0.24001 L 352.56,172.94 h 0.24002 v -0.24 h 0.23996 l 0.30002,-0.24001 h 0.48001 L 354.12,172.16 h 1.01998 v 0.29999 h 0.78 V 172.7 h 0.54001 l 0.24002,0.24 0.29999,0.29999 0.23999,0.24001 0.23999,0.24 v 0.29999 l 0.30002,0.24 V 174.8 l 0.23999,0.23999 V 176.06 l -0.23999,0.3 v 0.48 l -0.30002,0.3 v 0.23999 l -0.23999,0.24001 v 0.3 H 357 l -0.29999,0.23999 -0.24002,0.24002 H 356.22 L 355.91998,178.7 H 355.44 l -0.30002,0.24 h -0.53997 v -3.36"
       style="fill:#000000;fill-opacity:1;fill-rule:nonzero;stroke:none"
       id="path5338" /><path
       d="m 400.91998,175.03999 v 0.78 L 354.60001,176.36 v -1.56 l 46.31997,-0.54001 v 0.78"
       style="fill:#000000;fill-opacity:1;fill-rule:nonzero;stroke:none"
       id="path5340" /><path
       d="m 400.91998,175.03999 v 3.36002 H 402 l 0.23999,-0.24002 h 0.29999 L 402.78,177.92 h 0.23999 v -0.3 h 0.29999 v -0.24001 H 403.56 V 177.14 h 0.24002 v -0.3 l 0.29999,-0.23999 V 176.06 l 0.23999,-0.24001 v -1.56 h -0.23999 V 173.72 l -0.29999,-0.24 v -0.24001 H 403.56 V 172.94 l -0.24002,-0.24 h -0.29999 v -0.24001 H 402.78 V 172.16 h -0.54001 v -0.24 h -2.34 v 0.24 h -0.54 v 0.29999 H 399.12 l -0.24,0.24001 -0.30001,0.24 H 398.34 v 0.29999 l -0.23999,0.24001 v 0.53999 h -0.29999 V 176.36 h 0.29999 v 0.48 l 0.23999,0.3 0.23999,0.23999 V 177.62 H 398.88 l 0.24,0.3 h 0.23999 v 0.23999 h 0.54 l 0.23999,0.24002 h 0.78 v -3.36002"
       style="fill:#000000;fill-opacity:1;fill-rule:nonzero;stroke:none"
       id="path5342" /><path
       d="m 277.44,175.58 v 3.36 h -0.78 v -0.24 h -0.83999 v -0.29999 h -0.24002 L 275.34,178.15999 h -0.29999 V 177.92 h -0.23999 v -0.3 H 274.56 v -0.24001 L 274.25998,177.14 v -0.53999 L 274.01999,176.36 v -1.86 h 0.23999 v -0.48001 H 274.56 V 173.72 l 0.24002,-0.24 0.23999,-0.24001 V 172.94 H 275.34 l 0.23999,-0.24 h 0.24002 l 0.29999,-0.24001 h 0.54 l 0.23999,-0.29999 h 0.78 l 0.23999,0.29999 h 0.54001 l 0.24002,0.24001 h 0.53998 v 0.24 h 0.30002 v 0.29999 H 279.78 V 173.48 h 0.23999 v 0.24 l 0.30002,0.29999 v 0.24 L 280.56,174.5 v 2.10001 l -0.23999,0.23999 v 0.53999 h -0.30002 V 177.62 l -0.23999,0.3 h -0.23999 v 0.23999 h -0.30002 v 0.24002 h -0.53998 V 178.7 h -0.78003 v 0.24 H 277.44 v -3.36"
       style="fill:#000000;fill-opacity:1;fill-rule:nonzero;stroke:none"
       id="path5344" /><path
       d="m 323.75998,175.03999 v 0.78 L 277.44,176.36 v -1.56 l 46.31998,-0.54001 v 0.78"
       style="fill:#000000;fill-opacity:1;fill-rule:nonzero;stroke:none"
       id="path5346" /><path
       d="m 323.75998,175.03999 v 3.36002 H 324.78 v -0.24002 h 0.54001 L 325.56,177.92 h 0.29999 v -0.3 h 0.24002 v -0.24001 L 326.34,177.14 v -0.3 h 0.29998 v -0.23999 L 326.88,176.36 v -0.78 h 0.24 v -0.78 l -0.24,-0.3 v -0.78 h -0.24002 v -0.24 L 326.34,173.23999 V 172.94 h -0.23999 v -0.24 h -0.24002 L 325.56,172.45999 325.32001,172.16 h -0.24002 L 324.78,171.92 h -2.10001 l -0.23999,0.24 h -0.23999 l -0.30002,0.29999 H 321.66 V 172.7 h -0.30001 v 0.24 H 321.12 v 0.29999 h -0.24 V 173.48 l -0.30001,0.24 v 0.53999 L 320.34,174.5 v 1.31999 l 0.23999,0.24001 v 0.54001 L 320.88,176.84 v 0.3 h 0.24 v 0.23999 h 0.23999 V 177.62 H 321.66 v 0.3 h 0.23999 l 0.30002,0.23999 h 0.47998 v 0.24002 h 1.07999 v -3.36002"
       style="fill:#000000;fill-opacity:1;fill-rule:nonzero;stroke:none"
       id="path5348" /><path
       d="m 269.57999,217.45999 h 15.42 v 30.72 h -15.42 z"
       style="fill:#ffffff;fill-opacity:1;fill-rule:nonzero;stroke:none"
       id="path5350" /><path
       d="m 285.78,248.17999 -0.78,0.78 h -15.42001 v -1.55998 H 285 l -0.78,0.77998 h 1.56 v 0.78 H 285"
       style="fill:#000000;fill-opacity:1;fill-rule:nonzero;stroke:none"
       id="path5352" /><path
       d="m 285,216.67999 0.78,0.78 v 30.72 h -1.56 v -30.72 l 0.78,0.78 v -1.56 h 0.78 v 0.78"
       style="fill:#000000;fill-opacity:1;fill-rule:nonzero;stroke:none"
       id="path5354" /><path
       d="m 268.80002,217.45999 0.77997,-0.78 H 285 v 1.56 h -15.42001 l 0.78,-0.78 h -1.55997 v -0.78 h 0.77997"
       style="fill:#000000;fill-opacity:1;fill-rule:nonzero;stroke:none"
       id="path5356" /><path
       d="m 269.57999,248.95999 -0.77997,-0.78 v -30.72 h 1.55997 v 30.72 l -0.78,-0.77998 v 1.55998 h -0.77997 v -0.78"
       style="fill:#000000;fill-opacity:1;fill-rule:nonzero;stroke:none"
       id="path5358" /><path
       d="m 269.57999,125.36 h 15.42 v 30.72 h -15.42 z"
       style="fill:#ffffff;fill-opacity:1;fill-rule:nonzero;stroke:none"
       id="path5360" /><path
       d="m 285.78,156.08 -0.78,0.78 h -15.42001 v -1.62001 H 285 l -0.78,0.84001 h 1.56 v 0.78 H 285"
       style="fill:#000000;fill-opacity:1;fill-rule:nonzero;stroke:none"
       id="path5362" /><path
       d="m 285,124.58 0.78,0.78 v 30.72 h -1.56 v -30.72 l 0.78,0.54001 V 124.58 h 0.78 v 0.78"
       style="fill:#000000;fill-opacity:1;fill-rule:nonzero;stroke:none"
       id="path5364" /><path
       d="m 268.80002,125.36 0.77997,-0.78 H 285 v 1.32001 h -15.42001 l 0.78,-0.54001 h -1.55997 v -0.78 h 0.77997"
       style="fill:#000000;fill-opacity:1;fill-rule:nonzero;stroke:none"
       id="path5366" /><path
       d="m 269.57999,156.86 -0.77997,-0.78 v -30.72 h 1.55997 v 30.72 l -0.78,-0.84001 V 156.86 h -0.77997 v -0.78"
       style="fill:#000000;fill-opacity:1;fill-rule:nonzero;stroke:none"
       id="path5368" /><path
       d="m 393.35999,194.3 h 15.42 v 30.72 h -15.42 z"
       style="fill:#ffffff;fill-opacity:1;fill-rule:nonzero;stroke:none"
       id="path5370" /><path
       d="M 409.56,225.01999 408.78,225.8 h -15.42001 v -1.56001 H 408.78 l -0.78,0.78 h 1.56 V 225.8 h -0.78"
       style="fill:#000000;fill-opacity:1;fill-rule:nonzero;stroke:none"
       id="path5372" /><path
       d="m 408.78,193.51999 0.78,0.78001 v 30.71999 H 408 V 194.3 l 0.78,0.78 v -1.56001 h 0.78 V 194.3"
       style="fill:#000000;fill-opacity:1;fill-rule:nonzero;stroke:none"
       id="path5374" /><path
       d="m 392.57999,194.3 0.78,-0.78001 H 408.78 V 195.08 h -15.42001 l 0.77999,-0.78 h -1.55999 v -0.78001 h 0.78"
       style="fill:#000000;fill-opacity:1;fill-rule:nonzero;stroke:none"
       id="path5376" /><path
       d="m 393.35999,225.8 -0.78,-0.78001 V 194.3 h 1.55999 v 30.71999 l -0.77999,-0.78 V 225.8 h -0.78 v -0.78001"
       style="fill:#000000;fill-opacity:1;fill-rule:nonzero;stroke:none"
       id="path5378" /><path
       d="m 215.40001,225.01999 h 1.55998 l 1.56,-0.29999 1.56001,-0.24 1.32001,-0.54 1.31999,-0.78001 2.64,-1.55998 1.01999,-1.02001 1.08,-1.02 0.78,-1.32001 0.78,-1.31999 0.78001,-1.31999 0.54,-1.26001 0.24,-1.56 0.23999,-1.56 v -3.11999 l -0.23999,-1.56002 -0.24,-1.31999 -0.54,-1.56001 -0.78001,-1.31999 -0.78,-1.26 -0.78,-1.08 -1.08,-1.02 -1.01999,-1.02001 -1.32001,-1.08 -1.31999,-0.77998 -1.31999,-0.48001 -1.32001,-0.54 -1.56001,-0.54001 h -1.56 L 215.40001,194.3 213.84,194.53999 h -1.56 l -1.32001,0.54001 -1.55998,0.54 -1.32001,0.48001 -1.32001,0.77998 -1.02,1.08 -1.08,1.02001 -1.01999,1.02 -1.08,1.08 -0.78,1.26 -0.54001,1.31999 -0.48,1.56001 -0.53999,1.31999 v 1.56002 l -0.24,1.55998 0.24,1.56001 v 1.56 l 0.53999,1.56 0.48,1.26001 0.54001,1.31999 0.78,1.31999 1.08,1.32001 1.01999,1.02 1.08,1.02001 1.02,0.77998 1.32001,0.78 1.32001,0.78001 1.55998,0.54 1.32001,0.24 1.56,0.29999 h 1.56001"
       style="fill:#ffffff;fill-opacity:1;fill-rule:evenodd;stroke:none"
       id="path5380" /><path
       d="m 231.60001,209.65999 v 1.8 l -0.24001,1.56 -0.24,1.56001 -0.78,1.32001 -0.54,1.55998 -0.78001,1.32001 -1.07999,1.25999 -1.02,1.08001 -1.08,1.02 -1.26,1.01999 -1.32001,0.78001 -1.55999,0.54 -1.32001,0.53999 -1.56,0.48001 -1.61999,0.3 h -1.79999 v -1.56001 h 1.55998 l 1.56,-0.29999 1.32001,-0.24 1.31999,-0.54001 1.32001,-0.48 1.25999,-0.77998 1.08,-0.78001 1.02001,-1.08001 1.08,-1.02 0.78,-1.01999 0.78,-1.32001 0.53999,-1.31999 0.48001,-1.32001 0.3,-1.25999 0.23999,-1.56 v -1.56001"
       style="fill:#000000;fill-opacity:1;fill-rule:nonzero;stroke:none"
       id="path5382" /><path
       d="m 215.40001,193.51999 1.79999,0.24 1.61999,0.30001 1.56,0.24 1.32001,0.54 1.55999,0.78 1.32001,0.78001 1.26,0.77998 1.08,1.02001 1.02,1.31999 1.07999,1.26001 0.78001,1.32001 0.54,1.31999 0.78,1.56 0.24,1.55999 0.24001,1.56002 v 1.55998 h -1.56002 V 208.34 l -0.23999,-1.56 -0.3,-1.32001 -0.48001,-1.55998 -0.53999,-1.02002 -0.78,-1.31999 -0.78,-1.02001 -1.08,-1.02 -1.02001,-1.07999 -1.08,-0.78001 -1.25999,-0.78 -1.32001,-0.47998 -1.31999,-0.54001 -1.32001,-0.54001 -1.56,-0.23999 h -1.55998"
       style="fill:#000000;fill-opacity:1;fill-rule:nonzero;stroke:none"
       id="path5384" /><path
       d="m 199.14,209.65999 0.3,-1.55998 0.23999,-1.56002 0.30001,-1.55999 0.47999,-1.56 0.78,-1.31999 0.78,-1.32001 0.84001,-1.26001 1.01999,-1.31999 1.32001,-1.02001 1.31999,-0.77998 1.26001,-0.78001 1.32001,-0.78 1.55998,-0.54 1.62001,-0.24 1.56,-0.30001 1.56001,-0.24 V 195.08 H 214.08 l -1.56001,0.23999 -1.31999,0.54001 -1.56,0.54001 -1.08,0.47998 -1.26,0.78 -1.08,0.78001 -1.02,1.07999 -1.08,1.02 -0.78,1.02001 -0.78,1.31999 -0.54001,1.02002 -0.48,1.55998 L 201,206.78 l -0.24001,1.56 v 1.31999"
       style="fill:#000000;fill-opacity:1;fill-rule:nonzero;stroke:none"
       id="path5386" /><path
       d="M 215.40001,225.8 H 213.84 l -1.56,-0.3 -1.62001,-0.48001 L 209.10001,224.48 207.78,223.94 206.51999,223.15999 205.2,222.14 l -1.32001,-1.02 -1.01999,-1.08001 -0.84001,-1.25999 -0.78,-1.32001 -0.78,-1.55998 -0.47999,-1.32001 -0.30001,-1.56001 -0.23999,-1.56 -0.3,-1.8 h 1.61999 V 211.22 l 0.24001,1.56 0.53999,1.25999 0.48,1.32001 0.54001,1.31999 0.78,1.32001 0.78,1.01999 1.08,1.02 1.02,1.08001 1.08,0.78001 1.26,0.77998 1.08,0.48 1.56,0.54001 1.31999,0.24 1.56001,0.29999 h 1.32001"
       style="fill:#000000;fill-opacity:1;fill-rule:nonzero;stroke:none"
       id="path5388" /><text
       transform="matrix(1,0,0,-0.99103245,467.22,134.4203)"
       style="font-variant:normal;font-weight:bold;font-stretch:normal;font-size:13.1262px;font-family:Arial;-inkscape-font-specification:Arial-BoldMT;writing-mode:lr-tb;fill:#000000;fill-opacity:1;fill-rule:nonzero;stroke:none"
       id="text5392"><tspan
         x="0"
         y="0"
         id="tspan5390">R</tspan></text><text
       transform="matrix(1,0,0,-0.99103245,372.95932,135.44017)"
       style="font-variant:normal;font-weight:bold;font-stretch:normal;font-size:13.1262px;font-family:Arial;-inkscape-font-specification:Arial-BoldMT;writing-mode:lr-tb;fill:#000000;fill-opacity:1;fill-rule:nonzero;stroke:none"
       id="text5396"><tspan
         x="0"
         y="0"
         id="tspan5394">C</tspan></text><text
       transform="matrix(1,0,0,-0.99103245,415.13899,255.13916)"
       style="font-variant:normal;font-weight:bold;font-stretch:normal;font-size:13.1262px;font-family:Arial;-inkscape-font-specification:Arial-BoldMT;writing-mode:lr-tb;fill:#000000;fill-opacity:1;fill-rule:nonzero;stroke:none"
       id="text5400"><tspan
         x="0"
         y="0"
         id="tspan5398">C</tspan></text><text
       transform="matrix(1,0,0,-0.99103245,246.05898,228.31946)"
       style="font-variant:normal;font-weight:bold;font-stretch:normal;font-size:13.1262px;font-family:Arial;-inkscape-font-specification:Arial-BoldMT;writing-mode:lr-tb;fill:#000000;fill-opacity:1;fill-rule:nonzero;stroke:none"
       id="text5404"><tspan
         x="0 7.317862"
         y="0"
         sodipodi:role="line"
         id="tspan5402">2R</tspan></text><text
       transform="matrix(1,0,0,-0.99103245,254.1591,136.75916)"
       style="font-variant:normal;font-weight:bold;font-stretch:normal;font-size:13.1262px;font-family:Arial;-inkscape-font-specification:Arial-BoldMT;writing-mode:lr-tb;fill:#000000;fill-opacity:1;fill-rule:nonzero;stroke:none"
       id="text5408"><tspan
         x="0"
         y="0"
         id="tspan5406">R</tspan></text><text
       transform="matrix(1,0,0,-0.99103245,414.59941,205.69908)"
       style="font-variant:normal;font-weight:bold;font-stretch:normal;font-size:13.1262px;font-family:Arial;-inkscape-font-specification:Arial-BoldMT;writing-mode:lr-tb;fill:#000000;fill-opacity:1;fill-rule:nonzero;stroke:none"
       id="text5412"><tspan
         x="0"
         y="0"
         id="tspan5410">R</tspan></text><text
       transform="matrix(1,0,0,-0.99270341,205.5,196.88029)"
       style="font-variant:normal;font-weight:normal;font-stretch:normal;font-size:36.1676px;font-family:Arial;-inkscape-font-specification:ArialMT;writing-mode:lr-tb;fill:#000000;fill-opacity:1;fill-rule:nonzero;stroke:none"
       id="text5416"><tspan
         x="0"
         y="0"
         id="tspan5414">~</tspan></text><path
       d="M 400.91998,109.75999 V 113.12 h -1.01999 v -0.24 h -0.54 v -0.3 H 399.12 l -0.24,-0.24 h -0.30001 v -0.23999 H 398.34 V 111.8 l -0.23999,-0.24 v -0.54 h -0.29999 v -2.33999 h 0.29999 v -0.48 l 0.23999,-0.3 V 107.66 h 0.23999 v -0.24 H 398.88 l 0.24,-0.3 h 0.23999 v -0.24 H 399.66 l 0.23999,-0.24 h 2.34 v 0.24 h 0.29999 l 0.24002,0.24 h 0.23999 v 0.3 h 0.29999 l 0.24002,0.24 0.24002,0.24001 v 0.3 h 0.29999 V 108.98 H 404.34 v 1.8 h -0.23999 v 0.78 h -0.29999 v 0.24 l -0.24002,0.30001 -0.24002,0.23999 h -0.29999 v 0.24 H 402.78 l -0.24002,0.3 h -0.29999 L 402,113.12 h -1.08002 v -3.36001"
       style="fill:#000000;fill-opacity:1;fill-rule:nonzero;stroke:none"
       id="path5418" /><path
       d="m 454.31998,109.75999 0.78003,0.78002 H 400.91998 V 109.22 h 54.18003 L 455.88,109.75999 455.10001,109.22 H 455.88 v 0.53999"
       style="fill:#000000;fill-opacity:1;fill-rule:nonzero;stroke:none"
       id="path5420" /><path
       d="m 455.10001,174.25999 -0.78003,0.78 v -65.28 H 455.88 v 65.28 l -0.77999,0.78 0.77999,-0.78 v 0.78 h -0.77999"
       style="fill:#000000;fill-opacity:1;fill-rule:nonzero;stroke:none"
       id="path5422" /><path
       d="m 400.91998,175.03999 v -0.78 h 54.18003 v 1.56 h -54.18003 v -0.78"
       style="fill:#000000;fill-opacity:1;fill-rule:nonzero;stroke:none"
       id="path5424" /><path
       d="m 447.53998,125.36 h 15.42 v 30.72 h -15.42 z"
       style="fill:#ffffff;fill-opacity:1;fill-rule:nonzero;stroke:none"
       id="path5426" /><path
       d="m 463.73999,156.08 -0.78,0.78 h -15.42001 v -1.62001 h 15.42001 l -0.78,0.84001 h 1.56 v 0.78 h -0.78"
       style="fill:#000000;fill-opacity:1;fill-rule:nonzero;stroke:none"
       id="path5428" /><path
       d="m 462.95999,124.58 0.78,0.78 v 30.72 h -1.56 v -30.72 l 0.78,0.54001 V 124.58 h 0.78 v 0.78"
       style="fill:#000000;fill-opacity:1;fill-rule:nonzero;stroke:none"
       id="path5430" /><path
       d="m 446.75998,125.36 0.78,-0.78 h 15.42001 v 1.32001 h -15.42001 l 0.54001,-0.54001 h -1.32001 v -0.78 h 0.78"
       style="fill:#000000;fill-opacity:1;fill-rule:nonzero;stroke:none"
       id="path5432" /><path
       d="m 447.53998,156.86 -0.78,-0.78 v -30.72 h 1.32001 v 30.72 l -0.54001,-0.84001 V 156.86 h -0.78 v -0.78"
       style="fill:#000000;fill-opacity:1;fill-rule:nonzero;stroke:none"
       id="path5434" /><path
       d="M 412.73999,144.31999 V 145.64 h -23.28 v -2.34 h 23.28 v 1.01999"
       style="fill:#000000;fill-opacity:1;fill-rule:nonzero;stroke:none"
       id="path5436" /><path
       d="M 412.73999,136.81999 V 137.84 h -23.28 v -2.10001 h 23.28 v 1.08"
       style="fill:#000000;fill-opacity:1;fill-rule:nonzero;stroke:none"
       id="path5438" /><path
       d="m 264.06,235.15999 h 0.78 V 238.28 h -1.56 v -3.12001 h 0.78"
       style="fill:#000000;fill-opacity:1;fill-rule:nonzero;stroke:none"
       id="path5440" /><path
       d="m 264.35999,143.84 h 0.77999 v 3.36 h -1.61999 v -3.36 h 0.84"
       style="fill:#000000;fill-opacity:1;fill-rule:nonzero;stroke:none"
       id="path5442" /><path
       d="M 412.73999,263.47998 V 264.56 h -23.28 v -2.10001 h 23.28 v 1.01999"
       style="fill:#000000;fill-opacity:1;fill-rule:nonzero;stroke:none"
       id="path5444" /><path
       d="M 412.73999,255.67999 V 257 h -23.28 v -2.34001 h 23.28 v 1.02"
       style="fill:#000000;fill-opacity:1;fill-rule:nonzero;stroke:none"
       id="path5446" /><text
       transform="matrix(1,0,0,-0.96997834,341.28,161.4803)"
       style="font-variant:normal;font-weight:normal;font-stretch:normal;font-size:11.2652px;font-family:Arial;-inkscape-font-specification:ArialMT;writing-mode:lr-tb;fill:#000000;fill-opacity:1;fill-rule:nonzero;stroke:none"
       id="text5450"><tspan
         x="0 7.3798327"
         y="0"
         sodipodi:role="line"
         id="tspan5448">Br</tspan></text><text
       transform="matrix(1,0,0,-0.96997834,183.24046,199.70081)"
       style="font-variant:normal;font-weight:normal;font-stretch:normal;font-size:11.2652px;font-family:Arial;-inkscape-font-specification:ArialMT;writing-mode:lr-tb;fill:#000000;fill-opacity:1;fill-rule:nonzero;stroke:none"
       id="text5454"><tspan
         x="0"
         y="0"
         id="tspan5452">S</tspan></text><text
       transform="matrix(1,0,0,-0.97566354,170.7,203.9003)"
       style="font-variant:normal;font-weight:normal;font-stretch:normal;font-size:17.8662px;font-family:FetteFraD;-inkscape-font-specification:FetteFraD;writing-mode:lr-tb;fill:#000000;fill-opacity:1;fill-rule:nonzero;stroke:none"
       id="text5458"><tspan
         x="0"
         y="0"
         id="tspan5456">U</tspan></text><text
       transform="matrix(1,0,0,-0.97566354,330.60075,167.96028)"
       style="font-variant:normal;font-weight:normal;font-stretch:normal;font-size:17.8662px;font-family:FetteFraD;-inkscape-font-specification:FetteFraD;writing-mode:lr-tb;fill:#000000;fill-opacity:1;fill-rule:nonzero;stroke:none"
       id="text5462"><tspan
         x="0"
         y="0"
         id="tspan5460">U</tspan></text><path
       d="m 215.40001,263.47998 h 0.77998 V 278.84 H 214.62 v -15.36002 h 0.78001"
       style="fill:#000000;fill-opacity:1;fill-rule:nonzero;stroke:none"
       id="path5464" /><path
       d="m 215.40001,263.47998 h 3.11998 v -1.01999 H 218.28 v -0.54001 h -0.24001 v -0.23999 l -0.3,-0.23999 -0.23999,-0.30002 -0.3,-0.23999 h -0.24001 L 216.72,260.66 h -0.54001 v -0.30001 H 214.86 l -0.24,0.30001 h -0.54 v 0.23999 h -0.54001 v 0.23999 H 213.3 V 261.44 h -0.24 v 0.23999 h -0.30001 V 262.22 h -0.24 v 1.01999 H 212.28 V 263.78 h 0.23999 v 1.02002 h 0.24 V 265.34 H 213.06 l 0.24,0.23999 v 0.24002 h 0.23999 L 213.84,266.12 h 0.24 v 0.23999 h 0.54 l 0.24,0.24002 h 1.31999 v -0.24002 H 216.72 L 216.95999,266.12 H 217.2 v -0.29999 h 0.3 l 0.23999,-0.24002 V 265.34 h 0.3 v -0.29999 H 218.28 V 264.56 l 0.23999,-0.30002 v -0.78 h -3.11998"
       style="fill:#000000;fill-opacity:1;fill-rule:nonzero;stroke:none"
       id="path5466" /><path
       d="m 215.40001,156.08 h 0.77998 v 15.29999 H 214.62 V 156.08 h 0.78001"
       style="fill:#000000;fill-opacity:1;fill-rule:nonzero;stroke:none"
       id="path5468" /><path
       d="m 215.40001,156.08 h 3.11998 V 155 H 218.28 v -0.54001 h -0.24001 V 154.22 l -0.3,-0.24 v -0.30001 H 217.5 L 217.2,153.44 h -0.24001 V 153.2 H 216.42 v -0.29999 h -1.8 L 214.31999,153.2 H 214.08 l -0.24,0.24 h -0.30001 v 0.23999 H 213.3 V 153.98 h -0.24 v 0.24 h -0.30001 v 0.53999 h -0.24 v 0.78 L 212.28,155.78 v 0.3 l 0.23999,0.23999 v 0.78002 l 0.24,0.23999 v 0.3 l 0.30001,0.23999 0.24,0.24001 0.23999,0.3 H 213.84 v 0.24 h 0.24 l 0.23999,0.24001 H 216.72 V 158.66 h 0.23999 L 217.2,158.42 h 0.3 v -0.3 h 0.23999 v -0.24001 h 0.3 V 157.64 l 0.24001,-0.3 v -0.23999 l 0.23999,-0.24001 v -0.78 h -3.11998"
       style="fill:#000000;fill-opacity:1;fill-rule:nonzero;stroke:none"
       id="path5470" /><path
       d="m 192.36,263.47998 v 0.78 h -30.90001 v -1.55997 H 192.36 v 0.77997"
       style="fill:#000000;fill-opacity:1;fill-rule:nonzero;stroke:none"
       id="path5472" /><path
       d="m 192.36,156.08 v 0.48 h -30.90001 v -1.32001 H 192.36 V 156.08"
       style="fill:#000000;fill-opacity:1;fill-rule:nonzero;stroke:none"
       id="path5474" /><path
       d="m 176.94,159.44 h 0.48 v 34.86 h -1.26 v -34.86 h 0.78"
       style="fill:#000000;fill-opacity:1;fill-rule:nonzero;stroke:none"
       id="path5476" /><path
       d="m 176.94,156.08 1.56,3.36 h -3.42 l 1.86,-3.36"
       style="fill:#000000;fill-opacity:1;fill-rule:nonzero;stroke:none"
       id="path5478" /><path
       d="m 176.94,259.88 h -0.78 v -34.86001 h 1.26 V 259.88 h -0.48"
       style="fill:#000000;fill-opacity:1;fill-rule:nonzero;stroke:none"
       id="path5480" /><path
       d="M 176.94,263.47998 175.08,259.88 h 3.42 l -1.56,3.59998"
       style="fill:#000000;fill-opacity:1;fill-rule:nonzero;stroke:none"
       id="path5482" /></g></svg>
