<?xml version="1.0" encoding="UTF-8" standalone="no"?>
<!-- Created with Inkscape (http://www.inkscape.org/) -->

<svg
   version="1.1"
   id="svg9"
   xml:space="preserve"
   width="77.047264mm"
   height="75.256828mm"
   viewBox="0 0 291.20226 284.43524"
   sodipodi:docname="schaltung1.svg"
   inkscape:version="1.1.1 (3bf5ae0d25, 2021-09-20)"
   xmlns:inkscape="http://www.inkscape.org/namespaces/inkscape"
   xmlns:sodipodi="http://sodipodi.sourceforge.net/DTD/sodipodi-0.dtd"
   xmlns="http://www.w3.org/2000/svg"
   xmlns:svg="http://www.w3.org/2000/svg"><defs
     id="defs13" /><sodipodi:namedview
     id="namedview11"
     pagecolor="#505050"
     bordercolor="#ffffff"
     borderopacity="1"
     inkscape:pageshadow="0"
     inkscape:pageopacity="0"
     inkscape:pagecheckerboard="1"
     showgrid="false"
     fit-margin-top="5"
     fit-margin-left="5"
     fit-margin-right="5"
     fit-margin-bottom="5"
     units="mm"
     inkscape:zoom="1.7517471"
     inkscape:cx="125.30348"
     inkscape:cy="167.26159"
     inkscape:window-width="1368"
     inkscape:window-height="842"
     inkscape:window-x="-6"
     inkscape:window-y="-6"
     inkscape:window-maximized="1"
     inkscape:current-layer="g15"
     inkscape:document-units="mm" /><g
     id="g15"
     inkscape:groupmode="layer"
     inkscape:label="V302"
     transform="matrix(1.3333333,0,0,-1.3333333,-223.10236,557.64429)"><path
       d="m 348.66,384.31998 -0.66,0.66 H 246 V 383.72 h 102 l -0.66,0.59998 h 1.32 v 0.66 H 348"
       style="fill:#000000;fill-opacity:1;fill-rule:nonzero;stroke:none"
       id="path165" /><path
       d="m 348,238.15999 0.66,0.6 v 145.55999 h -1.32 V 238.75999 L 348,239.42 v -1.26001 h 0.66 v 0.6"
       style="fill:#000000;fill-opacity:1;fill-rule:nonzero;stroke:none"
       id="path167" /><path
       d="m 245.34,238.75999 0.66,-0.6 H 348 V 239.42 H 246 l 0.60001,-0.66001 H 245.34 v -0.6 H 246"
       style="fill:#000000;fill-opacity:1;fill-rule:nonzero;stroke:none"
       id="path169" /><path
       d="m 246,384.97998 -0.66,-0.66 V 238.75999 h 1.26001 V 384.31998 L 246,383.72 v 1.25998 h -0.66 v -0.66"
       style="fill:#000000;fill-opacity:1;fill-rule:nonzero;stroke:none"
       id="path171" /><path
       d="m 297.12,384.31998 h -2.81998 v -0.84 h 0.23999 V 383.06 l 0.17999,-0.24002 v -0.18 h 0.23999 v -0.23999 h 0.17999 L 295.38,382.22 l 0.24,-0.24002 h 0.18002 v -0.17996 H 296.22 l 0.23999,-0.24002 h 1.08002 l 0.17999,0.24002 h 0.48001 l 0.17999,0.17996 h 0.24 V 382.22 h 0.18002 v 0.17999 h 0.23999 l 0.23999,0.23999 v 0.18 h 0.17999 v 0.48004 l 0.24002,0.17996 V 385.22 l -0.24002,0.17999 v 0.41999 H 299.28 V 386.06 l -0.23999,0.24002 h -0.23999 v 0.17996 H 298.62 V 386.72 h -0.41999 v 0.17999 H 297.72 l -0.17999,0.23999 h -1.08002 L 296.22,386.89999 h -0.17999 L 295.80002,386.72 H 295.62 l -0.24,-0.24002 -0.24002,-0.17996 h -0.17999 V 386.06 H 294.72 v -0.24002 l -0.17999,-0.18 V 385.22 h -0.23999 v -0.90002 H 297.12"
       style="fill:#000000;fill-opacity:1;fill-rule:nonzero;stroke:none"
       id="path173" /><path
       d="m 297.12,402.80002 -0.66001,0.59997 V 384.31998 H 297.72 v 19.08001 l -0.6,0.66001 0.6,-0.66001 V 404.06 h -0.6"
       style="fill:#000000;fill-opacity:1;fill-rule:nonzero;stroke:none"
       id="path175" /><path
       d="m 195.72,403.39999 -0.66,-0.59997 H 297.12 V 404.06 H 195.06 l -0.65999,-0.66001 0.65999,0.66001 h -0.65999 v -0.66001"
       style="fill:#000000;fill-opacity:1;fill-rule:nonzero;stroke:none"
       id="path177" /><path
       d="m 195.06,220.34 0.66,-0.66001 v 183.72 h -1.31999 v -183.72 L 195.06,219.08 l -0.65999,0.59999 V 219.08 H 195.06"
       style="fill:#000000;fill-opacity:1;fill-rule:nonzero;stroke:none"
       id="path179" /><path
       d="M 296.45999,219.67999 297.12,220.34 H 195.06 v -1.26 h 102.06 l 0.6,0.59999 -0.6,-0.59999 h 0.6 v 0.59999"
       style="fill:#000000;fill-opacity:1;fill-rule:nonzero;stroke:none"
       id="path181" /><path
       d="m 297.12,238.75999 h -0.66001 v -19.08 H 297.72 v 19.08 h -0.6"
       style="fill:#000000;fill-opacity:1;fill-rule:nonzero;stroke:none"
       id="path183" /><path
       d="m 297.12,238.75999 h -2.81998 v 0.9 h 0.23999 V 240.08 l 0.17999,0.17999 V 240.5 h 0.23999 v 0.23999 h 0.17999 l 0.24002,0.18001 0.24,0.23999 h 0.18002 V 241.34 H 296.22 l 0.23999,0.24 h 1.08002 l 0.17999,-0.24 h 0.48001 l 0.17999,-0.18001 h 0.24 V 240.92 h 0.18002 v -0.18001 h 0.23999 L 299.28,240.5 v -0.24001 h 0.17999 V 239.84 l 0.24002,-0.18001 V 237.92 l -0.24002,-0.18001 v -0.48 H 299.28 V 237.08 l -0.23999,-0.24 h -0.23999 v -0.18001 H 298.62 V 236.42 h -0.41999 v -0.18001 H 297.72 L 297.54001,236 h -1.08002 l -0.23999,0.23999 h -0.17999 L 295.80002,236.42 H 295.62 l -0.24,0.23999 -0.24002,0.18001 h -0.17999 v 0.24 H 294.72 v 0.17999 L 294.54001,237.5 v 0.42 h -0.23999 v 0.83999 H 297.12"
       style="fill:#000000;fill-opacity:1;fill-rule:nonzero;stroke:none"
       id="path185" /><path
       d="M 309.84,311.89999 V 314.66 h -0.66001 v -0.18002 h -0.66 v -0.23999 H 308.34 L 308.10001,314.06 h -0.24002 v -0.23999 h -0.18 v -0.24002 l -0.23999,-0.18 V 313.16 h -0.18002 v -0.42001 L 307.01999,312.56 v -1.32001 l 0.23999,-0.17999 v -0.23999 l 0.18002,-0.24002 v -0.18 l 0.23999,-0.23999 0.42002,-0.42001 H 308.34 V 309.56 h 0.17999 l 0.23999,-0.23999 h 0.66 v -0.24002 h 0.60001 l 0.23999,0.24002 h 0.66 V 309.56 H 311.34 v 0.17999 h 0.23999 v 0.23999 h 0.17999 V 310.16 H 312 v 0.23999 h 0.17999 v 0.42002 l 0.23999,0.23999 v 1.91998 l -0.23999,0.18002 v 0.23999 H 312 v 0.18 l -0.24002,0.24002 h -0.17999 V 314.06 H 311.34 v 0.17999 h -0.23999 l -0.18003,0.23999 H 310.5 L 310.25998,314.66 H 309.84 v -2.76001"
       style="fill:#000000;fill-opacity:1;fill-rule:nonzero;stroke:none"
       id="path187" /><path
       d="m 348,311.47998 v 0.60001 L 309.84,312.56 v -1.32001 L 348,311.06 v 0.41998"
       style="fill:#000000;fill-opacity:1;fill-rule:nonzero;stroke:none"
       id="path189" /><path
       d="m 348,311.47998 v 2.76001 h 0.89999 V 314.06 h 0.42002 L 349.5,313.82001 h 0.23999 v -0.24002 h 0.23999 v -0.18 L 350.16,313.16 h 0.23999 v -0.42001 l 0.18,-0.17999 v -0.48001 l 0.24002,-0.18 V 311.06 h -0.24002 v -0.66001 h -0.18 V 310.16 L 350.16,309.97998 v -0.23999 h -0.18002 V 309.56 h -0.23999 L 349.5,309.32001 h -0.17999 v -0.24002 h -0.42002 v -0.18 H 347.16 l -0.24002,0.18 h -0.17999 L 346.5,309.32001 h -0.24002 V 309.56 h -0.17999 v 0.17999 H 345.84 v 0.23999 h -0.18 v 0.42001 h -0.24002 v 0.42002 l -0.23999,0.23999 v 1.01999 h 0.23999 v 0.66 H 345.66 V 313.16 h 0.18 v 0.23999 h 0.23999 v 0.18 h 0.17999 v 0.24002 H 346.5 l 0.23999,0.23999 H 347.16 v 0.17999 H 348 v -2.76001"
       style="fill:#000000;fill-opacity:1;fill-rule:nonzero;stroke:none"
       id="path191" /><path
       d="m 246,311.89999 0.17999,2.76001 h -0.66 L 245.34,314.47998 h -0.42 l -0.24001,-0.23999 h -0.24 V 314.06 h -0.18 l -0.24,-0.23999 v -0.24002 H 243.84 v -0.18 L 243.60001,313.16 v -0.18002 H 243.36 V 311.06 l 0.24001,-0.23999 v -0.24002 l 0.23999,-0.18 0.17999,-0.23999 v -0.18002 h 0.24 v -0.23999 h 0.18 l 0.24,-0.17999 H 244.92 v -0.23999 h 0.59999 l 0.24,-0.24002 H 246.42 v 0.24002 h 0.66 l 0.17999,0.23999 H 247.5 l 0.17999,0.17999 0.24001,0.23999 h 0.23999 V 310.16 H 248.34 v 0.23999 l 0.24,0.18 V 311.06 h 0.17999 v 1.67999 H 248.58 V 313.16 l -0.24,0.23999 v 0.18 h -0.18001 v 0.24002 H 247.92 V 314.06 h -0.24001 v 0.17999 H 247.5 l -0.24001,0.23999 H 246.84 l -0.23999,0.18002 h -0.42002 L 246,311.89999"
       style="fill:#000000;fill-opacity:1;fill-rule:nonzero;stroke:none"
       id="path193" /><path
       d="m 284.39999,311.47998 v 0.60001 L 246,312.56 v -1.32001 L 284.39999,311.06 v 0.41998"
       style="fill:#000000;fill-opacity:1;fill-rule:nonzero;stroke:none"
       id="path195" /><path
       d="m 284.39999,311.47998 v 2.76001 H 285 L 285.23999,314.06 H 285.66 v -0.23999 h 0.23999 l 0.18,-0.24002 0.24002,-0.18 V 313.16 H 286.56 l 0.17999,-0.18002 V 312.56 h 0.23999 v -1.98001 l -0.23999,-0.18 V 310.16 H 286.56 v -0.18002 l -0.23999,-0.23999 V 309.56 h -0.24002 l -0.18,-0.23999 H 285.66 v -0.24002 h -0.42001 L 285,308.89999 h -1.5 l -0.17999,0.18 H 282.84 v 0.24002 h -0.18 l -0.24002,0.23999 v 0.17999 h -0.17999 v 0.23999 H 282 V 310.16 l -0.24002,0.23999 v 0.18 l -0.17999,0.24002 v 1.5 l 0.17999,0.23999 v 0.41998 H 282 V 313.16 l 0.23999,0.23999 0.17999,0.18 H 282.66 v 0.24002 h 0.18 l 0.23999,0.23999 h 0.24002 l 0.17999,0.17999 h 0.89999 v -2.76001"
       style="fill:#000000;fill-opacity:1;fill-rule:nonzero;stroke:none"
       id="path197" /><path
       d="m 289.97998,352.63998 v -0.66 l 0.24002,-0.65997 0.17999,-0.60001 0.23999,-0.66 0.18003,-0.66001 0.48001,-0.66 0.41998,-0.41998 0.41998,-0.60001 0.84,1.01999 -0.41998,0.48001 -0.18,0.41998 -0.48001,0.42002 -0.17999,0.41998 -0.24002,0.66 V 351.56 l -0.17996,0.66 v 0.41998"
       style="fill:#000000;fill-opacity:1;fill-rule:nonzero;stroke:none"
       id="path199" /><path
       d="m 297.12,359.72 -1.5,-0.24002 -1.31998,-0.41998 -1.08002,-0.66001 -1.08002,-0.83999 -0.83996,-0.84 -0.66004,-1.32001 -0.41998,-1.26001 -0.24002,-1.5 h 1.32004 l 0.17996,1.26001 0.24002,1.07999 0.66,0.84 0.59998,0.90002 0.90002,0.59998 0.84,0.66 1.08002,0.24002 1.31998,0.17999"
       style="fill:#000000;fill-opacity:1;fill-rule:nonzero;stroke:none"
       id="path201" /><path
       d="m 304.01999,352.63998 -0.23999,1.5 -0.17999,1.26001 -0.66001,1.32001 -0.90002,0.84 -1.07999,0.83999 -1.25998,0.66001 -1.32001,0.41998 -1.26,0.24002 v -1.32001 l 1.08001,-0.17999 1.07999,-0.24002 1.07999,-0.66 0.6,-0.59998 0.9,-0.90002 0.42001,-0.84 0.42001,-1.07999 v -1.26001"
       style="fill:#000000;fill-opacity:1;fill-rule:nonzero;stroke:none"
       id="path203" /><path
       d="m 303.35999,349.39999 1.74002,3.42002 h -3.24002 l 1.5,-3.42002"
       style="fill:#000000;fill-opacity:1;fill-rule:nonzero;stroke:none"
       id="path205" /><path
       d="m 289.97998,276.73999 v -0.66 l 0.24002,-0.66001 0.17999,-0.59997 0.23999,-0.66001 0.18003,-0.66 0.48001,-0.60001 0.41998,-0.48001 0.41998,-0.59997 0.84,0.83999 -0.41998,0.41999 -0.18,0.42001 -0.48001,0.66 L 291.72,274.57999 291.47998,275 v 0.66 l -0.17996,0.66001 v 0.41998"
       style="fill:#000000;fill-opacity:1;fill-rule:nonzero;stroke:none"
       id="path207" /><path
       d="m 297.12,283.82001 -1.5,-0.24002 -1.31998,-0.41999 -1.08002,-0.66 -1.08002,-0.84 -0.83996,-1.08001 -0.66004,-1.07999 -0.41998,-1.26001 -0.24002,-1.5 h 1.32004 l 0.17996,1.08002 0.24002,1.07998 0.66,1.01999 0.59998,0.90003 0.90002,0.59997 0.84,0.66001 1.08002,0.24002 L 297.12,282.5"
       style="fill:#000000;fill-opacity:1;fill-rule:nonzero;stroke:none"
       id="path209" /><path
       d="m 304.01999,276.73999 -0.23999,1.5 -0.17999,1.26001 -0.66001,1.07999 -0.90002,1.08001 -1.07999,0.84 -1.25998,0.66 -1.32001,0.41999 -1.26,0.24002 V 282.5 l 1.08001,-0.17999 1.07999,-0.24002 1.07999,-0.66001 1.5,-1.5 0.42001,-1.01999 0.42001,-1.07998 v -1.08002"
       style="fill:#000000;fill-opacity:1;fill-rule:nonzero;stroke:none"
       id="path211" /><path
       d="m 303.35999,273.5 1.74002,3.23999 h -3.24002 l 1.5,-3.23999"
       style="fill:#000000;fill-opacity:1;fill-rule:nonzero;stroke:none"
       id="path213" /><path
       d="m 246,373.39999 h 0.60001 v 4.5 H 245.34 v -4.5 H 246"
       style="fill:#000000;fill-opacity:1;fill-rule:nonzero;stroke:none"
       id="path215" /><path
       d="m 245.51999,372.13998 h 1.08002 l 3.23999,4.92002 -1.08001,0.66 -3.24,-4.91998 h 1.08002"
       style="fill:#000000;fill-opacity:1;fill-rule:nonzero;stroke:none"
       id="path217" /><path
       d="m 245.51999,372.13998 0.48001,0.18 0.60001,-0.18"
       style="fill:#000000;fill-opacity:1;fill-rule:nonzero;stroke:none"
       id="path219" /><path
       d="M 242.75999,377.47998 242.28,377.06 l 3.23999,-4.92002 1.08002,0.66004 -3.24001,4.91998 -0.60001,-0.24002"
       style="fill:#000000;fill-opacity:1;fill-rule:nonzero;stroke:none"
       id="path221" /><path
       d="m 246,246.92 h 0.60001 v 4.5 H 245.34 v -4.5 H 246"
       style="fill:#000000;fill-opacity:1;fill-rule:nonzero;stroke:none"
       id="path223" /><path
       d="m 245.51999,245.42 h 1.08002 l 3.23999,5.16 -1.08001,0.65999 -3.24,-4.92 h 1.08002"
       style="fill:#000000;fill-opacity:1;fill-rule:nonzero;stroke:none"
       id="path225" /><path
       d="m 245.51999,245.42 0.48001,0.42 0.60001,-0.42"
       style="fill:#000000;fill-opacity:1;fill-rule:nonzero;stroke:none"
       id="path227" /><path
       d="M 242.75999,250.81999 242.28,250.58 l 3.23999,-5.16 1.08002,0.89999 -3.24001,4.92 -0.60001,-0.42"
       style="fill:#000000;fill-opacity:1;fill-rule:nonzero;stroke:none"
       id="path229" /><path
       d="m 348,373.39999 h 0.66 v 4.5 h -1.32 v -4.5 H 348"
       style="fill:#000000;fill-opacity:1;fill-rule:nonzero;stroke:none"
       id="path231" /><path
       d="m 347.34,372.13998 h 1.07998 l 3.48001,4.92002 -1.07998,0.66 -3.48001,-4.91998 h 1.07998"
       style="fill:#000000;fill-opacity:1;fill-rule:nonzero;stroke:none"
       id="path233" /><path
       d="m 347.34,372.13998 0.66,0.18 0.41998,-0.18"
       style="fill:#000000;fill-opacity:1;fill-rule:nonzero;stroke:none"
       id="path235" /><path
       d="M 344.75998,377.47998 344.16,377.06 l 3.18,-4.92002 1.07998,0.66004 -3.23999,4.91998 -0.42001,-0.24002"
       style="fill:#000000;fill-opacity:1;fill-rule:nonzero;stroke:none"
       id="path237" /><path
       d="m 348,246.92 h 0.66 v 4.5 h -1.32 v -4.5 H 348"
       style="fill:#000000;fill-opacity:1;fill-rule:nonzero;stroke:none"
       id="path239" /><path
       d="m 347.34,245.42 h 1.07998 l 3.48001,5.16 -1.07998,0.65999 -3.48001,-4.92 h 1.07998"
       style="fill:#000000;fill-opacity:1;fill-rule:nonzero;stroke:none"
       id="path241" /><path
       d="m 347.34,245.42 0.66,0.42 0.41998,-0.42"
       style="fill:#000000;fill-opacity:1;fill-rule:nonzero;stroke:none"
       id="path243" /><path
       d="M 344.75998,250.81999 344.16,250.58 l 3.18,-5.16 1.07998,0.89999 -3.23999,4.92 -0.42001,-0.42"
       style="fill:#000000;fill-opacity:1;fill-rule:nonzero;stroke:none"
       id="path245" /><path
       d="m 240.12,333.32001 h 12.78 v 25.32001 h -12.78 z"
       style="fill:#ffffff;fill-opacity:1;fill-rule:nonzero;stroke:none"
       id="path247" /><path
       d="m 253.5,358.63998 -0.59999,0.60001 H 240.12 v -1.26001 h 12.78001 l -0.66002,0.66 H 253.5 v 0.60001 h -0.59999"
       style="fill:#000000;fill-opacity:1;fill-rule:nonzero;stroke:none"
       id="path249" /><path
       d="m 252.90001,332.66 0.59999,0.66001 v 25.31997 h -1.26001 v -25.31997 l 0.66002,0.65997 V 332.66 H 253.5 v 0.66001"
       style="fill:#000000;fill-opacity:1;fill-rule:nonzero;stroke:none"
       id="path251" /><path
       d="M 239.51999,333.32001 240.12,332.66 h 12.78001 v 1.31998 H 240.12 l 0.66,-0.65997 h -1.26001 V 332.66 H 240.12"
       style="fill:#000000;fill-opacity:1;fill-rule:nonzero;stroke:none"
       id="path253" /><path
       d="m 240.12,359.23999 -0.60001,-0.60001 V 333.32001 H 240.78 v 25.31997 l -0.66,-0.66 v 1.26001 h -0.60001 v -0.60001"
       style="fill:#000000;fill-opacity:1;fill-rule:nonzero;stroke:none"
       id="path255" /><path
       d="m 239.7,264.07999 h 12.72 V 289.4 H 239.7 Z"
       style="fill:#ffffff;fill-opacity:1;fill-rule:nonzero;stroke:none"
       id="path257" /><path
       d="M 253.08,289.39999 252.42,290 H 239.7 v -1.26001 h 12.72 l -0.60001,0.66 H 253.08 V 290 h -0.66"
       style="fill:#000000;fill-opacity:1;fill-rule:nonzero;stroke:none"
       id="path259" /><path
       d="m 252.42,263.41998 0.66,0.66001 v 25.32 h -1.26001 v -25.32 l 0.60001,0.66 v -1.32001 h 0.66 v 0.66001"
       style="fill:#000000;fill-opacity:1;fill-rule:nonzero;stroke:none"
       id="path261" /><path
       d="M 239.10001,264.07999 239.7,263.41998 h 12.72 v 1.32001 H 239.7 l 0.66,-0.66 h -1.25999 v -0.66001 H 239.7"
       style="fill:#000000;fill-opacity:1;fill-rule:nonzero;stroke:none"
       id="path263" /><path
       d="m 239.7,290 -0.59999,-0.60001 v -25.32 H 240.36 v 25.32 l -0.66,-0.66 V 290 h -0.59999 v -0.60001"
       style="fill:#000000;fill-opacity:1;fill-rule:nonzero;stroke:none"
       id="path265" /><path
       d="m 341.51999,339.97998 h 12.78 v 25.25999 h -12.78 z"
       style="fill:#ffffff;fill-opacity:1;fill-rule:nonzero;stroke:none"
       id="path267" /><path
       d="m 354.89999,365.23999 -0.59997,0.66 h -12.78003 v -1.26001 h 12.78003 l -0.48001,0.60001 h 1.07998 v 0.66 h -0.59997"
       style="fill:#000000;fill-opacity:1;fill-rule:nonzero;stroke:none"
       id="path269" /><path
       d="m 354.30002,339.32001 0.59997,0.65997 v 25.26001 h -1.07998 v -25.26001 l 0.48001,0.66 v -1.31997 h 0.59997 v 0.65997"
       style="fill:#000000;fill-opacity:1;fill-rule:nonzero;stroke:none"
       id="path271" /><path
       d="m 340.91998,339.97998 0.60001,-0.65997 h 12.78003 v 1.31997 h -12.78003 l 0.66,-0.66 h -1.26001 v -0.65997 h 0.60001"
       style="fill:#000000;fill-opacity:1;fill-rule:nonzero;stroke:none"
       id="path273" /><path
       d="m 341.51999,365.89999 -0.60001,-0.66 v -25.26001 h 1.26001 v 25.26001 l -0.66,-0.60001 v 1.26001 h -0.60001 v -0.66"
       style="fill:#000000;fill-opacity:1;fill-rule:nonzero;stroke:none"
       id="path275" /><path
       d="m 341.51999,264.07999 h 12.78 V 289.4 h -12.78 z"
       style="fill:#ffffff;fill-opacity:1;fill-rule:nonzero;stroke:none"
       id="path277" /><path
       d="M 354.89999,289.39999 354.30002,290 h -12.78003 v -1.26001 h 12.78003 l -0.48001,0.66 h 1.07998 V 290 h -0.59997"
       style="fill:#000000;fill-opacity:1;fill-rule:nonzero;stroke:none"
       id="path279" /><path
       d="m 354.30002,263.41998 0.59997,0.66001 v 25.32 h -1.07998 v -25.32 l 0.48001,0.66 v -1.32001 h 0.59997 v 0.66001"
       style="fill:#000000;fill-opacity:1;fill-rule:nonzero;stroke:none"
       id="path281" /><path
       d="m 340.91998,264.07999 0.60001,-0.66001 h 12.78003 v 1.32001 h -12.78003 l 0.66,-0.66 h -1.26001 v -0.66001 h 0.60001"
       style="fill:#000000;fill-opacity:1;fill-rule:nonzero;stroke:none"
       id="path283" /><path
       d="m 341.51999,290 -0.60001,-0.60001 v -25.32 h 1.26001 v 25.32 l -0.66,-0.66 V 290 h -0.60001 v -0.60001"
       style="fill:#000000;fill-opacity:1;fill-rule:nonzero;stroke:none"
       id="path285" /><path
       d="M 194.81999,324.56 H 196.14 l 1.08,-0.23999 1.31999,-0.24002 1.08001,-0.41999 1.25999,-0.6 1.08,-0.66001 0.84001,-0.66 0.9,-0.84 0.83999,-0.83999 0.66001,-1.08002 0.66,-0.89999 0.65999,-1.25998 0.42001,-1.08002 0.18,-1.26001 0.24,-1.31998 0.24001,-1.26001 -0.24001,-1.32 -0.24,-1.01999 -0.18,-1.32001 -0.42001,-1.26001 -0.65999,-1.07999 -0.66,-1.07998 -0.66001,-0.84003 -0.83999,-0.89999 -0.9,-0.84 -0.84001,-0.84 -1.08,-0.42001 -1.25999,-0.65997 -1.08001,-0.42002 -1.31999,-0.23999 -1.08,-0.18002 -1.32001,-0.23999 -1.5,0.23999 -1.08,0.18002 -1.25999,0.23999 -1.07999,0.42002 -1.32001,0.65997 -0.84001,0.42001 -1.08,0.84 -0.9,0.84 -0.83999,0.89999 -0.66001,0.84003 -0.65998,1.07998 -0.60001,1.07999 -0.48001,1.26001 -0.17999,1.32001 -0.23999,1.01999 -0.18001,1.32 0.18001,1.26001 0.23999,1.31998 0.17999,1.26001 0.48001,1.08002 0.60001,1.25998 0.65998,0.89999 0.66001,1.08002 0.83999,0.83999 0.9,0.84 1.08,0.66 0.84001,0.66001 1.32001,0.6 1.07999,0.41999 1.25999,0.24002 1.08,0.23999 h 1.5"
       style="fill:#ffffff;fill-opacity:1;fill-rule:evenodd;stroke:none"
       id="path287" /><path
       d="m 208.2,311.89999 -0.18001,1.5 -0.23999,1.26001 -0.17999,1.31998 -0.48001,1.08002 -0.60001,1.26001 -0.65999,1.07998 -0.90001,1.07999 -1.67999,1.68002 -1.08,0.9 -1.08,0.6 -1.08001,0.66001 -1.31999,0.41998 -1.26001,0.23999 L 196.14,325.16 h -1.32001 v -1.08001 l 1.08002,-0.18 1.31999,-0.23999 1.08,-0.18002 1.07999,-0.41998 1.08,-0.48001 1.08,-0.60001 0.84,-0.65997 0.90001,-0.84003 0.84,-0.89999 0.66,-0.84 0.66,-1.07999 0.42,-1.08001 0.42,-1.01999 0.42,-1.08002 V 313.16 l 0.24,-1.26001"
       style="fill:#000000;fill-opacity:1;fill-rule:nonzero;stroke:none"
       id="path289" /><path
       d="m 194.81999,298.57999 1.32001,0.24002 1.31999,0.17999 1.26001,0.23999 1.31999,0.42001 1.08001,0.66001 1.08,0.65997 1.08,0.84003 1.67999,1.67999 0.90001,1.07999 0.65999,1.08001 0.60001,1.07999 0.48001,1.32001 0.17999,1.26001 0.23999,1.25998 0.18001,1.32 h -1.26 l -0.24,-1.07998 V 309.56 l -0.42,-1.08002 -0.42,-1.07999 -0.42,-1.07998 -0.66,-1.08002 -0.66,-0.84 -0.84,-0.89999 -0.90001,-0.84 -0.84,-0.66 -1.08,-0.60001 -1.08,-0.42001 L 198.3,300.5 l -1.08,-0.42001 h -1.31999 l -1.08002,-0.18"
       style="fill:#000000;fill-opacity:1;fill-rule:nonzero;stroke:none"
       id="path291" /><path
       d="m 181.5,311.89999 v -1.32 l 0.17999,-1.25998 L 181.92,308.06 182.34,306.73999 183,305.66 183.60001,304.57999 184.5,303.5 l 0.84,-0.84 0.89999,-0.83999 1.08,-0.84003 1.08002,-0.65997 L 189.48,299.66 190.73999,299.23999 192.06,299 l 1.25999,-0.17999 1.5,-0.24002 v 1.32 l -1.25999,0.18 h -1.32001 l -1.08,0.42001 -1.07999,0.47998 -1.08,0.42001 -1.08,0.60001 -0.84,0.66 -1.74,1.73999 -0.66001,0.84 -0.59999,1.08002 -0.47999,1.07998 -0.42002,1.07999 L 183,309.56 l -0.24001,1.26001 -0.24,1.07998"
       style="fill:#000000;fill-opacity:1;fill-rule:nonzero;stroke:none"
       id="path293" /><path
       d="m 194.81999,325.16 h -1.5 l -1.25999,-0.18002 -1.32001,-0.23999 -1.25999,-0.41998 -1.07999,-0.66001 -1.08002,-0.6 -1.08,-0.9 -0.89999,-0.83999 -0.84,-0.84003 -0.89999,-1.07999 L 183,318.32001 182.34,317.06 181.92,315.97998 181.67999,314.66 181.5,313.39999 v -1.5 h 1.01999 l 0.24,1.26001 0.24001,1.31998 0.17999,1.08002 0.42002,1.01999 0.47999,1.08001 0.59999,1.07999 0.66001,0.84 1.74,1.74002 0.84,0.65997 1.08,0.60001 1.08,0.48001 1.07999,0.41998 1.08,0.18002 1.32001,0.23999 1.25999,0.18"
       style="fill:#000000;fill-opacity:1;fill-rule:nonzero;stroke:none"
       id="path295" /><text
       transform="matrix(1,0,0,-0.96957678,361.62,241.52029)"
       style="font-variant:normal;font-weight:normal;font-stretch:normal;font-size:9.286px;font-family:Arial;-inkscape-font-specification:ArialMT;writing-mode:lr-tb;fill:#000000;fill-opacity:1;fill-rule:nonzero;stroke:none"
       id="text299"><tspan
         x="0"
         y="0"
         id="tspan297">4</tspan></text><text
       transform="matrix(1,0,0,-0.96957678,366.83969,270.49988)"
       style="font-variant:normal;font-weight:normal;font-stretch:normal;font-size:9.286px;font-family:Arial;-inkscape-font-specification:ArialMT;writing-mode:lr-tb;fill:#000000;fill-opacity:1;fill-rule:nonzero;stroke:none"
       id="text303"><tspan
         x="0"
         y="0"
         id="tspan301">4</tspan></text><text
       transform="matrix(1,0,0,-0.96957678,361.62,367.81952)"
       style="font-variant:normal;font-weight:normal;font-stretch:normal;font-size:9.286px;font-family:Arial;-inkscape-font-specification:ArialMT;writing-mode:lr-tb;fill:#000000;fill-opacity:1;fill-rule:nonzero;stroke:none"
       id="text307"><tspan
         x="0"
         y="0"
         id="tspan305">3</tspan></text><text
       transform="matrix(1,0,0,-0.96957678,365.93979,344.41945)"
       style="font-variant:normal;font-weight:normal;font-stretch:normal;font-size:9.286px;font-family:Arial;-inkscape-font-specification:ArialMT;writing-mode:lr-tb;fill:#000000;fill-opacity:1;fill-rule:nonzero;stroke:none"
       id="text311"><tspan
         x="0"
         y="0"
         id="tspan309">3</tspan></text><text
       transform="matrix(1,0,0,-0.96957678,234.11949,242.00017)"
       style="font-variant:normal;font-weight:normal;font-stretch:normal;font-size:9.286px;font-family:Arial;-inkscape-font-specification:ArialMT;writing-mode:lr-tb;fill:#000000;fill-opacity:1;fill-rule:nonzero;stroke:none"
       id="text315"><tspan
         x="0"
         y="0"
         id="tspan313">2</tspan></text><text
       transform="matrix(1,0,0,-0.96957678,232.85942,269.42033)"
       style="font-variant:normal;font-weight:normal;font-stretch:normal;font-size:9.286px;font-family:Arial;-inkscape-font-specification:ArialMT;writing-mode:lr-tb;fill:#000000;fill-opacity:1;fill-rule:nonzero;stroke:none"
       id="text319"><tspan
         x="0"
         y="0"
         id="tspan317">2</tspan></text><text
       transform="matrix(1,0,0,-0.96957678,233.5197,340.58031)"
       style="font-variant:normal;font-weight:normal;font-stretch:normal;font-size:9.286px;font-family:Arial;-inkscape-font-specification:ArialMT;writing-mode:lr-tb;fill:#000000;fill-opacity:1;fill-rule:nonzero;stroke:none"
       id="text323"><tspan
         x="0"
         y="0"
         id="tspan321">1</tspan></text><text
       transform="matrix(1,0,0,-0.96957678,235.85977,367.57993)"
       style="font-variant:normal;font-weight:normal;font-stretch:normal;font-size:9.286px;font-family:Arial;-inkscape-font-specification:ArialMT;writing-mode:lr-tb;fill:#000000;fill-opacity:1;fill-rule:nonzero;stroke:none"
       id="text327"><tspan
         x="0"
         y="0"
         id="tspan325">1</tspan></text><text
       transform="matrix(1,0,0,-0.96957678,233.03964,308.24062)"
       style="font-variant:normal;font-weight:normal;font-stretch:normal;font-size:9.286px;font-family:Arial;-inkscape-font-specification:ArialMT;writing-mode:lr-tb;fill:#000000;fill-opacity:1;fill-rule:nonzero;stroke:none"
       id="text331"><tspan
         x="0"
         y="0"
         id="tspan329">C</tspan></text><text
       transform="matrix(1,0,0,-0.96957678,195.71925,304.76071)"
       style="font-variant:normal;font-weight:normal;font-stretch:normal;font-size:9.286px;font-family:Arial;-inkscape-font-specification:ArialMT;writing-mode:lr-tb;fill:#000000;fill-opacity:1;fill-rule:nonzero;stroke:none"
       id="text335"><tspan
         x="0"
         y="0"
         id="tspan333">S</tspan></text><text
       transform="matrix(1,0,0,-0.96957678,354.71968,308.24062)"
       style="font-variant:normal;font-weight:normal;font-stretch:normal;font-size:9.286px;font-family:Arial;-inkscape-font-specification:ArialMT;writing-mode:lr-tb;fill:#000000;fill-opacity:1;fill-rule:nonzero;stroke:none"
       id="text339"><tspan
         x="0"
         y="0"
         id="tspan337">D</tspan></text><text
       transform="matrix(1,0,0,-0.96957678,306.8392,317.24054)"
       style="font-variant:normal;font-weight:normal;font-stretch:normal;font-size:9.286px;font-family:Arial;-inkscape-font-specification:ArialMT;writing-mode:lr-tb;fill:#000000;fill-opacity:1;fill-rule:nonzero;stroke:none"
       id="text343"><tspan
         x="0"
         y="0"
         id="tspan341">B</tspan></text><text
       transform="matrix(1,0,0,-0.96957678,280.97951,316.82097)"
       style="font-variant:normal;font-weight:normal;font-stretch:normal;font-size:9.286px;font-family:Arial;-inkscape-font-specification:ArialMT;writing-mode:lr-tb;fill:#000000;fill-opacity:1;fill-rule:nonzero;stroke:none"
       id="text347"><tspan
         x="0"
         y="0"
         id="tspan345">A</tspan></text><text
       transform="matrix(1,0,0,-0.99064686,358.85999,273.5004)"
       style="font-variant:normal;font-weight:bold;font-stretch:normal;font-size:10.8199px;font-family:Arial;-inkscape-font-specification:Arial-BoldMT;writing-mode:lr-tb;fill:#000000;fill-opacity:1;fill-rule:nonzero;stroke:none"
       id="text351"><tspan
         x="0"
         y="0"
         id="tspan349">R</tspan></text><text
       transform="matrix(1,0,0,-0.99064686,224.88034,272.84013)"
       style="font-variant:normal;font-weight:bold;font-stretch:normal;font-size:10.8199px;font-family:Arial;-inkscape-font-specification:Arial-BoldMT;writing-mode:lr-tb;fill:#000000;fill-opacity:1;fill-rule:nonzero;stroke:none"
       id="text355"><tspan
         x="0"
         y="0"
         id="tspan353">R</tspan></text><text
       transform="matrix(1,0,0,-0.99064686,357.53986,348.08008)"
       style="font-variant:normal;font-weight:bold;font-stretch:normal;font-size:10.8199px;font-family:Arial;-inkscape-font-specification:Arial-BoldMT;writing-mode:lr-tb;fill:#000000;fill-opacity:1;fill-rule:nonzero;stroke:none"
       id="text359"><tspan
         x="0"
         y="0"
         id="tspan357">R</tspan></text><text
       transform="matrix(1,0,0,-0.99064686,225.30019,343.1602)"
       style="font-variant:normal;font-weight:bold;font-stretch:normal;font-size:10.8199px;font-family:Arial;-inkscape-font-specification:Arial-BoldMT;writing-mode:lr-tb;fill:#000000;fill-opacity:1;fill-rule:nonzero;stroke:none"
       id="text363"><tspan
         x="0"
         y="0"
         id="tspan361">R</tspan></text><text
       transform="matrix(0.9903813,0,0,-1,356.70001,244.34029)"
       style="font-variant:normal;font-weight:bold;font-stretch:normal;font-size:10.7187px;font-family:'Times New Roman';-inkscape-font-specification:TimesNewRomanPS-BoldMT;writing-mode:lr-tb;fill:#000000;fill-opacity:1;fill-rule:nonzero;stroke:none"
       id="text367"><tspan
         x="0"
         y="0"
         id="tspan365">I</tspan></text><text
       transform="matrix(0.9903813,0,0,-1,356.88046,371.24005)"
       style="font-variant:normal;font-weight:bold;font-stretch:normal;font-size:10.7187px;font-family:'Times New Roman';-inkscape-font-specification:TimesNewRomanPS-BoldMT;writing-mode:lr-tb;fill:#000000;fill-opacity:1;fill-rule:nonzero;stroke:none"
       id="text371"><tspan
         x="0"
         y="0"
         id="tspan369">I</tspan></text><text
       transform="matrix(0.9903813,0,0,-1,228.53999,244.34029)"
       style="font-variant:normal;font-weight:bold;font-stretch:normal;font-size:10.7187px;font-family:'Times New Roman';-inkscape-font-specification:TimesNewRomanPS-BoldMT;writing-mode:lr-tb;fill:#000000;fill-opacity:1;fill-rule:nonzero;stroke:none"
       id="text375"><tspan
         x="0"
         y="0"
         id="tspan373">I</tspan></text><text
       transform="matrix(0.9903813,0,0,-1,231.53989,370.57979)"
       style="font-variant:normal;font-weight:bold;font-stretch:normal;font-size:10.7187px;font-family:'Times New Roman';-inkscape-font-specification:TimesNewRomanPS-BoldMT;writing-mode:lr-tb;fill:#000000;fill-opacity:1;fill-rule:nonzero;stroke:none"
       id="text379"><tspan
         x="0"
         y="0"
         id="tspan377">I</tspan></text><text
       transform="matrix(1,0,0,-0.99064686,293.45999,308.00031)"
       style="font-variant:normal;font-weight:bold;font-stretch:normal;font-size:10.8199px;font-family:Arial;-inkscape-font-specification:Arial-BoldMT;writing-mode:lr-tb;fill:#000000;fill-opacity:1;fill-rule:nonzero;stroke:none"
       id="text383"><tspan
         x="0"
         y="0"
         id="tspan381">U</tspan></text><text
       transform="matrix(1,0,0,-0.99064686,188.39984,307.76021)"
       style="font-variant:normal;font-weight:bold;font-stretch:normal;font-size:10.8199px;font-family:Arial;-inkscape-font-specification:Arial-BoldMT;writing-mode:lr-tb;fill:#000000;fill-opacity:1;fill-rule:nonzero;stroke:none"
       id="text387"><tspan
         x="0"
         y="0"
         id="tspan385">U</tspan></text></g></svg>
