<?xml version="1.0" encoding="UTF-8" standalone="no"?>
<!-- Created with Inkscape (http://www.inkscape.org/) -->

<svg
   version="1.1"
   id="svg9"
   xml:space="preserve"
   width="79.109161mm"
   height="76.738487mm"
   viewBox="0 0 298.99526 290.03522"
   sodipodi:docname="schlatung2.svg"
   inkscape:version="1.1.1 (3bf5ae0d25, 2021-09-20)"
   xmlns:inkscape="http://www.inkscape.org/namespaces/inkscape"
   xmlns:sodipodi="http://sodipodi.sourceforge.net/DTD/sodipodi-0.dtd"
   xmlns="http://www.w3.org/2000/svg"
   xmlns:svg="http://www.w3.org/2000/svg"><defs
     id="defs13" /><sodipodi:namedview
     id="namedview11"
     pagecolor="#505050"
     bordercolor="#ffffff"
     borderopacity="1"
     inkscape:pageshadow="0"
     inkscape:pageopacity="0"
     inkscape:pagecheckerboard="1"
     showgrid="false"
     units="mm"
     fit-margin-top="5"
     fit-margin-bottom="5"
     fit-margin-right="5"
     fit-margin-left="5"
     inkscape:zoom="1.0546318"
     inkscape:cx="164.5124"
     inkscape:cy="171.62389"
     inkscape:window-width="1368"
     inkscape:window-height="842"
     inkscape:window-x="-6"
     inkscape:window-y="-6"
     inkscape:window-maximized="1"
     inkscape:current-layer="g15"
     inkscape:document-units="mm" /><g
     id="g15"
     inkscape:groupmode="layer"
     inkscape:label="V302"
     transform="matrix(1.3333333,0,0,-1.3333333,-275.74235,624.20426)"><path
       d="m 391.38,434.06 -0.42001,0.66 H 286.91998 v -1.32001 H 390.95999 L 390.30002,434.06 H 391.38 v 0.66 h -0.42001"
       style="fill:#000000;fill-opacity:1;fill-rule:nonzero;stroke:none"
       id="path309" /><path
       d="m 390.95999,284.30002 0.42001,0.65997 V 434.06 h -1.07998 V 284.95999 l 0.65997,0.66001 v -1.31998 H 391.38 v 0.65997"
       style="fill:#000000;fill-opacity:1;fill-rule:nonzero;stroke:none"
       id="path311" /><path
       d="m 286.25998,284.95999 0.66,-0.65997 H 390.95999 V 285.62 H 286.91998 l 0.66001,-0.66001 h -1.32001 v -0.65997 h 0.66"
       style="fill:#000000;fill-opacity:1;fill-rule:nonzero;stroke:none"
       id="path313" /><path
       d="m 286.91998,434.72 -0.66,-0.66 V 284.95999 h 1.32001 V 434.06 l -0.66001,-0.66001 V 434.72 h -0.66 v -0.66"
       style="fill:#000000;fill-opacity:1;fill-rule:nonzero;stroke:none"
       id="path315" /><path
       d="m 338.82001,434.06 h -2.64002 v -0.9 l 0.23999,-0.24002 V 432.5 h 0.18003 v -0.24002 l 0.23999,-0.17999 0.23999,-0.23999 h 0.17999 v -0.23999 H 337.5 l 0.23999,-0.18003 H 338.16 l 0.23999,-0.23999 h 1.07999 l 0.24002,0.23999 h 0.41998 v 0.18003 H 340.38 l 0.18,0.23999 h 0.24002 v 0.23999 h 0.23996 v 0.17999 H 341.22 V 432.5 l 0.23999,0.23999 V 433.16 h 0.24002 v 1.73999 h -0.24002 V 435.38 l -0.23999,0.18 v 0.24002 h -0.18002 l -0.23996,0.17996 L 340.56,436.22 h -0.18 v 0.23999 h -0.24002 l -0.23999,0.17999 h -0.42001 l -0.23999,0.24002 h -0.84 v -0.24002 h -0.66 v -0.17999 H 337.5 L 337.25998,436.22 h -0.17999 v -0.24002 H 336.84 v -0.17996 h -0.23999 V 435.56 h -0.18003 v -0.42002 l -0.23999,-0.23999 V 434.06 h 2.64002"
       style="fill:#000000;fill-opacity:1;fill-rule:nonzero;stroke:none"
       id="path317" /><path
       d="M 338.82001,452.89999 338.16,453.38 v -19.32 h 1.31998 v 19.32 l -0.65997,0.59998 0.65997,-0.59998 v 0.59998 h -0.65997"
       style="fill:#000000;fill-opacity:1;fill-rule:nonzero;stroke:none"
       id="path319" /><path
       d="M 235.73999,453.38 235.08,452.89999 h 103.74001 v 1.07999 H 235.08 l -0.66,-0.59998 0.66,0.59998 h -0.66 V 453.38"
       style="fill:#000000;fill-opacity:1;fill-rule:nonzero;stroke:none"
       id="path321" /><path
       d="m 235.08,266.12 0.65999,-0.66001 V 453.38 H 234.42 V 265.45999 l 0.66,-0.65997 -0.66,0.65997 v -0.65997 h 0.66"
       style="fill:#000000;fill-opacity:1;fill-rule:nonzero;stroke:none"
       id="path323" /><path
       d="m 338.16,265.45999 0.66001,0.66001 H 235.08 v -1.31998 h 103.74001 l 0.65997,0.65997 -0.65997,-0.65997 h 0.65997 v 0.65997"
       style="fill:#000000;fill-opacity:1;fill-rule:nonzero;stroke:none"
       id="path325" /><path
       d="M 338.82001,284.95999 H 338.16 v -19.5 h 1.31998 v 19.5 h -0.65997"
       style="fill:#000000;fill-opacity:1;fill-rule:nonzero;stroke:none"
       id="path327" /><path
       d="m 338.82001,284.95999 h -2.64002 v 0.9 l 0.23999,0.24002 V 286.28 l 0.18003,0.23999 v 0.23999 H 336.84 V 286.94 h 0.23999 v 0.23999 h 0.17999 l 0.24002,0.23999 h 0.23999 v 0.18003 h 0.84 l 0.24002,0.23999 H 339.06 l 0.17999,-0.23999 h 0.66 l 0.23999,-0.18003 H 340.38 v -0.23999 h 0.18 l 0.24002,-0.23999 0.23996,-0.18002 0.18002,-0.23999 V 286.28 h 0.23999 v -0.42001 h 0.24002 V 284.12 l -0.24002,-0.24 v -0.24002 L 341.22,283.45999 V 283.22 h -0.18002 v -0.24002 h -0.23996 v -0.17996 H 340.56 L 340.38,282.56 h -0.24002 v -0.23999 H 339.72 v -0.18003 h -1.56 v 0.18003 h -0.42001 L 337.5,282.56 h -0.24002 v 0.24002 h -0.17999 l -0.23999,0.17996 -0.23999,0.24002 v 0.23999 h -0.18003 V 283.88 h -0.23999 v 1.07999 h 2.64002"
       style="fill:#000000;fill-opacity:1;fill-rule:nonzero;stroke:none"
       id="path329" /><path
       d="m 351.78,359.84 0.23999,2.88 h -0.41998 l -0.24002,-0.24002 H 350.94 l -0.23999,-0.23999 H 350.28 V 362.06 h -0.24002 v -0.24002 h -0.23996 v -0.23999 H 349.62 v -0.18 L 349.38,361.16 v -0.24002 l -0.24002,-0.17999 V 358.94 L 349.38,358.75998 V 358.28 h 0.24 v -0.17999 l 0.18002,-0.24002 h 0.23996 V 357.62 H 350.28 v -0.18 h 0.42001 v -0.23999 H 351.12 l 0.23999,-0.24002 H 352.44 v 0.24002 h 0.66001 V 357.44 H 353.34 l 0.23999,0.18 h 0.17999 v 0.23999 H 354 v 0.24002 l 0.23999,0.17999 0.17999,0.23999 v 0.23999 L 354.66,358.94 v 1.79999 h -0.24002 V 361.16 h -0.17999 v 0.23999 l -0.23999,0.18 -0.24002,0.23999 V 362.06 h -0.17999 l -0.23999,0.17999 h -0.23999 l -0.18003,0.23999 h -0.66 V 362.72 h -0.23999 L 351.78,359.84"
       style="fill:#000000;fill-opacity:1;fill-rule:nonzero;stroke:none"
       id="path331" /><path
       d="m 382.56,359.41998 v 0.66001 L 351.78,360.5 v -1.32001 l 30.78,-0.42001 v 0.66"
       style="fill:#000000;fill-opacity:1;fill-rule:nonzero;stroke:none"
       id="path333" /><path
       d="m 383.88,358.94 v 1.13999 l -5.04,3.23999 -0.66001,-1.07999 L 383.22,358.94 v 1.13999"
       style="fill:#000000;fill-opacity:1;fill-rule:nonzero;stroke:none"
       id="path335" /><path
       d="m 383.88,358.94 -0.17999,0.47998 0.17999,0.66001"
       style="fill:#000000;fill-opacity:1;fill-rule:nonzero;stroke:none"
       id="path337" /><path
       d="m 378.41998,356.30002 0.42002,-0.66004 5.04,3.30002 -0.66,1.13999 -5.04001,-3.29999 0.23999,-0.47998"
       style="fill:#000000;fill-opacity:1;fill-rule:nonzero;stroke:none"
       id="path339" /><path
       d="m 286.91998,359.84 v 2.88 H 286.5 v -0.24002 h -0.66 v -0.23999 h -0.42002 V 362.06 h -0.23999 v -0.24002 H 284.94 l -0.18002,-0.23999 v -0.18 h -0.23999 V 361.16 L 284.28,360.91998 v -0.83999 h -0.17999 v -0.47998 l 0.17999,-0.18003 v -0.66 h 0.23999 V 358.28 h 0.23999 v -0.17999 l 0.18002,-0.24002 h 0.23999 V 357.62 l 0.23999,-0.18 H 285.84 v -0.23999 h 0.41998 v -0.24002 h 1.32001 v 0.24002 h 0.66 V 357.44 h 0.23999 l 0.24002,0.18 h 0.17999 v 0.23999 l 0.23999,0.24002 0.24002,0.17999 v 0.23999 h 0.18 v 0.66 h 0.24002 V 360.5 l -0.24002,0.23999 v 0.17999 l -0.18,0.24002 v 0.23999 h -0.24002 v 0.18 l -0.23999,0.23999 L 288.72,362.06 h -0.24002 v 0.17999 h -0.23999 l -0.17999,0.23999 h -0.66001 V 362.72 h -0.48001 v -2.88"
       style="fill:#000000;fill-opacity:1;fill-rule:nonzero;stroke:none"
       id="path341" /><path
       d="m 325.85999,359.41998 v 0.66001 L 286.91998,360.5 v -1.32001 l 38.94001,-0.42001 v 0.66"
       style="fill:#000000;fill-opacity:1;fill-rule:nonzero;stroke:none"
       id="path343" /><path
       d="m 325.85999,359.41998 v 2.82001 h 0.89999 V 362.06 h 0.42001 v -0.24002 h 0.23999 l 0.18003,-0.23999 H 327.84 v -0.18 h 0.23999 V 361.16 h 0.17999 v -0.24002 L 328.5,360.73999 v -0.48001 l 0.23999,-0.17999 v -1.32001 L 328.5,358.51999 V 358.28 l -0.24002,-0.17999 v -0.24002 h -0.17999 V 357.62 l -0.23999,-0.18 -0.23999,-0.23999 h -0.18003 v -0.24002 H 326.94 V 356.78 h -1.98001 l -0.17999,0.17999 h -0.24002 v 0.24002 h -0.23996 L 324.12,357.44 h -0.24 v 0.18 h -0.24002 v 0.23999 l -0.17999,0.24002 V 358.28 L 323.22,358.51999 V 360.5 h 0.23999 v 0.41998 l 0.17999,0.24002 0.24002,0.23999 0.24,0.18 0.18002,0.23999 h 0.23996 V 362.06 h 0.42001 l 0.24002,0.17999 h 0.65998 v -2.82001"
       style="fill:#000000;fill-opacity:1;fill-rule:nonzero;stroke:none"
       id="path345" /><path
       d="m 280.97998,381.80002 h 13.02 v 25.92 h -13.02 z"
       style="fill:#ffffff;fill-opacity:1;fill-rule:nonzero;stroke:none"
       id="path347" /><path
       d="M 294.66,407.72 294,408.31998 H 280.97998 V 407.06 H 294 l -0.66,0.66 h 1.32 v 0.59998 H 294"
       style="fill:#000000;fill-opacity:1;fill-rule:nonzero;stroke:none"
       id="path349" /><path
       d="m 294,381.13998 0.66,0.66004 V 407.72 h -1.32 v -25.91998 l 0.66,0.65997 v -1.32001 h 0.66 v 0.66004"
       style="fill:#000000;fill-opacity:1;fill-rule:nonzero;stroke:none"
       id="path351" /><path
       d="m 280.32001,381.80002 0.65997,-0.66004 H 294 v 1.32001 h -13.02002 l 0.66,-0.65997 h -1.31997 v -0.66004 h 0.65997"
       style="fill:#000000;fill-opacity:1;fill-rule:nonzero;stroke:none"
       id="path353" /><path
       d="M 280.97998,408.31998 280.32001,407.72 v -25.91998 h 1.31997 V 407.72 l -0.66,-0.66 v 1.25998 h -0.65997 V 407.72"
       style="fill:#000000;fill-opacity:1;fill-rule:nonzero;stroke:none"
       id="path355" /><path
       d="m 280.56,310.88 h 12.96001 V 336.8 H 280.56 Z"
       style="fill:#ffffff;fill-opacity:1;fill-rule:nonzero;stroke:none"
       id="path357" /><path
       d="m 294.17999,336.80002 -0.66,0.65997 H 280.56 v -1.32001 h 12.95999 l -0.66,0.66004 h 1.32 v 0.65997 h -0.66"
       style="fill:#000000;fill-opacity:1;fill-rule:nonzero;stroke:none"
       id="path359" /><path
       d="m 293.51999,310.22 0.66,0.66 v 25.92002 h -1.32 V 310.88 l 0.66,0.65998 V 310.22 h 0.66 v 0.66"
       style="fill:#000000;fill-opacity:1;fill-rule:nonzero;stroke:none"
       id="path361" /><path
       d="m 279.89999,310.88 0.66001,-0.66 h 12.95999 v 1.31998 H 280.56 l 0.66,-0.65998 h -1.32001 v -0.66 H 280.56"
       style="fill:#000000;fill-opacity:1;fill-rule:nonzero;stroke:none"
       id="path363" /><path
       d="m 280.56,337.45999 -0.66001,-0.65997 V 310.88 H 281.22 v 25.92002 l -0.66,-0.66004 v 1.32001 h -0.66001 v -0.65997"
       style="fill:#000000;fill-opacity:1;fill-rule:nonzero;stroke:none"
       id="path365" /><path
       d="M 234.60001,372.80002 H 235.92 l 1.31999,-0.24002 1.32001,-0.24002 1.14,-0.41999 1.08,-0.66 1.08,-0.66 1.14,-0.66001 1.73999,-1.73999 0.66002,-1.07998 0.65999,-1.14002 0.66,-1.07999 0.42,-1.07998 0.23999,-1.32004 L 247.62,361.16 v -2.64001 l -0.24001,-1.31998 -0.23999,-1.08001 -0.42,-1.31998 -0.66,-1.08002 -0.65999,-1.14001 -0.66002,-0.84 -0.89999,-0.89999 -0.84,-0.9 -1.14,-0.83999 -1.08,-0.66001 -1.08,-0.48001 -1.14,-0.42001 -1.32001,-0.41998 -1.31999,-0.24 h -2.64 l -1.32001,0.24 -1.08,0.41998 -1.31999,0.42001 -1.08,0.48001 -1.14,0.66001 -0.84,0.83999 -1.8,1.79999 -0.84,0.84 -0.66,1.14001 -0.42,1.08002 -0.48,1.31998 -0.18,1.08001 -0.48,2.63999 0.23999,1.32 0.24001,1.31998 0.18,1.32004 0.48,1.07998 0.42,1.07999 0.66,1.14002 0.84,1.07998 0.90001,0.9 0.89999,0.83999 0.84,0.66001 1.14,0.66 1.08,0.66 1.31999,0.41999 1.08,0.24002 1.32001,0.24002 h 1.32001"
       style="fill:#ffffff;fill-opacity:1;fill-rule:evenodd;stroke:none"
       id="path367" /><path
       d="m 248.28,359.84 v 1.55999 l -0.24001,1.32001 -0.23999,1.25998 -0.66,1.14002 -0.42,1.32 -0.66,1.07999 -0.90001,1.08002 -0.84,0.89999 -0.89999,0.89999 -1.08,0.84 -1.14,0.66 -1.32001,0.41999 -1.07999,0.48004 -1.32,0.41998 -1.32001,0.23999 h -1.55998 v -1.32001 H 235.92 l 1.31999,-0.23999 1.14,-0.17999 1.08,-0.48001 1.08,-0.42001 1.14,-0.65998 0.84,-0.66 0.90001,-0.89999 0.89999,-0.84003 0.66001,-0.89999 0.66,-1.07999 0.42,-1.14002 0.42,-1.07998 0.24,-1.08002 0.23999,-1.31998 v -1.32"
       style="fill:#000000;fill-opacity:1;fill-rule:nonzero;stroke:none"
       id="path369" /><path
       d="m 234.60001,346.22 1.55998,0.23999 1.32001,0.17999 1.32,0.24002 1.07999,0.42002 1.32001,0.65997 1.14,0.66001 1.08,0.66 0.89999,0.89999 0.84,1.07999 0.90001,1.14001 0.66,1.07999 0.42,1.08002 0.66,1.32 0.23999,1.32001 0.24001,1.31998 V 359.84 h -1.32001 v -1.08002 L 246.72,357.44 l -0.24,-1.13998 -0.42,-1.32004 -0.42,-0.84 -0.66,-1.07998 -0.66001,-0.9 -0.89999,-0.90002 -0.90001,-0.84 -0.84,-0.66 -1.14,-0.65997 -1.08,-0.48001 -1.08,-0.41999 -1.14,-0.42001 -1.31999,-0.24002 h -1.31999"
       style="fill:#000000;fill-opacity:1;fill-rule:nonzero;stroke:none"
       id="path371" /><path
       d="m 220.98,359.84 0.24,-1.32001 0.23999,-1.31998 0.18001,-1.32001 0.48,-1.32 0.66,-1.08002 0.59999,-1.07999 0.90001,-1.14001 0.89999,-1.07999 0.84,-0.89999 1.14,-0.66 1.08,-0.66001 1.08,-0.65997 1.32001,-0.42002 1.31999,-0.24002 1.32001,-0.17999 1.32001,-0.23999 v 1.31998 h -1.08002 L 232.2,347.78 l -1.08,0.42001 -1.14,0.41999 -1.07999,0.48001 -1.08002,0.65997 -0.89999,0.66 -0.90001,0.84 -0.84,0.90002 -0.66,0.9 -0.65999,1.07998 -0.48001,0.84 -0.42,1.32004 -0.42,1.13998 v 1.31998 L 222.3,359.84"
       style="fill:#000000;fill-opacity:1;fill-rule:nonzero;stroke:none"
       id="path373" /><path
       d="M 234.60001,373.45999 H 233.28 l -1.32001,-0.23999 -1.31999,-0.41998 -1.32001,-0.48004 -1.08,-0.41999 -1.08,-0.66 -1.14,-0.84 -0.84,-0.89999 -0.89999,-0.89999 -0.90001,-1.08002 L 222.78,366.44 222.12,365.12 221.64,363.97998 221.45999,362.72 221.22,361.39999 220.98,359.84 h 1.32 l 0.23999,1.32 v 1.31998 l 0.42,1.08002 0.42,1.07998 0.48001,1.14002 0.65999,1.07999 0.66,0.89999 1.74001,1.74002 0.89999,0.66 1.08002,0.65998 1.07999,0.42001 1.14,0.48001 1.08,0.17999 1.31999,0.23999 h 1.08002"
       style="fill:#000000;fill-opacity:1;fill-rule:nonzero;stroke:none"
       id="path375" /><text
       transform="matrix(1,0,0,-0.97428804,409.44,341.60028)"
       style="font-variant:normal;font-weight:normal;font-stretch:normal;font-size:9.46291px;font-family:Arial;-inkscape-font-specification:ArialMT;writing-mode:lr-tb;fill:#000000;fill-opacity:1;fill-rule:nonzero;stroke:none"
       id="text379"><tspan
         x="0"
         y="0"
         id="tspan377">4</tspan></text><text
       transform="matrix(1,0,0,-0.97428804,409.61977,365.53993)"
       style="font-variant:normal;font-weight:normal;font-stretch:normal;font-size:9.46291px;font-family:Arial;-inkscape-font-specification:ArialMT;writing-mode:lr-tb;fill:#000000;fill-opacity:1;fill-rule:nonzero;stroke:none"
       id="text383"><tspan
         x="0"
         y="0"
         id="tspan381">3</tspan></text><text
       transform="matrix(1,0,0,-0.97428804,273.35962,316.33949)"
       style="font-variant:normal;font-weight:normal;font-stretch:normal;font-size:9.46291px;font-family:Arial;-inkscape-font-specification:ArialMT;writing-mode:lr-tb;fill:#000000;fill-opacity:1;fill-rule:nonzero;stroke:none"
       id="text387"><tspan
         x="0"
         y="0"
         id="tspan385">2</tspan></text><text
       transform="matrix(1,0,0,-0.97428804,274.19998,389.23987)"
       style="font-variant:normal;font-weight:normal;font-stretch:normal;font-size:9.46291px;font-family:Arial;-inkscape-font-specification:ArialMT;writing-mode:lr-tb;fill:#000000;fill-opacity:1;fill-rule:nonzero;stroke:none"
       id="text391"><tspan
         x="0"
         y="0"
         id="tspan389">x</tspan></text><text
       transform="matrix(1,0,0,-0.97428804,314.88011,365.71973)"
       style="font-variant:normal;font-weight:normal;font-stretch:normal;font-size:9.46291px;font-family:Arial;-inkscape-font-specification:ArialMT;writing-mode:lr-tb;fill:#000000;fill-opacity:1;fill-rule:nonzero;stroke:none"
       id="text395"><tspan
         x="0"
         y="0"
         id="tspan393">N</tspan></text><text
       transform="matrix(1,0,0,-0.97428804,321.47864,365.71973)"
       style="font-variant:normal;font-weight:normal;font-stretch:normal;font-size:9.46291px;font-family:Arial;-inkscape-font-specification:ArialMT;writing-mode:lr-tb;fill:#000000;fill-opacity:1;fill-rule:nonzero;stroke:none"
       id="text399"><tspan
         x="0"
         y="0"
         id="tspan397">u</tspan></text><text
       transform="matrix(1,0,0,-0.97428804,326.5177,365.71973)"
       style="font-variant:normal;font-weight:normal;font-stretch:normal;font-size:9.46291px;font-family:Arial;-inkscape-font-specification:ArialMT;writing-mode:lr-tb;fill:#000000;fill-opacity:1;fill-rule:nonzero;stroke:none"
       id="text403"><tspan
         x="0"
         y="0"
         id="tspan401">l</tspan></text><text
       transform="matrix(1,0,0,-0.97428804,328.73586,365.71973)"
       style="font-variant:normal;font-weight:normal;font-stretch:normal;font-size:9.46291px;font-family:Arial;-inkscape-font-specification:ArialMT;writing-mode:lr-tb;fill:#000000;fill-opacity:1;fill-rule:nonzero;stroke:none"
       id="text407"><tspan
         x="0 1.9532392 3.9064784"
         y="0"
         sodipodi:role="line"
         id="tspan405">lin</tspan></text><text
       transform="matrix(1,0,0,-0.97428804,337.68129,365.71973)"
       style="font-variant:normal;font-weight:normal;font-stretch:normal;font-size:9.46291px;font-family:Arial;-inkscape-font-specification:ArialMT;writing-mode:lr-tb;fill:#000000;fill-opacity:1;fill-rule:nonzero;stroke:none"
       id="text411"><tspan
         x="0 5.1138511"
         y="0"
         sodipodi:role="line"
         id="tspan409">di</tspan></text><text
       transform="matrix(1,0,0,-0.97428804,344.95364,365.71973)"
       style="font-variant:normal;font-weight:normal;font-stretch:normal;font-size:9.46291px;font-family:Arial;-inkscape-font-specification:ArialMT;writing-mode:lr-tb;fill:#000000;fill-opacity:1;fill-rule:nonzero;stroke:none"
       id="text415"><tspan
         x="0"
         y="0"
         id="tspan413">k</tspan></text><text
       transform="matrix(1,0,0,-0.97428804,349.33408,365.71973)"
       style="font-variant:normal;font-weight:normal;font-stretch:normal;font-size:9.46291px;font-family:Arial;-inkscape-font-specification:ArialMT;writing-mode:lr-tb;fill:#000000;fill-opacity:1;fill-rule:nonzero;stroke:none"
       id="text419"><tspan
         x="0"
         y="0"
         id="tspan417">a</tspan></text><text
       transform="matrix(1,0,0,-0.97428804,354.61253,365.71973)"
       style="font-variant:normal;font-weight:normal;font-stretch:normal;font-size:9.46291px;font-family:Arial;-inkscape-font-specification:ArialMT;writing-mode:lr-tb;fill:#000000;fill-opacity:1;fill-rule:nonzero;stroke:none"
       id="text423"><tspan
         x="0 2.4831622"
         y="0"
         sodipodi:role="line"
         id="tspan421">to</tspan></text><text
       transform="matrix(1,0,0,-0.97428804,362.1347,365.71973)"
       style="font-variant:normal;font-weight:normal;font-stretch:normal;font-size:9.46291px;font-family:Arial;-inkscape-font-specification:ArialMT;writing-mode:lr-tb;fill:#000000;fill-opacity:1;fill-rule:nonzero;stroke:none"
       id="text427"><tspan
         x="0"
         y="0"
         id="tspan425">r</tspan></text><text
       transform="matrix(1,0,0,-0.97428804,235.56012,352.57993)"
       style="font-variant:normal;font-weight:normal;font-stretch:normal;font-size:9.46291px;font-family:Arial;-inkscape-font-specification:ArialMT;writing-mode:lr-tb;fill:#000000;fill-opacity:1;fill-rule:nonzero;stroke:none"
       id="text431"><tspan
         x="0"
         y="0"
         id="tspan429">S</tspan></text><text
       transform="matrix(1,0,0,-0.99542907,401.10001,344.66028)"
       style="font-variant:normal;font-weight:bold;font-stretch:normal;font-size:11.0262px;font-family:Arial;-inkscape-font-specification:Arial-BoldMT;writing-mode:lr-tb;fill:#000000;fill-opacity:1;fill-rule:nonzero;stroke:none"
       id="text435"><tspan
         x="0"
         y="0"
         id="tspan433">R</tspan></text><text
       transform="matrix(1,0,0,-0.99542907,265.4402,319.63982)"
       style="font-variant:normal;font-weight:bold;font-stretch:normal;font-size:11.0262px;font-family:Arial;-inkscape-font-specification:Arial-BoldMT;writing-mode:lr-tb;fill:#000000;fill-opacity:1;fill-rule:nonzero;stroke:none"
       id="text439"><tspan
         x="0"
         y="0"
         id="tspan437">R</tspan></text><text
       transform="matrix(1,0,0,-0.99542907,401.10001,369.26036)"
       style="font-variant:normal;font-weight:bold;font-stretch:normal;font-size:11.0262px;font-family:Arial;-inkscape-font-specification:Arial-BoldMT;writing-mode:lr-tb;fill:#000000;fill-opacity:1;fill-rule:nonzero;stroke:none"
       id="text443"><tspan
         x="0"
         y="0"
         id="tspan441">R</tspan></text><text
       transform="matrix(1,0,0,-0.99542907,265.86031,391.88037)"
       style="font-variant:normal;font-weight:bold;font-stretch:normal;font-size:11.0262px;font-family:Arial;-inkscape-font-specification:Arial-BoldMT;writing-mode:lr-tb;fill:#000000;fill-opacity:1;fill-rule:nonzero;stroke:none"
       id="text447"><tspan
         x="0"
         y="0"
         id="tspan445">R</tspan></text><text
       transform="matrix(1,0,0,-0.99542907,228.30064,355.64043)"
       style="font-variant:normal;font-weight:bold;font-stretch:normal;font-size:11.0262px;font-family:Arial;-inkscape-font-specification:Arial-BoldMT;writing-mode:lr-tb;fill:#000000;fill-opacity:1;fill-rule:nonzero;stroke:none"
       id="text451"><tspan
         x="0"
         y="0"
         id="tspan449">U</tspan></text><path
       d="M 384.35999,336.80002 H 397.32 v 45.42 h -12.96001 z"
       style="fill:#ffffff;fill-opacity:1;fill-rule:nonzero;stroke:none"
       id="path453" /><path
       d="m 397.97998,382.22 -0.66,0.66 h -12.95999 v -1.32 h 12.95999 l -0.65998,0.66 h 1.31998 v 0.66 h -0.66"
       style="fill:#000000;fill-opacity:1;fill-rule:nonzero;stroke:none"
       id="path455" /><path
       d="m 397.31998,336.13998 0.66,0.66004 V 382.22 H 396.66 v -45.41998 l 0.65998,0.65997 v -1.32001 h 0.66 v 0.66004"
       style="fill:#000000;fill-opacity:1;fill-rule:nonzero;stroke:none"
       id="path457" /><path
       d="m 383.70001,336.80002 0.65998,-0.66004 h 12.95999 v 1.32001 h -12.95999 l 0.66,-0.65997 h -1.31998 v -0.66004 h 0.65998"
       style="fill:#000000;fill-opacity:1;fill-rule:nonzero;stroke:none"
       id="path459" /><path
       d="m 384.35999,382.88 -0.65998,-0.66 v -45.41998 h 1.31998 V 382.22 l -0.66,-0.66 v 1.32 h -0.65998 v -0.66"
       style="fill:#000000;fill-opacity:1;fill-rule:nonzero;stroke:none"
       id="path461" /><path
       d="M 397.31998,359.41998 H 416.88"
       style="fill:none;stroke:#000000;stroke-width:0.06;stroke-linecap:butt;stroke-linejoin:miter;stroke-miterlimit:10;stroke-dasharray:none;stroke-opacity:1"
       id="path463" /></g></svg>
