<?xml version="1.0" encoding="UTF-8" standalone="no"?>
<!-- Created with Inkscape (http://www.inkscape.org/) -->

<svg
   version="1.1"
   id="svg2352"
   xml:space="preserve"
   width="76.738495mm"
   height="83.321327mm"
   viewBox="0 0 290.03526 314.91524"
   sodipodi:docname="V302.svg"
   inkscape:version="1.1.1 (3bf5ae0d25, 2021-09-20)"
   xmlns:inkscape="http://www.inkscape.org/namespaces/inkscape"
   xmlns:sodipodi="http://sodipodi.sourceforge.net/DTD/sodipodi-0.dtd"
   xmlns="http://www.w3.org/2000/svg"
   xmlns:svg="http://www.w3.org/2000/svg"><defs
     id="defs2356"><clipPath
       clipPathUnits="userSpaceOnUse"
       id="clipPath2536"><path
         d="m 357.06,511.45999 h 8.03999 v 14.64 H 357.06 Z"
         id="path2534" /></clipPath><clipPath
       clipPathUnits="userSpaceOnUse"
       id="clipPath2548"><path
         d="m 336.12,511.45999 h 6.60001 v 14.64 H 336.12 Z"
         id="path2546" /></clipPath><clipPath
       clipPathUnits="userSpaceOnUse"
       id="clipPath2560"><path
         d="m 304.5,511.45999 h 6.60001 v 14.64 H 304.5 Z"
         id="path2558" /></clipPath></defs><sodipodi:namedview
     id="namedview2354"
     pagecolor="#505050"
     bordercolor="#ffffff"
     borderopacity="1"
     inkscape:pageshadow="0"
     inkscape:pageopacity="0"
     inkscape:pagecheckerboard="1"
     showgrid="false"
     units="mm"
     fit-margin-top="5"
     fit-margin-left="5"
     fit-margin-right="5"
     fit-margin-bottom="5"
     inkscape:zoom="0.52731588"
     inkscape:cx="116.62839"
     inkscape:cy="26.549551"
     inkscape:window-width="1368"
     inkscape:window-height="842"
     inkscape:window-x="-6"
     inkscape:window-y="-6"
     inkscape:window-maximized="1"
     inkscape:current-layer="g2358"
     inkscape:document-units="mm" /><g
     id="g2358"
     inkscape:groupmode="layer"
     inkscape:label="V302"
     transform="matrix(1.3333333,0,0,-1.3333333,-280.22235,585.80428)"><path
       d="m 288.12,374.47998 h -0.66001 v -68.94 h 1.08002 v 68.94 H 288.12"
       style="fill:#000000;fill-opacity:1;fill-rule:nonzero;stroke:none"
       id="path2670" /><path
       d="m 288.12,412.63998 -0.66001,-0.6 V 399.5 h 1.08002 v 12.53998 L 288.12,411.38 v 1.25998 h -0.66001 v -0.6"
       style="fill:#000000;fill-opacity:1;fill-rule:nonzero;stroke:none"
       id="path2672" /><path
       d="m 389.03998,412.03998 -0.59998,0.6 H 288.12 V 411.38 h 100.32 l -0.66,0.65998 h 1.25998 v 0.6 H 388.44"
       style="fill:#000000;fill-opacity:1;fill-rule:nonzero;stroke:none"
       id="path2674" /><path
       d="m 388.44,229.87999 0.59998,0.60001 V 412.03998 H 387.78 V 230.48 l 0.66,0.66 v -1.26001 h 0.59998 V 230.48"
       style="fill:#000000;fill-opacity:1;fill-rule:nonzero;stroke:none"
       id="path2676" /><path
       d="M 287.45999,230.48 288.12,229.87999 H 388.44 V 231.14 H 288.12 l 0.42001,-0.66 h -1.08002 v -0.60001 H 288.12"
       style="fill:#000000;fill-opacity:1;fill-rule:nonzero;stroke:none"
       id="path2678" /><path
       d="m 288.12,280.51999 h -0.66001 V 230.48 h 1.08002 v 50.03999 H 288.12"
       style="fill:#000000;fill-opacity:1;fill-rule:nonzero;stroke:none"
       id="path2680" /><path
       d="m 338.28,412.03998 h -2.76001 V 411.62 l 0.18002,-0.24 v -0.42001 L 335.94,410.72 v -0.18002 h 0.18 v -0.23996 l 0.23999,-0.18002 h 0.24002 v -0.24 H 336.78 l 0.23999,-0.17999 h 0.18002 l 0.23999,-0.24002 h 1.68 l 0.23999,0.24002 h 0.17999 L 339.78,409.88 h 0.17999 v 0.24 h 0.24002 v 0.18002 H 340.38 v 0.23996 h 0.24 v 0.42001 h 0.18002 V 411.62 l 0.23996,0.18002 v 0.65997 l -0.23996,0.17999 V 413.06 L 340.62,413.30002 V 413.72 h -0.24 v 0.17999 h -0.17999 v 0.23999 h -0.24002 V 414.38 H 339.78 l -0.24002,0.18 H 339.12 v 0.24002 h -1.68 V 414.56 h -0.42001 L 336.78,414.38 h -0.17999 v -0.24002 h -0.24002 v -0.23999 H 336.12 V 413.72 h -0.18 v -0.24002 l -0.23999,-0.17996 V 412.88 l -0.18002,-0.24002 v -0.6 H 338.28"
       style="fill:#000000;fill-opacity:1;fill-rule:nonzero;stroke:none"
       id="path2682" /><path
       d="m 338.28,424.10001 -0.66,0.65997 v -12.72 h 1.32 v 12.72 l -0.66,0.42001 0.66,-0.42001 v 0.42001 h -0.66"
       style="fill:#000000;fill-opacity:1;fill-rule:nonzero;stroke:none"
       id="path2684" /><path
       d="M 238.37999,424.75998 237.72,424.10001 h 100.56 v 1.07998 H 237.72 l -0.6,-0.42001 0.6,0.42001 h -0.6 v -0.42001"
       style="fill:#000000;fill-opacity:1;fill-rule:nonzero;stroke:none"
       id="path2686" /><path
       d="m 237.72,218.42 0.65999,-0.66001 V 424.75998 H 237.12 V 217.75999 l 0.6,-0.41999 -0.6,0.41999 V 217.34 h 0.6"
       style="fill:#000000;fill-opacity:1;fill-rule:nonzero;stroke:none"
       id="path2688" /><path
       d="m 337.62,217.75999 0.66,0.66001 H 237.72 v -1.08 h 100.56 l 0.66,0.41999 -0.66,-0.41999 h 0.66 v 0.41999"
       style="fill:#000000;fill-opacity:1;fill-rule:nonzero;stroke:none"
       id="path2690" /><path
       d="m 338.28,230.48 h -0.66 v -12.72001 h 1.32 V 230.48 h -0.66"
       style="fill:#000000;fill-opacity:1;fill-rule:nonzero;stroke:none"
       id="path2692" /><path
       d="m 338.28,230.48 h -2.76001 v 0.42001 l 0.18002,0.23999 v 0.42 l 0.23999,0.17999 V 231.98 h 0.18 v 0.24 l 0.23999,0.18001 h 0.24002 V 232.64 H 336.78 l 0.23999,0.17999 h 0.18002 L 337.44,233.06 h 1.68 l 0.23999,-0.24001 h 0.17999 L 339.78,232.64 h 0.17999 v -0.23999 h 0.24002 V 232.22 H 340.38 v -0.24 h 0.24 v -0.42 h 0.18002 v -0.65999 l 0.23996,-0.18001 v -0.66 l -0.23996,-0.18001 v -0.42 L 340.62,229.22 v -0.42 h -0.24 v -0.24 h -0.17999 v -0.18001 h -0.24002 V 228.14 H 339.78 l -0.24002,-0.18001 H 339.12 V 227.72 h -1.68 v 0.23999 h -0.42001 L 336.78,228.14 h -0.17999 v 0.23999 h -0.24002 V 228.56 H 336.12 v 0.24 h -0.18 v 0.23999 l -0.23999,0.18001 v 0.42 l -0.18002,0.23999 V 230.48 H 338.28"
       style="fill:#000000;fill-opacity:1;fill-rule:nonzero;stroke:none"
       id="path2694" /><path
       d="m 350.82001,321.67999 v 2.52002 h -0.84003 l -0.23999,-0.18002 H 349.56 L 349.32001,323.78 h -0.18003 v -0.17999 h -0.23999 v -0.24002 H 348.66 v -0.18 L 348.47998,322.94 v -0.18002 h -0.23999 v -0.65997 H 348.06 v -0.84003 l 0.17999,-0.23999 v -0.60001 h 0.23999 v -0.23999 l 0.42001,-0.42001 v -0.17999 h 0.23999 V 319.34 h 0.18003 l 0.23999,-0.18 h 0.41998 v -0.24002 H 351.66 V 319.16 h 0.41999 v 0.18 H 352.5 v 0.23999 l 0.23999,0.17999 h 0.17999 V 320 l 0.24002,0.17999 v 0.23999 l 0.18,0.18003 v 0.41998 l 0.23999,0.23999 v 0.84003 L 353.34,322.34 v 0.41998 l -0.18,0.18002 v 0.23999 h -0.24002 v 0.18 l -0.17999,0.24002 H 352.5 V 323.78 h -0.17999 l -0.24002,0.23999 h -0.18 v 0.18002 h -1.07998 v -2.52002"
       style="fill:#000000;fill-opacity:1;fill-rule:nonzero;stroke:none"
       id="path2696" /><path
       d="m 380.57999,321.25998 v 0.66 L 350.82001,322.34 v -1.32001 l 29.75998,-0.41998 v 0.65997"
       style="fill:#000000;fill-opacity:1;fill-rule:nonzero;stroke:none"
       id="path2698" /><path
       d="m 381.84,320.84 v 0.83999 l -4.86002,3.42002 -0.66,-1.08002 4.86001,-3.17999 v 1.07998"
       style="fill:#000000;fill-opacity:1;fill-rule:nonzero;stroke:none"
       id="path2700" /><path
       d="m 381.84,320.84 -0.42002,0.41998 0.42002,0.42001"
       style="fill:#000000;fill-opacity:1;fill-rule:nonzero;stroke:none"
       id="path2702" /><path
       d="m 376.5,318.07999 0.23999,-0.41999 5.10001,3.18 -0.66001,1.07998 -5.1,-3.17999 0.42001,-0.66"
       style="fill:#000000;fill-opacity:1;fill-rule:nonzero;stroke:none"
       id="path2704" /><path
       d="m 288.12,321.67999 v 2.52002 h -1.07999 v -0.18002 H 286.62 V 323.78 h -0.18 l -0.23999,-0.17999 -0.24002,-0.24002 -0.17999,-0.18 V 322.94 h -0.23999 v -0.42001 L 285.35999,322.34 v -1.5 l 0.18002,-0.23999 v -0.18003 L 285.78,320.17999 V 320 h 0.17999 v -0.24002 l 0.24002,-0.17999 L 286.44,319.34 h 0.18 v -0.18 h 0.42001 l 0.23999,-0.24002 h 1.5 l 0.17999,0.24002 h 0.24002 l 0.17999,0.18 h 0.24 l 0.18002,0.23999 v 0.17999 h 0.23999 L 290.22,320 v 0.17999 h 0.23999 v 0.42002 l 0.17999,0.23999 v 1.67999 h -0.17999 V 322.94 H 290.22 v 0.23999 l -0.17999,0.18 v 0.24002 h -0.23999 L 289.62,323.78 h -0.24 v 0.23999 h -0.17999 l -0.24002,0.18002 H 288.12 v -2.52002"
       style="fill:#000000;fill-opacity:1;fill-rule:nonzero;stroke:none"
       id="path2706" /><path
       d="m 325.73999,321.25998 v 0.66 L 288.12,322.34 v -1.32001 l 37.61999,-0.41998 v 0.65997"
       style="fill:#000000;fill-opacity:1;fill-rule:nonzero;stroke:none"
       id="path2708" /><path
       d="m 325.73999,321.25998 v 2.76001 H 326.16 V 323.78 h 0.66001 v -0.17999 h 0.41998 v -0.24002 h 0.17999 v -0.18 H 327.66 V 322.94 h 0.18 v -0.18002 l 0.23999,-0.23999 V 322.34 h 0.17999 v -0.66001 L 328.5,321.5 v -0.48001 h -0.24002 v -0.84 L 328.07999,320 v -0.24002 H 327.84 v -0.17999 L 327.66,319.34 h -0.24002 v -0.18 h -0.17999 v -0.24002 H 327 l -0.17999,-0.17999 H 326.16 V 318.5 h -0.83999 l -0.24002,0.23999 H 324.66 l -0.18002,0.17999 h -0.23999 V 319.16 H 324.06 l -0.23999,0.18 -0.24002,0.23999 -0.18,0.17999 V 320 l -0.23999,0.17999 v 0.23999 l -0.18002,0.18003 v 1.31997 H 323.16 v 0.60001 h 0.23999 v 0.23999 l 0.18,0.18002 v 0.23999 h 0.24002 l 0.23999,0.18 0.17999,0.24002 h 0.23999 V 323.78 h 0.60001 l 0.24002,0.23999 h 0.41998 v -2.76001"
       style="fill:#000000;fill-opacity:1;fill-rule:nonzero;stroke:none"
       id="path2710" /><path
       d="m 281.75998,336.97998 h 12.53999 v 25.02 h -12.53999 z"
       style="fill:#ffffff;fill-opacity:1;fill-rule:nonzero;stroke:none"
       id="path2712" /><path
       d="m 294.89999,362 -0.59997,0.60001 H 281.75998 V 361.34 h 12.54004 l -0.66004,0.66 h 1.26001 v 0.60001 h -0.59997"
       style="fill:#000000;fill-opacity:1;fill-rule:nonzero;stroke:none"
       id="path2714" /><path
       d="m 294.30002,336.32001 0.59997,0.65997 V 362 h -1.26001 v -25.02002 l 0.66004,0.60001 v -1.25998 h 0.59997 v 0.65997"
       style="fill:#000000;fill-opacity:1;fill-rule:nonzero;stroke:none"
       id="path2716" /><path
       d="m 281.10001,336.97998 0.65997,-0.65997 h 12.54004 v 1.25998 h -12.54004 l 0.60001,-0.60001 h -1.25998 v -0.65997 h 0.65997"
       style="fill:#000000;fill-opacity:1;fill-rule:nonzero;stroke:none"
       id="path2718" /><path
       d="M 281.75998,362.60001 281.10001,362 v -25.02002 h 1.25998 V 362 l -0.60001,-0.66 v 1.26001 h -0.65997 V 362"
       style="fill:#000000;fill-opacity:1;fill-rule:nonzero;stroke:none"
       id="path2720" /><path
       d="m 281.75998,243.01999 h 12.53999 v 25.02 h -12.53999 z"
       style="fill:#ffffff;fill-opacity:1;fill-rule:nonzero;stroke:none"
       id="path2722" /><path
       d="m 294.89999,268.04001 -0.59997,0.59997 H 281.75998 V 267.38 h 12.54004 l -0.66004,0.66001 h 1.26001 v 0.59997 h -0.59997"
       style="fill:#000000;fill-opacity:1;fill-rule:nonzero;stroke:none"
       id="path2724" /><path
       d="m 294.30002,242.36 0.59997,0.65999 v 25.02002 h -1.26001 v -25.02002 l 0.66004,0.60001 v -1.26 h 0.59997 v 0.65999"
       style="fill:#000000;fill-opacity:1;fill-rule:nonzero;stroke:none"
       id="path2726" /><path
       d="m 281.10001,243.01999 0.65997,-0.65999 h 12.54004 v 1.26 h -12.54004 l 0.60001,-0.60001 h -1.25998 V 242.36 h 0.65997"
       style="fill:#000000;fill-opacity:1;fill-rule:nonzero;stroke:none"
       id="path2728" /><path
       d="m 281.75998,268.63998 -0.65997,-0.59997 v -25.02002 h 1.25998 v 25.02002 L 281.75998,267.38 v 1.25998 h -0.65997 v -0.59997"
       style="fill:#000000;fill-opacity:1;fill-rule:nonzero;stroke:none"
       id="path2730" /><path
       d="M 237.53999,334.22 H 238.8 l 1.07999,-0.24002 1.26001,-0.41998 1.26001,-0.42002 1.07999,-0.41998 1.08,-0.66 0.84001,-0.84 0.83998,-0.66 0.84001,-1.02002 0.84,-0.83997 0.48001,-1.08001 0.59999,-1.08002 0.42,-1.25998 0.23999,-1.07999 0.18001,-1.26001 0.24,-1.26001 -0.24,-1.26001 L 249.65999,319.16 249.42,317.84 249,316.82001 248.40001,315.73999 247.92,314.66 l -0.84,-1.02002 -0.84001,-0.83996 -0.83998,-0.90003 -0.84001,-0.59997 -1.08,-0.66004 -1.07999,-0.6 L 241.14,309.62 239.87999,309.38 238.8,309.20001 h -2.52 l -1.32001,0.17999 -1.25999,0.24 -1.08,0.41998 -1.26,0.6 -0.84001,0.66004 -1.07999,0.59997 -0.83999,0.90003 -0.84002,0.83996 -0.65998,1.02002 -0.60001,1.07999 -0.66,1.08002 -0.42,1.01999 -0.24001,1.32 L 225,320.41998 224.75999,321.67999 225,322.94 l 0.17999,1.26001 0.24001,1.07999 0.42,1.25998 0.66,1.08002 0.60001,1.08001 0.65998,0.83997 0.84002,1.02002 0.83999,0.66 1.07999,0.84 0.84001,0.66 1.26,0.41998 1.08,0.42002 1.25999,0.41998 1.32001,0.24002 h 1.25999"
       style="fill:#ffffff;fill-opacity:1;fill-rule:evenodd;stroke:none"
       id="path2732" /><path
       d="M 250.67999,321.67999 250.5,322.94 250.25999,324.20001 250.08,325.51999 249.65999,326.78 249,327.85999 248.40001,329.12 247.5,329.95999 l -0.84001,1.07999 -0.84,0.84002 -1.08,0.59998 -1.01999,0.66 -1.08,0.60001 -1.26001,0.48001 -1.31999,0.41998 -1.26,0.18003 h -1.26001 V 333.56 H 238.62 l 1.25999,-0.23999 1.08,-0.18003 1.02001,-0.41998 1.08,-0.66 1.08,-0.60001 0.84,-0.65997 0.83999,-0.66004 0.84,-0.83996 0.66,-1.02002 0.60001,-0.9 0.48001,-1.02001 0.41998,-1.07999 0.42,-1.26001 V 322.94 l 0.18001,-1.26001"
       style="fill:#000000;fill-opacity:1;fill-rule:nonzero;stroke:none"
       id="path2734" /><path
       d="M 237.53999,308.53998 H 238.8 l 1.26,0.18002 1.31999,0.48001 1.26001,0.41999 1.08,0.41998 1.01999,0.6 1.08,0.84 0.84,0.90002 0.84001,0.84 0.90001,1.01999 0.59999,1.08002 0.65999,1.25998 0.42001,1.08001 0.17999,1.25998 0.24001,1.5 0.17999,1.26001 H 249.42 l -0.18001,-1.26001 V 319.34 l -0.42,-1.26001 L 248.40001,317 247.92,315.97998 l -0.60001,-0.89999 -0.66,-1.01999 -0.84,-0.84 -0.83999,-0.66 -0.84,-0.84 -1.08,-0.41998 -1.08,-0.66004 -1.02001,-0.41998 -1.08,-0.18002 -1.25999,-0.23996 h -1.08001"
       style="fill:#000000;fill-opacity:1;fill-rule:nonzero;stroke:none"
       id="path2736" /><path
       d="m 224.34,321.67999 v -1.26001 l 0.24,-1.5 0.17999,-1.25998 0.42,-1.08001 0.66001,-1.25998 0.66,-1.08002 0.84,-1.01999 0.83999,-0.84 0.84,-0.90002 1.08002,-0.84 1.07998,-0.6 1.02001,-0.41998 1.31999,-0.41999 1.26001,-0.48001 1.25999,-0.18002 h 1.5 v 1.26004 H 236.28 l -1.32001,0.23996 -1.02,0.18002 -1.07999,0.41998 -1.08,0.66004 -1.02001,0.41998 -0.89999,0.84 -0.84001,0.66 -0.84,0.84 -0.66,1.01999 -0.59999,0.89999 -0.42,1.02002 -0.42,1.07999 -0.24,1.26001 -0.23999,1.07998 -0.18001,1.26001"
       style="fill:#000000;fill-opacity:1;fill-rule:nonzero;stroke:none"
       id="path2738" /><path
       d="m 237.53999,334.82001 h -1.5 L 234.78,334.63998 233.51999,334.22 232.2,333.73999 l -1.02001,-0.60001 -1.07998,-0.66 -1.08002,-0.59998 -0.84,-0.84002 -0.83999,-1.07999 -0.84,-0.83999 -0.66,-1.26001 -0.66001,-1.07999 -0.42,-1.26001 -0.17999,-1.31998 -0.24,-1.26001 v -1.26001 h 1.08 l 0.18001,1.26001 0.23999,1.07999 0.24,1.26001 0.42,1.07999 0.42,1.02001 0.59999,0.9 0.66,1.02002 0.84,0.83996 0.84001,0.66004 0.89999,0.65997 1.02001,0.60001 1.08,0.66 1.07999,0.41998 1.02,0.18003 1.32001,0.23999 h 1.25999"
       style="fill:#000000;fill-opacity:1;fill-rule:nonzero;stroke:none"
       id="path2740" /><text
       transform="matrix(1,0,0,-0.97358905,406.5,304.04028)"
       style="font-variant:normal;font-weight:normal;font-stretch:normal;font-size:9.1481px;font-family:Arial;-inkscape-font-specification:ArialMT;writing-mode:lr-tb;fill:#000000;fill-opacity:1;fill-rule:nonzero;stroke:none"
       id="text2744"><tspan
         x="0"
         y="0"
         id="tspan2742">4</tspan></text><text
       transform="matrix(1,0,0,-0.97358905,406.73967,327.14014)"
       style="font-variant:normal;font-weight:normal;font-stretch:normal;font-size:9.1481px;font-family:Arial;-inkscape-font-specification:ArialMT;writing-mode:lr-tb;fill:#000000;fill-opacity:1;fill-rule:nonzero;stroke:none"
       id="text2748"><tspan
         x="0"
         y="0"
         id="tspan2746">3</tspan></text><text
       transform="matrix(1,0,0,-0.97358905,270.72015,250.1595)"
       style="font-variant:normal;font-weight:normal;font-stretch:normal;font-size:9.1481px;font-family:Arial;-inkscape-font-specification:ArialMT;writing-mode:lr-tb;fill:#000000;fill-opacity:1;fill-rule:nonzero;stroke:none"
       id="text2752"><tspan
         x="0"
         y="0"
         id="tspan2750">2</tspan></text><text
       transform="matrix(1,0,0,-0.97358905,271.14003,289.21986)"
       style="font-variant:normal;font-weight:normal;font-stretch:normal;font-size:9.1481px;font-family:Arial;-inkscape-font-specification:ArialMT;writing-mode:lr-tb;fill:#000000;fill-opacity:1;fill-rule:nonzero;stroke:none"
       id="text2756"><tspan
         x="0"
         y="0"
         id="tspan2754">2</tspan></text><text
       transform="matrix(1,0,0,-0.97358905,270.90036,343.0997)"
       style="font-variant:normal;font-weight:normal;font-stretch:normal;font-size:9.1481px;font-family:Arial;-inkscape-font-specification:ArialMT;writing-mode:lr-tb;fill:#000000;fill-opacity:1;fill-rule:nonzero;stroke:none"
       id="text2760"><tspan
         x="0"
         y="0"
         id="tspan2758">x</tspan></text><text
       transform="matrix(1,0,0,-0.97358905,272.82054,381.25957)"
       style="font-variant:normal;font-weight:normal;font-stretch:normal;font-size:9.1481px;font-family:Arial;-inkscape-font-specification:ArialMT;writing-mode:lr-tb;fill:#000000;fill-opacity:1;fill-rule:nonzero;stroke:none"
       id="text2764"><tspan
         x="0"
         y="0"
         id="tspan2762">x</tspan></text><text
       transform="matrix(1,0,0,-0.97358905,305.76004,339.67958)"
       style="font-variant:normal;font-weight:normal;font-stretch:normal;font-size:9.1481px;font-family:Arial;-inkscape-font-specification:ArialMT;writing-mode:lr-tb;fill:#000000;fill-opacity:1;fill-rule:nonzero;stroke:none"
       id="text2768"><tspan
         x="0"
         y="0"
         id="tspan2766">z</tspan></text><text
       transform="matrix(1,0,0,-0.97358905,310.25998,339.67958)"
       style="font-variant:normal;font-weight:normal;font-stretch:normal;font-size:9.1481px;font-family:Arial;-inkscape-font-specification:ArialMT;writing-mode:lr-tb;fill:#000000;fill-opacity:1;fill-rule:nonzero;stroke:none"
       id="text2772"><tspan
         x="0"
         y="0"
         id="tspan2770">u</tspan></text><text
       transform="matrix(1,0,0,-0.97358905,315.11852,339.67958)"
       style="font-variant:normal;font-weight:normal;font-stretch:normal;font-size:9.1481px;font-family:Arial;-inkscape-font-specification:ArialMT;writing-mode:lr-tb;fill:#000000;fill-opacity:1;fill-rule:nonzero;stroke:none"
       id="text2776"><tspan
         x="0 7.4520421 9.7939558 15.727413"
         y="0"
         sodipodi:role="line"
         id="tspan2774">m Y-</tspan></text><text
       transform="matrix(1,0,0,-0.97358905,333.8455,339.67958)"
       style="font-variant:normal;font-weight:normal;font-stretch:normal;font-size:9.1481px;font-family:Arial;-inkscape-font-specification:ArialMT;writing-mode:lr-tb;fill:#000000;fill-opacity:1;fill-rule:nonzero;stroke:none"
       id="text2780"><tspan
         x="0 5.9334579"
         y="0"
         sodipodi:role="line"
         id="tspan2778">Ei</tspan></text><text
       transform="matrix(1,0,0,-0.97358905,341.69728,339.67958)"
       style="font-variant:normal;font-weight:normal;font-stretch:normal;font-size:9.1481px;font-family:Arial;-inkscape-font-specification:ArialMT;writing-mode:lr-tb;fill:#000000;fill-opacity:1;fill-rule:nonzero;stroke:none"
       id="text2784"><tspan
         x="0 4.9180183"
         y="0"
         sodipodi:role="line"
         id="tspan2782">ng</tspan></text><text
       transform="matrix(1,0,0,-0.97358905,351.47383,339.67958)"
       style="font-variant:normal;font-weight:normal;font-stretch:normal;font-size:9.1481px;font-family:Arial;-inkscape-font-specification:ArialMT;writing-mode:lr-tb;fill:#000000;fill-opacity:1;fill-rule:nonzero;stroke:none"
       id="text2788"><tspan
         x="0"
         y="0"
         id="tspan2786">a</tspan></text><text
       transform="matrix(1,0,0,-0.97358905,356.57204,339.67958)"
       style="font-variant:normal;font-weight:normal;font-stretch:normal;font-size:9.1481px;font-family:Arial;-inkscape-font-specification:ArialMT;writing-mode:lr-tb;fill:#000000;fill-opacity:1;fill-rule:nonzero;stroke:none"
       id="text2792"><tspan
         x="0"
         y="0"
         id="tspan2790">n</tspan></text><text
       transform="matrix(1,0,0,-0.97358905,361.43057,339.67958)"
       style="font-variant:normal;font-weight:normal;font-stretch:normal;font-size:9.1481px;font-family:Arial;-inkscape-font-specification:ArialMT;writing-mode:lr-tb;fill:#000000;fill-opacity:1;fill-rule:nonzero;stroke:none"
       id="text2796"><tspan
         x="0"
         y="0"
         id="tspan2794">g</tspan></text><text
       transform="matrix(1,0,0,-0.97358905,298.13974,329.71944)"
       style="font-variant:normal;font-weight:normal;font-stretch:normal;font-size:9.1481px;font-family:Arial;-inkscape-font-specification:ArialMT;writing-mode:lr-tb;fill:#000000;fill-opacity:1;fill-rule:nonzero;stroke:none"
       id="text2800"><tspan
         x="0"
         y="0"
         id="tspan2798">d</tspan></text><text
       transform="matrix(1,0,0,-0.97358905,302.99826,329.71944)"
       style="font-variant:normal;font-weight:normal;font-stretch:normal;font-size:9.1481px;font-family:Arial;-inkscape-font-specification:ArialMT;writing-mode:lr-tb;fill:#000000;fill-opacity:1;fill-rule:nonzero;stroke:none"
       id="text2804"><tspan
         x="0"
         y="0"
         id="tspan2802">e</tspan></text><text
       transform="matrix(1,0,0,-0.97358905,307.91714,329.71944)"
       style="font-variant:normal;font-weight:normal;font-stretch:normal;font-size:9.1481px;font-family:Arial;-inkscape-font-specification:ArialMT;writing-mode:lr-tb;fill:#000000;fill-opacity:1;fill-rule:nonzero;stroke:none"
       id="text2808"><tspan
         x="0 4.4175262 6.9990282"
         y="0"
         sodipodi:role="line"
         id="tspan2806">s O</tspan></text><text
       transform="matrix(1,0,0,-0.97358905,321.69771,329.71944)"
       style="font-variant:normal;font-weight:normal;font-stretch:normal;font-size:9.1481px;font-family:Arial;-inkscape-font-specification:ArialMT;writing-mode:lr-tb;fill:#000000;fill-opacity:1;fill-rule:nonzero;stroke:none"
       id="text2812"><tspan
         x="0"
         y="0"
         id="tspan2810">s</tspan></text><text
       transform="matrix(1,0,0,-0.97358905,326.13724,329.71944)"
       style="font-variant:normal;font-weight:normal;font-stretch:normal;font-size:9.1481px;font-family:Arial;-inkscape-font-specification:ArialMT;writing-mode:lr-tb;fill:#000000;fill-opacity:1;fill-rule:nonzero;stroke:none"
       id="text2816"><tspan
         x="0"
         y="0"
         id="tspan2814">z</tspan></text><text
       transform="matrix(1,0,0,-0.97358905,330.63715,329.71944)"
       style="font-variant:normal;font-weight:normal;font-stretch:normal;font-size:9.1481px;font-family:Arial;-inkscape-font-specification:ArialMT;writing-mode:lr-tb;fill:#000000;fill-opacity:1;fill-rule:nonzero;stroke:none"
       id="text2820"><tspan
         x="0"
         y="0"
         id="tspan2818">i</tspan></text><text
       transform="matrix(1,0,0,-0.97358905,332.55545,329.71944)"
       style="font-variant:normal;font-weight:normal;font-stretch:normal;font-size:9.1481px;font-family:Arial;-inkscape-font-specification:ArialMT;writing-mode:lr-tb;fill:#000000;fill-opacity:1;fill-rule:nonzero;stroke:none"
       id="text2824"><tspan
         x="0"
         y="0"
         id="tspan2822">l</tspan></text><text
       transform="matrix(1,0,0,-0.97358905,334.47377,329.71944)"
       style="font-variant:normal;font-weight:normal;font-stretch:normal;font-size:9.1481px;font-family:Arial;-inkscape-font-specification:ArialMT;writing-mode:lr-tb;fill:#000000;fill-opacity:1;fill-rule:nonzero;stroke:none"
       id="text2828"><tspan
         x="0"
         y="0"
         id="tspan2826">l</tspan></text><text
       transform="matrix(1,0,0,-0.97358905,336.5723,329.71944)"
       style="font-variant:normal;font-weight:normal;font-stretch:normal;font-size:9.1481px;font-family:Arial;-inkscape-font-specification:ArialMT;writing-mode:lr-tb;fill:#000000;fill-opacity:1;fill-rule:nonzero;stroke:none"
       id="text2832"><tspan
         x="0 4.9298196"
         y="0"
         sodipodi:role="line"
         id="tspan2830">og</tspan></text><text
       transform="matrix(1,0,0,-0.97358905,346.36067,329.71944)"
       style="font-variant:normal;font-weight:normal;font-stretch:normal;font-size:9.1481px;font-family:Arial;-inkscape-font-specification:ArialMT;writing-mode:lr-tb;fill:#000000;fill-opacity:1;fill-rule:nonzero;stroke:none"
       id="text2836"><tspan
         x="0"
         y="0"
         id="tspan2834">r</tspan></text><text
       transform="matrix(1,0,0,-0.97358905,349.36029,329.71944)"
       style="font-variant:normal;font-weight:normal;font-stretch:normal;font-size:9.1481px;font-family:Arial;-inkscape-font-specification:ArialMT;writing-mode:lr-tb;fill:#000000;fill-opacity:1;fill-rule:nonzero;stroke:none"
       id="text2840"><tspan
         x="0"
         y="0"
         id="tspan2838">a</tspan></text><text
       transform="matrix(1,0,0,-0.97358905,354.2188,329.71944)"
       style="font-variant:normal;font-weight:normal;font-stretch:normal;font-size:9.1481px;font-family:Arial;-inkscape-font-specification:ArialMT;writing-mode:lr-tb;fill:#000000;fill-opacity:1;fill-rule:nonzero;stroke:none"
       id="text2844"><tspan
         x="0 4.9298196"
         y="0"
         sodipodi:role="line"
         id="tspan2842">ph</tspan></text><text
       transform="matrix(1,0,0,-0.97358905,364.24686,329.71944)"
       style="font-variant:normal;font-weight:normal;font-stretch:normal;font-size:9.1481px;font-family:Arial;-inkscape-font-specification:ArialMT;writing-mode:lr-tb;fill:#000000;fill-opacity:1;fill-rule:nonzero;stroke:none"
       id="text2848"><tspan
         x="0"
         y="0"
         id="tspan2846">e</tspan></text><text
       transform="matrix(1,0,0,-0.97358905,369.10536,329.71944)"
       style="font-variant:normal;font-weight:normal;font-stretch:normal;font-size:9.1481px;font-family:Arial;-inkscape-font-specification:ArialMT;writing-mode:lr-tb;fill:#000000;fill-opacity:1;fill-rule:nonzero;stroke:none"
       id="text2852"><tspan
         x="0"
         y="0"
         id="tspan2850">n</tspan></text><text
       transform="matrix(1,0,0,-0.99468086,398.45999,307.04028)"
       style="font-variant:normal;font-weight:bold;font-stretch:normal;font-size:10.6596px;font-family:Arial;-inkscape-font-specification:Arial-BoldMT;writing-mode:lr-tb;fill:#000000;fill-opacity:1;fill-rule:nonzero;stroke:none"
       id="text2856"><tspan
         x="0"
         y="0"
         id="tspan2854">R</tspan></text><text
       transform="matrix(1,0,0,-0.99468086,262.86018,253.33978)"
       style="font-variant:normal;font-weight:bold;font-stretch:normal;font-size:10.6596px;font-family:Arial;-inkscape-font-specification:Arial-BoldMT;writing-mode:lr-tb;fill:#000000;fill-opacity:1;fill-rule:nonzero;stroke:none"
       id="text2860"><tspan
         x="0"
         y="0"
         id="tspan2858">R</tspan></text><text
       transform="matrix(1,0,0,-0.99468086,398.45999,330.55966)"
       style="font-variant:normal;font-weight:bold;font-stretch:normal;font-size:10.6596px;font-family:Arial;-inkscape-font-specification:Arial-BoldMT;writing-mode:lr-tb;fill:#000000;fill-opacity:1;fill-rule:nonzero;stroke:none"
       id="text2864"><tspan
         x="0"
         y="0"
         id="tspan2862">R</tspan></text><text
       transform="matrix(1,0,0,-0.99468086,263.70012,294.49916)"
       style="font-variant:normal;font-weight:bold;font-stretch:normal;font-size:10.6596px;font-family:Arial;-inkscape-font-specification:Arial-BoldMT;writing-mode:lr-tb;fill:#000000;fill-opacity:1;fill-rule:nonzero;stroke:none"
       id="text2868"><tspan
         x="0"
         y="0"
         id="tspan2866">L</tspan></text><text
       transform="matrix(1,0,0,-0.99468086,265.6199,384.43942)"
       style="font-variant:normal;font-weight:bold;font-stretch:normal;font-size:10.6596px;font-family:Arial;-inkscape-font-specification:Arial-BoldMT;writing-mode:lr-tb;fill:#000000;fill-opacity:1;fill-rule:nonzero;stroke:none"
       id="text2872"><tspan
         x="0"
         y="0"
         id="tspan2870">L</tspan></text><text
       transform="matrix(1,0,0,-0.99468086,262.86018,345.619)"
       style="font-variant:normal;font-weight:bold;font-stretch:normal;font-size:10.6596px;font-family:Arial;-inkscape-font-specification:Arial-BoldMT;writing-mode:lr-tb;fill:#000000;fill-opacity:1;fill-rule:nonzero;stroke:none"
       id="text2876"><tspan
         x="0"
         y="0"
         id="tspan2874">R</tspan></text><path
       d="m 382.25998,299.41998 h 12.53999 v 43.68001 h -12.53999 z"
       style="fill:#ffffff;fill-opacity:1;fill-rule:nonzero;stroke:none"
       id="path2878" /><path
       d="m 395.45999,343.10001 -0.65997,0.65997 H 382.25998 V 342.44 h 12.54004 l -0.66004,0.66001 h 1.32001 v 0.65997 h -0.65997"
       style="fill:#000000;fill-opacity:1;fill-rule:nonzero;stroke:none"
       id="path2880" /><path
       d="m 394.80002,298.75998 0.65997,0.66 v 43.68003 h -1.32001 v -43.68003 l 0.66004,0.66001 v -1.32001 h 0.65997 v 0.66"
       style="fill:#000000;fill-opacity:1;fill-rule:nonzero;stroke:none"
       id="path2882" /><path
       d="m 381.60001,299.41998 0.65997,-0.66 h 12.54004 v 1.32001 h -12.54004 l 0.66,-0.66001 h -1.31997 v -0.66 h 0.65997"
       style="fill:#000000;fill-opacity:1;fill-rule:nonzero;stroke:none"
       id="path2884" /><path
       d="m 382.25998,343.75998 -0.65997,-0.65997 v -43.68003 h 1.31997 v 43.68003 l -0.66,-0.66001 v 1.31998 h -0.65997 v -0.65997"
       style="fill:#000000;fill-opacity:1;fill-rule:nonzero;stroke:none"
       id="path2886" /><path
       d="m 394.80002,321.25998 h 18.71997"
       style="fill:none;stroke:#000000;stroke-width:0.06;stroke-linecap:butt;stroke-linejoin:miter;stroke-miterlimit:10;stroke-dasharray:none;stroke-opacity:1"
       id="path2888" /><text
       transform="matrix(1,0,0,-0.99636716,229.5,311.06039)"
       style="font-variant:normal;font-weight:normal;font-stretch:normal;font-size:29.371px;font-family:Arial;-inkscape-font-specification:ArialMT;writing-mode:lr-tb;fill:#000000;fill-opacity:1;fill-rule:nonzero;stroke:none"
       id="text2892"><tspan
         x="0"
         y="0"
         id="tspan2890">~</tspan></text><path
       d="m 281.10001,377.66 0.23999,-0.84002 0.41998,-0.84 0.60001,-0.66 0.84002,-0.41999 1.07999,-0.42001 1.07999,-0.41998 H 286.62 l 1.5,-0.24002 v 1.32 h -1.26001 l -1.07999,0.18 -1.07999,0.24002 -0.84002,0.41998 -0.65998,0.42001 -0.42001,0.41999 -0.42001,0.42001 V 377.66"
       style="fill:#000000;fill-opacity:1;fill-rule:nonzero;stroke:none"
       id="path2894" /><path
       d="m 288.12,381.5 -1.5,-0.24002 -1.26001,-0.17999 L 284.28,380.84 283.20001,380.41998 282.35999,380 l -0.60001,-0.66 -0.41998,-0.84 -0.23999,-0.84 h 1.25998 v 0.41999 l 0.84002,0.83999 0.65998,0.42002 0.84002,0.23999 L 285.78,380 h 1.07999 l 1.26001,0.23999"
       style="fill:#000000;fill-opacity:1;fill-rule:nonzero;stroke:none"
       id="path2896" /><path
       d="m 281.10001,383.84 0.23999,-0.9 0.41998,-0.6 0.60001,-0.66001 0.84002,-0.6 1.07999,-0.41999 1.07999,-0.24002 1.26001,-0.17999 h 1.5 V 381.5 h -1.26001 l -1.07999,0.17999 -1.07999,0.23999 -0.84002,0.42002 -0.65998,0.41998 -0.84002,0.84003 V 383.84"
       style="fill:#000000;fill-opacity:1;fill-rule:nonzero;stroke:none"
       id="path2898" /><path
       d="m 288.12,387.62 h -1.5 l -1.26001,-0.18 -1.07999,-0.23999 -1.07999,-0.42001 -0.84002,-0.66 -0.60001,-0.60001 -0.41998,-0.66 -0.23999,-1.01999 h 1.25998 v 0.41998 l 0.42001,0.42001 0.42001,0.42002 0.65998,0.41998 0.84002,0.42001 1.07999,0.18 1.07999,0.23999 H 288.12"
       style="fill:#000000;fill-opacity:1;fill-rule:nonzero;stroke:none"
       id="path2900" /><path
       d="m 281.10001,390.20001 0.23999,-0.89999 0.41998,-0.84003 0.60001,-0.6 0.84002,-0.41999 1.07999,-0.42001 1.07999,-0.23999 1.26001,-0.17999 1.5,-0.24002 V 387.62 h -1.26001 l -1.07999,0.23999 -1.07999,0.42001 -0.84002,0.17999 -0.65998,0.42001 -0.42001,0.42002 -0.42001,0.47998 v 0.42001"
       style="fill:#000000;fill-opacity:1;fill-rule:nonzero;stroke:none"
       id="path2902" /><path
       d="m 288.12,393.97998 -1.5,-0.17996 h -1.26001 L 284.28,393.38 l -1.07999,-0.42001 -0.84002,-0.42001 -0.60001,-0.65998 -0.41998,-0.84002 -0.23999,-0.83997 h 1.25998 V 390.62 l 0.84002,0.83999 0.65998,0.42001 0.84002,0.18 1.07999,0.47998 1.07999,0.18002 H 288.12"
       style="fill:#000000;fill-opacity:1;fill-rule:nonzero;stroke:none"
       id="path2904" /><path
       d="m 281.10001,396.56 0.23999,-1.08002 0.41998,-0.66 0.60001,-0.59998 0.84002,-0.41998 L 284.28,393.38 285.35999,392.95999 286.62,392.72 h 1.5 v 1.25998 h -1.26001 L 285.78,394.22 l -1.07999,0.17999 -0.84002,0.41999 -0.65998,0.42001 -0.42001,0.48001 -0.42001,0.41998 V 396.56"
       style="fill:#000000;fill-opacity:1;fill-rule:nonzero;stroke:none"
       id="path2906" /><path
       d="m 288.12,400.16 h -1.5 l -1.26001,-0.24002 -1.07999,-0.17999 -1.07999,-0.42001 L 282.35999,398.66 281.75998,398 281.34,397.39999 281.10001,396.56 h 1.25998 v 0.17999 l 0.84002,0.84 0.65998,0.42001 0.84002,0.41998 1.07999,0.24002 1.07999,0.23999 H 288.12"
       style="fill:#000000;fill-opacity:1;fill-rule:nonzero;stroke:none"
       id="path2908" /><path
       d="m 281.10001,289.88 0.23999,-0.83999 0.41998,-0.66001 0.60001,-0.6 0.84002,-0.66 1.07999,-0.41999 1.07999,-0.24002 L 286.62,286.28 h 1.5 v 1.02002 l -1.26001,0.23999 -1.07999,0.23999 -1.07999,0.17999 -0.84002,0.24002 -0.65998,0.41999 -0.42001,0.42001 -0.42001,0.41998 V 289.88"
       style="fill:#000000;fill-opacity:1;fill-rule:nonzero;stroke:none"
       id="path2910" /><path
       d="m 288.12,293.72 h -1.5 l -1.26001,-0.24002 -1.07999,-0.41998 -1.07999,-0.42002 -0.84002,-0.41998 -0.60001,-0.66 -0.41998,-0.84 -0.23999,-0.84 h 1.25998 v 0.42002 l 0.84002,0.83996 0.65998,0.42002 0.84002,0.41998 1.07999,0.24002 1.07999,0.17999 H 288.12"
       style="fill:#000000;fill-opacity:1;fill-rule:nonzero;stroke:none"
       id="path2912" /><path
       d="m 281.10001,302.35999 0.23999,-0.84 0.41998,-0.60001 0.60001,-0.66 0.84002,-0.65997 L 284.28,299.17999 285.35999,299 286.62,298.75998 h 1.5 v 1.32001 h -1.26001 l -1.07999,0.17999 -1.07999,0.24002 -0.84002,0.41998 -0.65998,0.18003 -0.42001,0.65997 -0.42001,0.18002 v 0.41999"
       style="fill:#000000;fill-opacity:1;fill-rule:nonzero;stroke:none"
       id="path2914" /><path
       d="m 288.12,306.20001 h -1.5 l -1.26001,-0.24002 -1.07999,-0.42001 -1.07999,-0.41998 -0.84002,-0.41999 -0.60001,-0.6 -0.41998,-0.84003 -0.23999,-0.89999 h 1.25998 V 302.78 l 0.42001,0.47998 0.42001,0.42001 0.65998,0.42002 0.84002,0.41998 1.07999,0.18002 1.07999,0.23999 H 288.12"
       style="fill:#000000;fill-opacity:1;fill-rule:nonzero;stroke:none"
       id="path2916" /><path
       d="m 281.10001,296.23999 0.23999,-0.84 0.41998,-0.83999 0.60001,-0.66001 0.84002,-0.42001 1.07999,-0.41998 1.07999,-0.42002 1.26001,-0.23999 h 1.5 V 293.72 h -1.26001 l -1.07999,0.17999 -1.07999,0.23999 -0.84002,0.42002 -0.65998,0.41998 -0.42001,0.42001 -0.42001,0.42002 v 0.41998"
       style="fill:#000000;fill-opacity:1;fill-rule:nonzero;stroke:none"
       id="path2918" /><path
       d="M 288.12,300.07999 286.62,299.84 285.35999,299.60001 284.28,299.41998 283.20001,299 l -0.84002,-0.66 -0.60001,-0.60001 -0.41998,-0.66 -0.23999,-0.84 h 1.25998 V 296.66 l 0.42001,0.41999 0.42001,0.42001 0.65998,0.41998 0.84002,0.24002 1.07999,0.41999 h 1.07999 l 1.26001,0.17999"
       style="fill:#000000;fill-opacity:1;fill-rule:nonzero;stroke:none"
       id="path2920" /><path
       d="m 281.10001,283.70001 0.23999,-0.84002 0.41998,-0.84 0.60001,-0.60001 0.84002,-0.47998 1.07999,-0.42001 1.07999,-0.41998 1.26001,-0.18003 h 1.5 v 1.26001 h -1.26001 l -1.07999,0.23999 -1.07999,0.18003 -0.84002,0.41998 -0.65998,0.42001 -0.42001,0.41999 -0.42001,0.42001 v 0.42001"
       style="fill:#000000;fill-opacity:1;fill-rule:nonzero;stroke:none"
       id="path2922" /><path
       d="m 288.12,287.30002 h -1.5 l -1.26001,-0.18002 -1.07999,-0.24 -1.07999,-0.42001 -0.84002,-0.6 -0.60001,-0.65998 -0.41998,-0.6 -0.23999,-0.9 h 1.25998 V 284.12 l 0.42001,0.48001 0.42001,0.41998 0.65998,0.42001 0.84002,0.18 1.07999,0.23999 1.07999,0.18002 1.26001,0.23999"
       style="fill:#000000;fill-opacity:1;fill-rule:nonzero;stroke:none"
       id="path2924" /><path
       d="m 298.32001,266.12 -0.42002,0.42001 -23.16,-23.52002 0.84,-0.84 23.16,23.52002 -0.41998,0.41999"
       style="fill:#000000;fill-opacity:1;fill-rule:nonzero;stroke:none"
       id="path2926" /><path
       d="m 300.66,268.45999 -3.6,-1.25998 2.33999,-2.34002 1.26001,3.6"
       style="fill:#000000;fill-opacity:1;fill-rule:nonzero;stroke:none"
       id="path2928" /></g></svg>
