<?xml version="1.0" encoding="UTF-8" standalone="no"?>
<!-- Created with Inkscape (http://www.inkscape.org/) -->

<svg
   version="1.1"
   id="svg9"
   xml:space="preserve"
   width="131.1926mm"
   height="79.452606mm"
   viewBox="0 0 495.84606 300.2933"
   sodipodi:docname="kreis.svg"
   inkscape:version="1.1.1 (3bf5ae0d25, 2021-09-20)"
   xmlns:inkscape="http://www.inkscape.org/namespaces/inkscape"
   xmlns:sodipodi="http://sodipodi.sourceforge.net/DTD/sodipodi-0.dtd"
   xmlns="http://www.w3.org/2000/svg"
   xmlns:svg="http://www.w3.org/2000/svg"><defs
     id="defs13" /><sodipodi:namedview
     id="namedview11"
     pagecolor="#505050"
     bordercolor="#eeeeee"
     borderopacity="1"
     inkscape:pageshadow="0"
     inkscape:pageopacity="0"
     inkscape:pagecheckerboard="0"
     showgrid="false"
     fit-margin-top="5"
     fit-margin-left="5"
     fit-margin-right="5"
     fit-margin-bottom="5"
     inkscape:zoom="1.2105645"
     inkscape:cx="225.1016"
     inkscape:cy="83.845185"
     inkscape:window-width="1920"
     inkscape:window-height="1009"
     inkscape:window-x="-8"
     inkscape:window-y="-8"
     inkscape:window-maximized="1"
     inkscape:current-layer="g15"
     units="mm"
     inkscape:document-units="mm" /><g
     id="g15"
     inkscape:groupmode="layer"
     inkscape:label="V203"
     transform="matrix(1.3333333,0,0,-1.3333333,-121.4478,631.18136)"><path
       id="path141"
       style="fill:#000000;fill-opacity:1;fill-rule:nonzero;stroke:none;stroke-width:1.33333"
       d="m 68.078125,0 c -0.587252,0 -1.087794,0.11393073 -1.5,0.33984375 C 66.165919,0.5602467 65.796256,0.89352778 65.46875,1.3398438 V 0.19921875 H 64.080078 V 12.339844 h 1.525391 V 8.0664062 c 0.259746,0.3195843 0.589321,0.583586 0.990234,0.7929688 0.406559,0.2093828 0.862895,0.3144531 1.371094,0.3144531 0.694539,0 1.355643,-0.1901174 1.982422,-0.5703125 0.632425,-0.3857051 1.111947,-0.9360341 1.439453,-1.6523437 0.333153,-0.7218197 0.5,-1.5315455 0.5,-2.4296875 0,-0.8375312 -0.149946,-1.6068613 -0.449219,-2.3066406 C 71.14018,1.5095543 70.698581,0.96383016 70.111328,0.578125 69.524076,0.19241984 68.84607,0 68.078125,0 Z M 48.375,0.89648438 l -6,9.28124962 0.798828,0.398438 1.201172,0.800781 3.599609,-5.4941405 v 232.3749975 0.79883 h 1.199219 387.777342 l -6.49609,4.08008 0.79883,1.20117 0.80078,0.79883 9.27929,-6.08008 v -2 l -9.27929,-6.08008 -1.59961,2.08008 6.45312,4 H 50.455078 V 5.2734375 l 4,6.1035155 2,-1.199219 -6,-9.28124962 z M 67.933594,1.1660156 c 0.655012,0 1.216874,0.277467 1.685547,0.8339844 0.474319,0.5565174 0.710937,1.3951269 0.710937,2.5136719 0,1.1736457 -0.242903,2.0414881 -0.728516,2.6035156 -0.479965,0.5565174 -1.058729,0.8339844 -1.736328,0.8339844 -0.666305,0 -1.232499,-0.2705597 -1.701172,-0.8105469 -0.468672,-0.5399872 -0.703124,-1.3743411 -0.703124,-2.5039062 0,-1.1295652 0.247234,-1.9885472 0.74414,-2.578125 0.502553,-0.595088 1.07915,-0.8925782 1.728516,-0.8925782 z M 249.50391,34.574219 c -0.66631,0 -1.18592,0.120838 -1.5586,0.363281 -0.36703,0.236933 -0.62272,0.547889 -0.76953,0.933594 -0.10729,0.286524 -0.16211,0.724875 -0.16211,1.314453 v 0.933594 h -1.3457 v 1.158203 h 1.3457 v 7.621094 h 1.51758 v -7.621094 h 1.75195 v -1.158203 h -1.75195 v -0.808594 c 0,-0.528967 0.0951,-0.891132 0.28711,-1.083985 0.19199,-0.192852 0.5194,-0.289062 0.98242,-0.289062 0.28233,0 0.58223,0.02888 0.89844,0.08398 l 0.22851,-1.298828 c -0.51949,-0.09918 -0.99468,-0.148437 -1.42382,-0.148437 z m -71.21094,0.207031 4.81055,12.117188 h 1.68554 l 4.86133,-12.117188 h -1.67578 l -3.35547,8.802734 c -0.2541,0.661209 -0.47598,1.321213 -0.66797,1.982422 -0.17504,-0.617128 -0.3926,-1.277132 -0.65234,-1.982422 l -3.22852,-8.802734 z m 32.1582,0 v 4.347656 c -0.26539,-0.358155 -0.6097,-0.648737 -1.0332,-0.86914 -0.4235,-0.225913 -0.90714,-0.337891 -1.44922,-0.337891 -0.73971,0 -1.40927,0.190117 -2.00781,0.570313 -0.59855,0.380195 -1.04643,0.928221 -1.34571,1.644531 -0.29927,0.710799 -0.44921,1.504757 -0.44921,2.380859 0,0.898142 0.16468,1.694403 0.49218,2.388672 0.33316,0.688759 0.79794,1.225623 1.39649,1.611328 0.60419,0.385705 1.26529,0.578125 1.98242,0.578125 1.10674,0 1.94531,-0.436049 2.51562,-1.306641 v 1.109376 h 1.41407 V 34.78125 Z m 125.60938,2.191406 c -1.09545,0 -2.09892,0.245932 -3.01367,0.736328 -0.90912,0.484887 -1.61247,1.198403 -2.10938,2.140625 -0.49126,0.936713 -0.73828,2.035068 -0.73828,3.296875 0,1.157116 0.21755,2.239704 0.65234,3.248047 0.44044,1.008344 1.07836,1.779976 1.91406,2.314453 0.84136,0.528967 1.93128,0.792969 3.26954,0.792969 1.29308,0 2.38712,-0.344444 3.27929,-1.033203 0.89782,-0.694269 1.51884,-1.698717 1.86328,-3.015625 l -1.64453,-0.40625 c -0.22586,1.019364 -0.65685,1.788694 -1.29492,2.306641 -0.63807,0.517947 -1.41748,0.777343 -2.33789,0.777343 -0.75665,0 -1.46001,-0.190117 -2.10937,-0.570312 -0.64937,-0.380195 -1.12889,-0.95285 -1.43946,-1.71875 -0.30492,-0.77141 -0.45703,-1.672741 -0.45703,-2.703125 0,-0.798961 0.12893,-1.572896 0.38867,-2.322266 0.25975,-0.75488 0.70959,-1.356418 1.34766,-1.802734 0.64372,-0.446316 1.4422,-0.669922 2.39648,-0.669922 0.83006,0 1.51868,0.20128 2.06641,0.603516 0.54773,0.402235 0.96593,1.044169 1.25391,1.925781 l 1.61718,-0.371094 c -0.33315,-1.118545 -0.92253,-1.986387 -1.76953,-2.603515 -0.847,-0.617129 -1.8925,-0.925782 -3.13476,-0.925782 z M 193.5332,37.921875 c -1.24226,0 -2.25201,0.407165 -3.03125,1.222656 -0.77924,0.815491 -1.16992,1.962754 -1.16992,3.439453 0,1.427109 0.3844,2.536628 1.15235,3.330078 0.77359,0.787941 1.81714,1.181641 3.13281,1.181641 1.04463,0 1.90422,-0.248234 2.57617,-0.744141 0.67195,-0.495906 1.13241,-1.191701 1.38086,-2.089843 l -1.57617,-0.191407 c -0.23152,0.628149 -0.54419,1.086524 -0.93946,1.373047 -0.39526,0.286524 -0.87262,0.429688 -1.43164,0.429688 -0.751,0 -1.3783,-0.257095 -1.88086,-0.769531 -0.50255,-0.512437 -0.78142,-1.250581 -0.83789,-2.214844 h 6.70703 c 0.006,-0.176322 0.01,-0.308323 0.01,-0.396484 0,-1.44915 -0.38223,-2.574087 -1.14453,-3.373047 -0.7623,-0.798961 -1.74453,-1.197266 -2.94727,-1.197266 z m 8.88672,0 c -0.35574,0 -0.68315,0.09851 -0.98242,0.296875 -0.29363,0.198363 -0.61475,0.609784 -0.96484,1.232422 v -1.332031 h -1.37305 v 8.779297 h 1.52539 v -4.595704 c 0,-0.628148 0.0845,-1.207361 0.25391,-1.736328 0.11293,-0.347134 0.30296,-0.617694 0.56836,-0.810547 0.26539,-0.198362 0.56333,-0.296875 0.89648,-0.296875 0.37268,0 0.74646,0.107373 1.11914,0.322266 l 0.52539,-1.380859 c -0.53078,-0.319585 -1.05451,-0.478516 -1.56836,-0.478516 z m 15.38281,0 c -0.77359,0 -1.45571,0.10507 -2.04296,0.314453 -0.58726,0.203873 -1.03514,0.497107 -1.34571,0.882813 -0.31056,0.380195 -0.5344,0.883221 -0.66992,1.505859 l 1.49219,0.197266 c 0.16375,-0.622639 0.41315,-1.054432 0.75195,-1.296875 0.34445,-0.247954 0.87663,-0.373047 1.59375,-0.373047 0.76795,0 1.34671,0.169745 1.73633,0.505859 0.28798,0.247953 0.43164,0.673189 0.43164,1.279297 0,0.0551 -0.002,0.184799 -0.008,0.388672 -0.58161,0.198363 -1.48778,0.37041 -2.71875,0.513672 -0.60419,0.07163 -1.0562,0.145515 -1.35547,0.222656 -0.40656,0.110201 -0.77406,0.273388 -1.10156,0.488281 -0.32186,0.214893 -0.58383,0.50122 -0.78711,0.859375 -0.19764,0.352645 -0.29688,0.744043 -0.29688,1.173828 0,0.73284 0.26414,1.334728 0.79492,1.808594 0.53079,0.468356 1.29114,0.703125 2.2793,0.703125 0.59855,0 1.15824,-0.09621 1.67774,-0.289062 0.52513,-0.192853 1.07009,-0.523832 1.63476,-0.992188 0.0452,0.413256 0.14658,0.77542 0.30469,1.083985 h 1.59179 c -0.19198,-0.336115 -0.32091,-0.687117 -0.38867,-1.050782 -0.0621,-0.369175 -0.0937,-1.245878 -0.0937,-2.628906 v -1.982422 c 0,-0.661209 -0.0254,-1.119583 -0.0762,-1.373047 -0.0904,-0.407745 -0.24874,-0.743329 -0.47461,-1.007812 -0.22586,-0.269994 -0.57863,-0.4936 -1.05859,-0.669922 -0.47997,-0.176322 -1.10315,-0.263672 -1.8711,-0.263672 z m 9.56836,0 c -0.59854,0 -1.13093,0.132001 -1.59961,0.396484 -0.46867,0.258974 -0.84462,0.603418 -1.12695,1.033203 v -1.232421 h -1.36328 v 8.779297 h 1.52344 V 42.34375 c 0,-0.798961 0.0823,-1.411662 0.24609,-1.835938 0.16375,-0.424275 0.42572,-0.746393 0.78711,-0.966796 0.36703,-0.220403 0.76617,-0.330078 1.19531,-0.330078 0.56467,-10e-7 0.9703,0.165489 1.21875,0.496093 0.24846,0.330605 0.37305,0.827073 0.37305,1.488281 v 5.703126 h 1.52539 v -5.09961 c 0,-0.903652 0.2091,-1.561004 0.62695,-1.96875 0.41786,-0.413255 0.9418,-0.61914 1.57422,-0.61914 0.3501,0 0.65627,0.08044 0.91602,0.240234 0.25974,0.159792 0.43721,0.372235 0.5332,0.636719 0.10164,0.258973 0.15235,0.684209 0.15234,1.279297 v 5.53125 h 1.51563 v -6.025391 c 0,-1.002834 -0.23878,-1.745233 -0.71875,-2.224609 -0.47997,-0.484887 -1.16642,-0.726563 -2.05859,-0.726563 -1.14063,0 -2.06782,0.512236 -2.7793,1.537109 -0.17505,-0.484886 -0.4771,-0.862819 -0.90625,-1.132812 -0.4235,-0.269994 -0.96846,-0.404297 -1.63477,-0.404297 z m 13.99414,0 c -0.58725,0 -1.08584,0.111978 -1.49804,0.337891 -0.41221,0.220403 -0.78187,0.553684 -1.10938,1 v -1.140625 h -1.39062 v 12.142578 h 1.52539 v -4.273438 c 0.25974,0.319585 0.58932,0.583586 0.99023,0.792969 0.40656,0.209383 0.86485,0.314453 1.37305,0.314453 0.69454,0 1.35564,-0.190117 1.98242,-0.570312 0.63243,-0.385706 1.11195,-0.936035 1.43945,-1.652344 0.33316,-0.72182 0.5,-1.531546 0.5,-2.429688 0,-0.837531 -0.14994,-1.606861 -0.44921,-2.30664 -0.29928,-0.70529 -0.74283,-1.251014 -1.33008,-1.636719 -0.58725,-0.385705 -1.26526,-0.578125 -2.03321,-0.578125 z m 23.57618,0 c -1.24792,0 -2.20067,0.48105 -2.86133,1.445313 v -1.248047 h -1.37305 v 8.779297 h 1.52539 v -4.794922 c 0,-1.124055 0.23445,-1.886827 0.70313,-2.289063 0.47432,-0.402235 1.03618,-0.603515 1.68554,-0.603515 0.40656,0 0.75932,0.09161 1.0586,0.273437 0.30492,0.176322 0.51618,0.415696 0.63476,0.71875 0.11858,0.297544 0.17774,0.749361 0.17774,1.355469 v 5.339844 h 1.52539 V 41.5 c 0,-0.688759 -0.0295,-1.169809 -0.0859,-1.445312 -0.0904,-0.424276 -0.24874,-0.791046 -0.47461,-1.09961 -0.22587,-0.308564 -0.56606,-0.556798 -1.02344,-0.74414 -0.45173,-0.192853 -0.9501,-0.289063 -1.49218,-0.289063 z m 8.35547,0 c -0.79618,0 -1.49109,0.19242 -2.08399,0.578125 -0.58725,0.385705 -1.03709,0.933732 -1.34766,1.644531 -0.31056,0.70529 -0.46484,1.476922 -0.46484,2.314453 0,1.217727 0.33803,2.262221 1.01563,3.132813 0.67759,0.870592 1.63447,1.306641 2.87109,1.306641 0.99381,-10e-7 1.82393,-0.384491 2.49023,-1.150391 0.006,0.969773 -0.0303,1.607102 -0.10937,1.910156 -0.13552,0.495907 -0.39533,0.880746 -0.7793,1.15625 -0.38397,0.275504 -0.92893,0.414063 -1.63476,0.414063 -0.65502,0 -1.17246,-0.138559 -1.55079,-0.414063 -0.28233,-0.203873 -0.45351,-0.528293 -0.51562,-0.974609 L 269.70508,47.625 c -0.0226,0.947733 0.29637,1.654691 0.95703,2.123047 0.66066,0.473866 1.52674,0.710937 2.59961,0.710937 0.90346,0 1.66381,-0.163536 2.2793,-0.49414 0.62113,-0.330605 1.07313,-0.782421 1.35546,-1.355469 0.28798,-0.567538 0.43164,-1.535845 0.43164,-2.902344 v -7.58789 h -1.40624 v 1.058593 c -0.6889,-0.837531 -1.56343,-1.255859 -2.625,-1.255859 z m -22.22071,0.197266 v 5.439453 c 0,0.633658 0.0316,1.096638 0.0937,1.388672 0.0904,0.435295 0.24463,0.804367 0.46485,1.107422 0.22586,0.297543 0.56801,0.545777 1.02539,0.74414 0.46302,0.198363 0.95944,0.296875 1.49023,0.296875 1.20274,0 2.15528,-0.496468 2.85547,-1.488281 v 1.291016 h 1.36328 v -8.779297 h -1.52539 v 4.703125 c 0,0.74937 -0.0845,1.322024 -0.25391,1.71875 -0.16375,0.391215 -0.44674,0.704123 -0.84765,0.935546 -0.40092,0.225914 -0.82973,0.337891 -1.28711,0.337891 -0.45738,0 -0.84178,-0.109675 -1.15235,-0.330078 -0.31056,-0.225913 -0.51338,-0.534566 -0.60937,-0.925781 -0.0621,-0.269994 -0.0918,-0.793392 -0.0918,-1.570313 v -4.86914 z m -123.99023,0.259765 v 12.117188 h 4.73633 c 0.79053,0 1.45596,-0.06698 1.99804,-0.199219 0.54773,-0.137752 1.0019,-0.339032 1.36328,-0.603516 0.36139,-0.264483 0.66345,-0.63816 0.90625,-1.123047 0.24846,-0.490396 0.37305,-1.020353 0.37305,-1.58789 0,-0.70529 -0.20282,-1.316038 -0.60937,-1.833984 -0.40092,-0.517947 -0.97751,-0.884717 -1.72852,-1.09961 0.58161,-0.281014 1.01671,-0.650086 1.30469,-1.107422 0.28798,-0.457336 0.43164,-0.944943 0.43164,-1.46289 0,-0.556518 -0.16273,-1.088777 -0.49024,-1.595704 -0.32186,-0.512436 -0.77169,-0.888416 -1.34765,-1.130859 -0.57031,-0.247953 -1.33066,-0.373047 -2.2793,-0.373047 z m 114.13672,0.708985 c 0.65501,0 1.21687,0.277467 1.68554,0.833984 0.47432,0.556517 0.71094,1.393174 0.71094,2.511719 0,1.173645 -0.2429,2.041488 -0.72852,2.603515 -0.47996,0.556518 -1.05872,0.835938 -1.73632,0.835938 -0.66631,0 -1.23446,-0.27056 -1.70313,-0.810547 -0.46867,-0.539987 -0.70312,-1.374341 -0.70312,-2.503906 0,-1.129565 0.24918,-1.988547 0.74609,-2.578125 0.50255,-0.595088 1.07915,-0.892578 1.72852,-0.892578 z m -47.67188,0.05664 c 0.77359,0 1.40306,0.286328 1.88867,0.859375 0.31622,0.369175 0.50842,0.92376 0.57617,1.66211 h -5.02343 c 0.0508,-0.765901 0.31279,-1.378602 0.78711,-1.835938 0.47996,-0.457336 1.0713,-0.685547 1.77148,-0.685547 z m 14.5625,0.0078 c 0.69454,0 1.27959,0.281722 1.75391,0.84375 0.47432,0.562027 0.71093,1.443335 0.71093,2.644531 10e-6,1.090995 -0.23445,1.904976 -0.70312,2.439453 -0.46303,0.528967 -1.02705,0.792969 -1.69336,0.792969 -0.66066,0 -1.23509,-0.27942 -1.7207,-0.835938 -0.48562,-0.556517 -0.72852,-1.395476 -0.72852,-2.519531 0,-1.162625 0.226,-2.0147 0.67774,-2.554687 0.45738,-0.539988 1.02552,-0.810547 1.70312,-0.810547 z m 65.29297,0 c 0.68889,0 1.27611,0.272862 1.76172,0.818359 0.49126,0.545497 0.73633,1.355223 0.73633,2.429688 0,1.124055 -0.23662,1.951501 -0.71094,2.480468 -0.47432,0.523457 -1.06153,0.785157 -1.76172,0.785157 -0.70583,0 -1.29305,-0.264002 -1.76172,-0.792969 -0.46867,-0.528967 -0.70312,-1.369879 -0.70312,-2.521485 0,-1.057934 0.23662,-1.854194 0.71093,-2.388671 0.47432,-0.539988 1.05092,-0.810547 1.72852,-0.810547 z m -144.67578,0.65625 h 2.48047 c 0.89217,0 1.52164,0.05812 1.88867,0.173828 0.36703,0.110201 0.65002,0.320342 0.84766,0.628906 0.19763,0.303054 0.29687,0.654405 0.29687,1.056641 0,0.424275 -0.10769,0.77758 -0.32226,1.058593 -0.20893,0.281014 -0.52161,0.482295 -0.93946,0.603516 -0.31621,0.09367 -0.83994,0.140625 -1.56836,0.140625 h -2.68359 z m 91.01172,2.683594 v 0.544921 c 0,0.655699 -0.0823,1.152167 -0.2461,1.488282 -0.21457,0.435295 -0.55043,0.779739 -1.00781,1.033203 -0.45738,0.247953 -0.98111,0.371094 -1.56836,0.371094 -0.5929,0 -1.04295,-0.132001 -1.35351,-0.396485 -0.30492,-0.264483 -0.45899,-0.595462 -0.45899,-0.992187 0,-0.258974 0.0717,-0.491789 0.21289,-0.701172 0.14117,-0.214893 0.34182,-0.37808 0.60157,-0.488282 0.25974,-0.110201 0.70329,-0.208713 1.33007,-0.296874 1.10675,-0.154283 1.93687,-0.342098 2.49024,-0.5625 z m -91.01172,2.408203 h 2.87109 c 0.79053,0 1.39465,0.06928 1.8125,0.207031 0.4235,0.132242 0.75308,0.36701 0.99024,0.703125 0.23716,0.330604 0.35547,0.720049 0.35547,1.171875 0,0.385705 -0.0804,0.727847 -0.24415,1.02539 -0.16375,0.292034 -0.37285,0.51564 -0.62695,0.669922 -0.2541,0.154282 -0.57089,0.263958 -0.94922,0.330078 -0.21457,0.03857 -0.5864,0.05859 -1.11718,0.05859 h -3.0918 z m -94.353517,6.759765 v 4.347656 c -0.265393,-0.358154 -0.609704,-0.646784 -1.033203,-0.867187 -0.423499,-0.225913 -0.905186,-0.339844 -1.447266,-0.339844 -0.739712,0 -1.409266,0.190118 -2.007812,0.570313 -0.598546,0.380195 -1.048384,0.928221 -1.347656,1.644531 -0.299273,0.7108 -0.449219,1.504758 -0.449219,2.380859 0,0.898142 0.164681,1.694403 0.492187,2.388672 0.333153,0.688759 0.797939,1.225623 1.396485,1.611328 0.604192,0.385706 1.265296,0.578125 1.982422,0.578125 1.106745,0 1.945312,-0.434095 2.515625,-1.304687 v 1.107422 h 1.414062 V 51.660156 Z m 195.357427,0.835938 -1.19922,2 5.81054,3.601562 h -97.25195 v -0.40039 l -0.39844,-0.400391 v -0.400391 l -0.48047,-0.40039 -0.40039,-0.398438 -0.40039,-0.40039 -0.40039,-0.400391 h -0.39844 l -0.40039,-0.400391 h -3.20117 l -0.39844,0.400391 h -0.40039 l -0.40039,0.400391 h -0.40039 v 0.40039 h -0.40039 v 0.398438 h -0.39844 v 0.40039 l -0.40039,0.400391 v 0.800781 l -0.40039,0.398438 v 2 l 0.40039,0.40039 v 0.88086 h 0.40039 v 0.40039 l 0.39844,0.398438 0.40039,0.40039 0.40039,0.400391 h 0.10157 l -17.06836,51.05274 -7.99219,6.54687 1.19922,2 5.28906,-4.05078 -14.298828,42.77149 h -0.269531 l -0.400391,0.4004 h -1.201172 v 0.39843 H 94.375 v 0.40039 h -0.400391 l -0.40039,0.4004 H 93.09375 v 0.40039 l -0.398438,0.40039 v 0.39843 l -0.40039,0.40039 v 0.4004 2.80078 l 0.40039,0.47851 v 0.40039 l 0.398438,0.40039 v 0.40039 h 0.480469 v 0.40039 h 0.40039 v 0.39844 H 94.375 l 0.400391,0.40039 h 0.798828 v 0.40039 h 2.40039 L 98.375,170.97656 h 0.798828 l 0.400391,-0.40039 0.40039,-0.39844 0.400391,-0.40039 0.40039,-0.40039 v -0.40039 h 0.39844 v -0.8789 l 0.40039,-0.40039 h 126.96094 l 9.27929,6.08007 0.80078,-1.20117 0.79883,-0.79883 -6.49609,-4.08007 H 251.49414 418.375 v -1.20118 -0.13281 l 0.40039,-0.66601 -0.40039,-0.26758 v -0.13281 h -0.19922 l -12.68164,-8.48047 -12.95898,-9.59961 -6.40039,-4.87891 -6.08008,-5.20117 -6,-5.67969 -5.67969,-5.59961 -4.82422,-6.01172 -0.77539,-10.54882 h -2.48047 l 0.48633,6.85937 -2.88672,-3.66016 -4.40039,-7.19921 -2.0293,-3.48047 -1.25,-2.199222 -3.59961,-7.279297 -2.21875,-4.990235 -2.58203,-7.490234 -3.08984,-9.496094 -0.36719,-1.363281 -1.19726,-5.220703 h 0.17382 v -0.400391 h 0.4004 l 0.40039,-0.400391 0.40039,-0.40039 v -0.398438 h 0.39843 v -0.40039 l 0.40039,-0.480469 v -0.800781 h 0.4004 v -2 l -0.4004,-0.398438 v -0.800781 h -0.40039 v -0.400391 l -0.39843,-0.40039 v -0.398438 h -0.40039 v -0.40039 h -0.40039 l -0.4004,-0.400391 h -0.40039 v -0.400391 h -2 -2 v 0.400391 h -0.39843 l -0.40039,0.400391 -0.40039,0.40039 h -0.4004 v 0.398438 l -0.40039,0.40039 v 0.400391 h -0.39843 v 0.800781 h -91.76368 z m -212.373052,1.3125 v 3.298828 h -3.378906 v 1.388672 h 3.378906 v 3.322265 h 1.441406 v -3.322265 h 3.378907 v -1.388672 h -3.378907 v -3.298828 z m 328.060552,0.25 v 1.429687 h 4.09179 v 10.6875 h 1.64258 v -10.6875 h 4.10742 v -1.429687 z m 35.92187,0 v 4.347656 c -0.26539,-0.358155 -0.6097,-0.646785 -1.0332,-0.867188 -0.4235,-0.225913 -0.90519,-0.339843 -1.44727,-0.339843 -0.73971,0 -1.40927,0.190117 -2.00781,0.570312 -0.59855,0.380195 -1.04643,0.928222 -1.3457,1.644531 -0.29928,0.7108 -0.44922,1.504758 -0.44922,2.38086 0,0.898142 0.16273,1.694402 0.49023,2.388672 0.33315,0.688759 0.79989,1.225623 1.39844,1.611328 0.60419,0.385705 1.2653,0.578125 1.98242,0.578125 1.10675,0 1.94336,-0.434096 2.51367,-1.304688 v 1.107422 h 1.41602 V 54.058594 Z m 2.80664,0 v 1.429687 h 4.0918 v 10.6875 h 1.64258 v -10.6875 h 4.10742 v -1.429674 z m -380.1523431,0.7422 c -0.5872524,0 -1.087794,0.113931 -1.5,0.339844 -0.4122061,0.220403 -0.7818689,0.553684 -1.109375,1 V 55 H 0 v 12.140625 h 1.5253906 v -4.273437 c 0.2597463,0.319584 0.5893217,0.585539 0.9902344,0.794921 0.4065594,0.209383 0.8648477,0.3125 1.3730469,0.3125 0.6945389,0 1.3536897,-0.190117 1.9804687,-0.570312 0.6324257,-0.385705 1.1139001,-0.936034 1.4414063,-1.652344 0.3331528,-0.72182 0.4980469,-1.531545 0.4980469,-2.429687 0,-0.837532 -0.1479928,-1.606862 -0.4472657,-2.306641 C 7.0620553,56.310336 6.6185024,55.764611 6.03125,55.378906 5.4439976,54.993201 4.7659923,54.800781 3.9980469,54.800781 Z m 37.9199221,0 c -0.587253,0 -1.087794,0.113931 -1.5,0.339844 -0.412206,0.220403 -0.781869,0.553684 -1.109375,1 V 55 h -1.388672 v 12.140625 h 1.52539 v -4.273437 c 0.259747,0.319584 0.589322,0.585539 0.990235,0.794921 0.406559,0.209383 0.864848,0.3125 1.373047,0.3125 0.694539,0 1.353689,-0.190117 1.980468,-0.570312 0.632426,-0.385705 1.113901,-0.936034 1.441407,-1.652344 0.333153,-0.72182 0.5,-1.531545 0.5,-2.429687 0,-0.837532 -0.149946,-1.606862 -0.449219,-2.306641 -0.299273,-0.705289 -0.742826,-1.251014 -1.330078,-1.636719 -0.587253,-0.385705 -1.265258,-0.578125 -2.033203,-0.578125 z M 3.8535156,55.966797 c 0.6550123,0 1.2168743,0.277467 1.6855469,0.833984 C 6.0133818,57.357299 6.25,58.195908 6.25,59.314453 c 0,1.173646 -0.242903,2.041488 -0.7285156,2.603516 -0.4799659,0.556517 -1.0587292,0.833984 -1.7363282,0.833984 -0.6663056,0 -1.2324992,-0.27056 -1.7011718,-0.810547 -0.4686726,-0.539987 -0.703125,-1.374341 -0.703125,-2.503906 0,-1.129565 0.2472347,-1.988547 0.7441406,-2.578125 0.5025526,-0.595088 1.07915,-0.892578 1.7285156,-0.892578 z m 37.9199224,0 c 0.655012,0 1.216874,0.277467 1.685546,0.833984 0.47432,0.556518 0.712891,1.395127 0.712891,2.513672 0,1.173646 -0.242903,2.041488 -0.728516,2.603516 -0.479966,0.556517 -1.058729,0.833984 -1.736328,0.833984 -0.666305,0 -1.234452,-0.27056 -1.703125,-0.810547 -0.468672,-0.539987 -0.703125,-1.374341 -0.703125,-2.503906 0,-1.129565 0.249188,-1.988547 0.746094,-2.578125 0.502553,-0.595088 1.077197,-0.892578 1.726563,-0.892578 z m -9.734376,0.06641 c 0.694539,0 1.279587,0.279769 1.753907,0.841797 0.474319,0.562028 0.710937,1.443335 0.710937,2.644531 0,1.090995 -0.234452,1.904976 -0.703125,2.439453 -0.463026,0.528967 -1.027053,0.792969 -1.693359,0.792969 -0.660659,0 -1.233138,-0.277467 -1.71875,-0.833984 -0.485613,-0.556518 -0.728516,-1.39743 -0.728516,-2.521485 0,-1.162625 0.226002,-2.0147 0.677735,-2.554687 0.457379,-0.539987 1.023573,-0.808594 1.701171,-0.808594 z m 332.281248,0.173828 v 3.298828 h -3.3789 v 1.388672 h 3.3789 v 3.322266 h 1.43946 v -3.322266 h 3.38085 v -1.388672 h -3.38085 v -3.298828 z m 14.6875,2.22461 c 0.69454,0 1.27764,0.279769 1.75196,0.841797 0.47431,0.562027 0.71289,1.443335 0.71289,2.644531 0,1.090994 -0.23446,1.904976 -0.70313,2.439453 -0.46302,0.528967 -1.02901,0.792969 -1.69531,0.792969 -0.66066,0 -1.23314,-0.277467 -1.71875,-0.833985 -0.48561,-0.556517 -0.72852,-1.397429 -0.72852,-2.521484 0,-1.162626 0.226,-2.0147 0.67774,-2.554688 0.45738,-0.539987 1.02552,-0.808593 1.70312,-0.808593 z m -324.152341,0.86523 h 4 z m 6,0 h 3.679687 z m 5.679687,0 h 3.59961 z m 5.679688,0 h 3.599609 z m 5.599609,0 h 3.599609 z m 5.679688,0 h 4 z m 5.599609,0 h 4 z m 6.080078,0 h 3.601563 z m 5.601562,0 h 3.67969 z m 5.67969,0 h 3.59961 z m 5.59961,0 h 4.08008 z m 5.67969,0 h 4 z m 5.5996,0 h 4.08008 z m 13.75977,1.199219 h 97.9375 l -6.49609,4.080078 0.79882,0.800781 0.4004,1.199219 9.67968,-6.080078 h 91.1211 v 0.800781 l 0.39843,0.480469 v 0.40039 h 0.40039 v 0.398438 l 0.4004,0.40039 h 0.40039 v 0.400391 h 0.40039 v 0.400391 h 0.79882 l 0.4004,0.40039 h 0.96484 l 1.03516,4.798828 0.1582,0.5 0.24219,1.09961 3.19921,10.080078 1.95899,4.939453 0.12109,0.341797 0.23438,0.554688 1.36523,3.445312 0.79688,1.691406 0.80468,1.908203 3.19922,7.279301 4.08008,6.48047 4,6.40039 3.19336,4.41406 -6.79297,-2.33399 -0.40039,0.79883 -0.48047,1.20117 9.83789,3.37891 5.52344,6.30078 5.59961,5.59961 6.08008,5.67969 6.47851,5.20117 6,5.2793 13.28125,9.27929 9.875,6.80079 h -162.5957 -17.88672 l 5.80664,-3.59961 -1.59961,-2 -8.66015,5.59961 H 101.17383 v -0.80079 l -0.39844,-0.39843 v -0.40039 H 100.375 v -0.40039 h -0.400391 v -0.4004 h -0.40039 v -0.40039 h -0.128907 l 14.445308,-43.20703 1.84376,6.96875 1.19921,-0.40039 1.20118,-0.48047 -2.73047,-10.61133 16.91211,-50.587886 h 1.89843 v -0.40039 h 0.79883 v -0.400391 h 0.40039 l 0.40039,-0.400391 0.40039,-0.40039 v -0.398438 h 0.48047 v -0.40039 l 0.39844,-0.480469 z m -56.392578,4.841797 v 1.43164 h 4.091797 v 10.685547 h 1.642578 V 66.769531 h 4.109375 v -1.43164 z m 31.039058,0 v 4.347656 c -0.26539,-0.358155 -0.6097,-0.646785 -1.0332,-0.867188 -0.4235,-0.225913 -0.90519,-0.33789 -1.44726,-0.33789 -0.73972,0 -1.40927,0.190117 -2.00782,0.570312 -0.59854,0.380195 -1.04838,0.928222 -1.34765,1.644531 -0.29928,0.7108 -0.44727,1.502805 -0.44727,2.378907 0,0.898142 0.16273,1.694402 0.49024,2.388672 0.33315,0.688759 0.79989,1.227576 1.39843,1.613281 0.6042,0.385705 1.26335,0.578125 1.98047,0.578125 1.10675,0 1.94531,-0.436049 2.51563,-1.306641 v 1.107422 h 1.41601 V 65.337891 Z m 3.20704,0 v 1.43164 h 4.09179 v 10.685547 h 1.64258 V 66.769531 h 4.10742 v -1.43164 z m 17.66796,0.03906 v 3.599609 z m -33.054683,2.111328 v 3.296875 h -3.378906 v 1.388672 h 3.378906 v 3.322266 H 101 v -3.322266 h 3.37891 v -1.38867 H 101 v -3.296875 z m 9.841793,2.222657 c 0.69454,0 1.27959,0.281722 1.75391,0.84375 0.47432,0.562027 0.71094,1.443335 0.71094,2.644531 0,1.090994 -0.23445,1.903023 -0.70313,2.4375 -0.46302,0.528967 -1.02705,0.792969 -1.69336,0.792969 -0.66066,-10e-7 -1.23313,-0.277467 -1.71875,-0.833985 -0.48561,-0.556517 -0.72851,-1.397429 -0.72851,-2.521484 0,-1.162626 0.226,-2.012747 0.67773,-2.552735 0.45738,-0.539987 1.02357,-0.810546 1.70117,-0.810546 z m 23.21289,1.265624 v 3.679688 z m 0,5.679688 v 3.601562 z m 0,5.601562 v 4.080079 z m 0,5.679688 v 4 z m 0,5.599609 v 4.080079 z m 0,6.080079 v 3.599614 z m 0,5.679694 v 3.5996 z m 0,5.5996 v 3.59961 z m 0,5.67969 v 4 z m 0,5.60156 v 4.08008 z m 0,6.08008 v 3.59961 z m 0,5.59961 v 3.67969 z m 0,5.67969 v 3.59961 z m 0,5.59961 v 4.08008 z m -51.113277,4.04297 v 1.42969 h 4.089844 v 10.6875 h 1.644531 v -10.6875 h 4.107422 v -1.42969 z m 51.113277,1.63672 v 4 z m 0,5.60156 v 4.07812 z m 289.44532,2.44141 v 1.42968 h 4.09179 v 10.6875 h 1.64258 v -10.6875 h 4.10742 v -1.42968 z m -382.142581,2.74023 c -0.587253,0 -1.087794,0.11393 -1.5,0.33984 -0.412206,0.22041 -0.781869,0.55369 -1.109375,1 v -1.14062 h -1.388672 v 12.14062 h 1.523437 v -4.27343 c 0.259747,0.31958 0.591275,0.58553 0.992188,0.79492 0.406559,0.20938 0.862894,0.3125 1.371094,0.3125 0.694539,0 1.355642,-0.19012 1.982421,-0.57032 0.632426,-0.3857 1.111947,-0.93603 1.439454,-1.65234 0.333152,-0.72182 0.5,-1.53154 0.5,-2.42969 0,-0.83753 -0.149946,-1.60686 -0.449219,-2.30664 -0.299273,-0.70529 -0.740873,-1.25101 -1.328125,-1.63672 -0.587253,-0.3857 -1.265258,-0.57812 -2.033203,-0.57812 z m -0.144531,1.16601 c 0.655012,10e-6 1.216874,0.27747 1.685546,0.83399 0.47432,0.55652 0.710938,1.39513 0.710938,2.51367 0,1.17365 -0.242903,2.04149 -0.728516,2.60352 -0.479966,0.55651 -1.058729,0.83398 -1.736328,0.83398 -0.666306,0 -1.232499,-0.27056 -1.701172,-0.81055 -0.468672,-0.53998 -0.703125,-1.37434 -0.703125,-2.5039 0,-1.12957 0.247235,-1.98855 0.744141,-2.57813 0.502552,-0.59508 1.07915,-0.89258 1.728516,-0.89258 z m 15.082031,3.73047 h 4 z m 6,0 h 3.679687 z m 5.679687,0 h 3.59961 z m 5.679688,0 h 3.599609 z m 5.599609,0 h 3.599609 z m 5.679688,0 h 4 z m 49.121089,1.60157 v 3.67968 z m 279.89844,5.32226 v 12.11524 h 4.48047 c 0.75101,0 1.41428,-0.0693 1.99024,-0.20704 0.5816,-0.13775 1.07586,-0.33707 1.48242,-0.60156 0.4122,-0.26999 0.79032,-0.63676 1.13476,-1.09961 0.34445,-0.46835 0.62744,-1.05873 0.84766,-1.76953 0.22022,-0.7108 0.33008,-1.52513 0.33008,-2.44531 0,-1.07998 -0.16468,-2.03942 -0.49219,-2.87695 -0.32186,-0.84305 -0.80983,-1.53424 -1.46484,-2.07422 -0.50256,-0.41877 -1.10884,-0.70935 -1.82032,-0.86914 -0.5082,-0.11571 -1.24536,-0.17188 -2.21093,-0.17188 z m -279.89844,0.35742 v 3.59961 z m -36.695308,0.8418 -4.767578,12.11719 h 1.74414 l 1.363282,-3.66992 h 5.191406 l 1.449218,3.66992 h 1.87109 l -5.082027,-12.11719 z m 318.236328,0.23047 h 2.60937 c 0.97688,0 1.68457,0.0827 2.125,0.24805 0.60984,0.23142 1.12729,0.68784 1.55079,1.37109 0.42914,0.67774 0.64453,1.65065 0.64453,2.91797 0,0.91467 -0.10986,1.69321 -0.33008,2.33789 -0.21457,0.63917 -0.51858,1.1491 -0.9082,1.5293 -0.27669,0.26999 -0.64852,0.48013 -1.11719,0.6289 -0.46303,0.14877 -1.10311,0.22266 -1.92188,0.22266 h -2.65234 z m -317.388672,1.04297 c 0.191986,0.6557 0.485593,1.49235 0.88086,2.51172 l 1.294921,3.35547 h -4.208984 l 1.363281,-3.55274 c 0.28798,-0.7659 0.511816,-1.53753 0.669922,-2.31445 z m 79.919922,2.32812 v 12.11719 h 1.64258 v -4.19922 l 2.0332,-1.93359 4.41992,6.13281 h 2.16992 l -5.4375,-7.20703 5.20899,-4.91016 h -2.22852 l -6.16601,6.00977 v -6.00977 z m 35.32227,0 v 4.34766 c -0.2654,-0.35816 -0.61166,-0.64679 -1.03516,-0.86719 -0.4235,-0.22591 -0.90519,-0.33984 -1.44727,-0.33984 -0.73971,0 -1.40926,0.19012 -2.00781,0.57031 -0.59854,0.3802 -1.04643,0.93018 -1.3457,1.64648 -0.29927,0.7108 -0.44922,1.50281 -0.44922,2.37891 0,0.89814 0.16273,1.6944 0.49023,2.38867 0.33316,0.68876 0.7999,1.22758 1.39844,1.61328 0.60419,0.38571 1.2653,0.57813 1.98242,0.57813 1.10675,0 1.94532,-0.43605 2.51563,-1.30664 v 1.10742 h 1.41406 V 178.2207 Z m 44.66601,0 v 1.71094 h 1.52344 v -1.71094 z m -2.61523,0.27344 -1.51758,0.89258 v 2.17383 h -1.11719 v 1.1582 h 1.11719 v 5.04883 c 0,0.89263 0.0633,1.47875 0.1875,1.75976 0.12423,0.27551 0.33766,0.49911 0.64258,0.66993 0.30492,0.17081 0.73569,0.25585 1.28906,0.25585 0.3388,10e-6 0.72124,-0.0427 1.15039,-0.13085 l -0.21875,-1.31446 c -0.27669,0.0386 -0.50052,0.0566 -0.66992,0.0566 -0.22587,0 -0.40117,-0.0358 -0.52539,-0.10742 -0.11858,-0.0716 -0.20525,-0.16784 -0.26172,-0.28906 -0.0508,-0.12122 -0.0762,-0.39408 -0.0762,-0.81836 v -5.13086 h 1.5332 v -1.1582 h -1.5332 z m -121.44532,0.96289 v 4 z m 58.81641,1.9043 c -1.11239,0 -2.05453,0.32637 -2.82812,0.97656 -0.92606,0.78243 -1.39063,1.98586 -1.39063,3.61133 0,1.48221 0.38852,2.61831 1.16211,3.40625 0.77924,0.78794 1.79744,1.18164 3.05664,1.18164 0.78489,0 1.50731,-0.17896 2.16797,-0.53711 0.66631,-0.35815 1.17313,-0.86118 1.51758,-1.50586 0.35009,-0.65019 0.52343,-1.5384 0.52343,-2.66797 0,-1.39405 -0.39089,-2.4855 -1.17578,-3.27344 -0.78488,-0.79345 -1.79658,-1.1914 -3.0332,-1.1914 z m 9.88086,0 c -1.24791,0 -2.20262,0.483 -2.86328,1.44726 v -1.24804 h -1.3711 v 8.77734 h 1.52344 v -4.79297 c 0,-1.12405 0.23445,-1.88683 0.70313,-2.28906 0.47432,-0.40224 1.03618,-0.60352 1.68554,-0.60352 0.40656,0 0.75933,0.0897 1.0586,0.27149 0.30492,0.17632 0.51618,0.41569 0.63476,0.71875 0.11858,0.29754 0.17774,0.74936 0.17774,1.35547 v 5.33984 h 1.52539 v -5.39648 c 0,-0.68876 -0.0275,-1.17177 -0.084,-1.44727 -0.0903,-0.42428 -0.24874,-0.79104 -0.47461,-1.09961 -0.22586,-0.30856 -0.56801,-0.55484 -1.02539,-0.74219 -0.45173,-0.19285 -0.94815,-0.29101 -1.49023,-0.29101 z m 17.93164,0 c -1.24226,0 -2.25201,0.40912 -3.03125,1.22461 -0.77924,0.81549 -1.16992,1.9608 -1.16992,3.4375 0,1.42711 0.3844,2.53858 1.15234,3.33203 0.77359,0.78794 1.8191,1.18164 3.13477,1.18164 1.04463,0 1.90226,-0.24823 2.57422,-0.74414 0.67195,-0.49591 1.1324,-1.19366 1.38086,-2.0918 l -1.57618,-0.18945 c -0.23151,0.62815 -0.54418,1.08457 -0.93945,1.37109 -0.39526,0.28653 -0.87262,0.42969 -1.43164,0.42969 -0.751,0 -1.37831,-0.25514 -1.88086,-0.76758 -0.50255,-0.51243 -0.78142,-1.25058 -0.83789,-2.21484 h 6.70703 c 0.006,-0.17632 0.01,-0.30833 0.01,-0.39649 0,-1.44915 -0.38223,-2.57408 -1.14453,-3.37304 -0.7623,-0.79896 -1.74453,-1.19922 -2.94727,-1.19922 z m 10.2207,0 c -1.24791,0 -2.20262,0.483 -2.86328,1.44726 v -1.24804 h -1.37304 v 8.77734 h 1.52539 v -4.79297 c 0,-1.12405 0.23445,-1.88683 0.70312,-2.28906 0.47432,-0.40224 1.03618,-0.60352 1.68555,-0.60352 0.40656,0 0.75932,0.0897 1.05859,0.27149 0.30492,0.17632 0.51619,0.41569 0.63477,0.71875 0.11858,0.29754 0.17773,0.74936 0.17773,1.35547 v 5.33984 h 1.52539 v -5.39648 c 0,-0.68876 -0.0275,-1.17177 -0.084,-1.44727 -0.0904,-0.42428 -0.24874,-0.79104 -0.47461,-1.09961 -0.22587,-0.30856 -0.56801,-0.55484 -1.02539,-0.74219 -0.45173,-0.19285 -0.94816,-0.29101 -1.49024,-0.29101 z m 7.99805,0 c -0.46867,0 -0.91006,0.0624 -1.32227,0.18359 -0.40655,0.11571 -0.72768,0.25888 -0.96484,0.42969 -0.31621,0.2204 -0.56757,0.49787 -0.7539,0.83398 -0.1807,0.33061 -0.27149,0.69082 -0.27149,1.08203 0,0.42979 0.10986,0.82544 0.33008,1.1836 0.22587,0.35264 0.55327,0.63011 0.98242,0.83398 0.43479,0.19837 1.21204,0.43544 2.33008,0.71094 0.83006,0.20387 1.34967,0.37167 1.55859,0.50391 0.29928,0.19285 0.44922,0.45685 0.44922,0.79297 0,0.37468 -0.17096,0.70336 -0.50976,0.98437 -0.3388,0.2755 -0.85646,0.41211 -1.55664,0.41211 -0.69454,0 -1.23734,-0.15663 -1.62696,-0.4707 -0.38397,-0.31408 -0.61842,-0.76589 -0.70312,-1.35547 l -1.50782,0.23242 c 0.1694,0.9312 0.55813,1.63356 1.16797,2.10742 0.61549,0.47387 1.50888,0.71094 2.67774,0.71094 0.70583,0 1.33746,-0.11854 1.89648,-0.35547 0.55902,-0.24244 0.98567,-0.58228 1.2793,-1.01758 0.29927,-0.4408 0.44922,-0.90839 0.44922,-1.40429 0,-0.50693 -0.12243,-0.93182 -0.36524,-1.27344 -0.2428,-0.34163 -0.57866,-0.60102 -1.00781,-0.77735 -0.4235,-0.18183 -1.17344,-0.41234 -2.25195,-0.69336 -0.74536,-0.19836 -1.1952,-0.32575 -1.34766,-0.38085 -0.26539,-0.1047 -0.45976,-0.2367 -0.58398,-0.39649 -0.12423,-0.15428 -0.18555,-0.32668 -0.18555,-0.51953 0,-0.30305 0.14995,-0.56901 0.44922,-0.79492 0.29927,-0.22591 0.79786,-0.33789 1.49805,-0.33789 0.59289,0 1.05118,0.12544 1.37304,0.3789 0.32751,0.25347 0.52404,0.60677 0.5918,1.0586 l 1.49023,-0.19727 c -0.096,-0.56754 -0.26933,-1.01935 -0.52343,-1.35547 -0.2541,-0.34162 -0.65107,-0.61218 -1.1875,-0.81054 -0.53079,-0.19837 -1.14769,-0.29883 -1.85352,-0.29883 z m 9.32813,0 c -0.7736,0 -1.45572,0.10507 -2.04297,0.31445 -0.58726,0.20387 -1.03514,0.49906 -1.34571,0.88477 -0.31056,0.38019 -0.5344,0.88126 -0.66992,1.5039 l 1.49219,0.19922 c 0.16375,-0.62264 0.41511,-1.05638 0.75391,-1.29883 0.34444,-0.24795 0.87467,-0.37109 1.59179,-0.37109 0.76795,0 1.34671,0.16779 1.73633,0.50391 0.28798,0.24795 0.43164,0.67514 0.43164,1.28125 0,0.0551 -0.002,0.1848 -0.008,0.38867 -0.58161,0.19836 -1.48778,0.36845 -2.71875,0.51172 -0.60419,0.0716 -1.0562,0.14747 -1.35547,0.22461 -0.40656,0.1102 -0.77406,0.27143 -1.10156,0.48632 -0.32186,0.2149 -0.58383,0.50122 -0.78711,0.85938 -0.19763,0.35264 -0.29688,0.74404 -0.29688,1.17383 0,0.73284 0.26609,1.33668 0.79688,1.81054 0.53078,0.46836 1.28918,0.70313 2.27734,0.70313 0.59855,0 1.15824,-0.0962 1.67774,-0.28906 0.52514,-0.19286 1.0701,-0.52383 1.63476,-0.99219 0.0452,0.41325 0.14658,0.77347 0.30469,1.08203 h 1.5918 c -0.19199,-0.33611 -0.32092,-0.68516 -0.38868,-1.04883 -0.0621,-0.36917 -0.0937,-1.24588 -0.0937,-2.6289 v -1.98438 c 0,-0.66121 -0.0254,-1.11763 -0.0762,-1.37109 -0.0903,-0.40775 -0.24874,-0.74333 -0.47461,-1.00781 -0.22586,-0.27 -0.57862,-0.4936 -1.05859,-0.66993 -0.47997,-0.17632 -1.10315,-0.26562 -1.87109,-0.26562 z m 17.52343,0 c -1.11239,0 -2.05648,0.32637 -2.83007,0.97656 -0.92606,0.78243 -1.38868,1.98586 -1.38868,3.61133 0,1.48221 0.38657,2.61831 1.16016,3.40625 0.77924,0.78794 1.79939,1.18164 3.05859,1.18164 0.78489,0 1.50731,-0.17896 2.16797,-0.53711 0.66631,-0.35815 1.17118,-0.86118 1.51563,-1.50586 0.35009,-0.65019 0.52539,-1.5384 0.52539,-2.66797 0,-1.39405 -0.39285,-2.4855 -1.17774,-3.27344 -0.78488,-0.79345 -1.79463,-1.1914 -3.03125,-1.1914 z m 9.88086,0 c -1.24791,0 -2.20262,0.483 -2.86328,1.44726 v -1.24804 h -1.37305 v 8.77734 h 1.5254 v -4.79297 c 0,-1.12405 0.23445,-1.88683 0.70312,-2.28906 0.47432,-0.40224 1.03618,-0.60352 1.68555,-0.60352 0.40656,0 0.75932,0.0897 1.05859,0.27149 0.30492,0.17632 0.51619,0.41569 0.63477,0.71875 0.11858,0.29754 0.17773,0.74936 0.17773,1.35547 v 5.33984 h 1.52539 v -5.39648 c 0,-0.68876 -0.0295,-1.17177 -0.0859,-1.44727 -0.0903,-0.42428 -0.24679,-0.79104 -0.47265,-1.09961 -0.22587,-0.30856 -0.56801,-0.55484 -1.02539,-0.74219 -0.45174,-0.19285 -0.94816,-0.29101 -1.49024,-0.29101 z m -17.51953,0.19922 v 8.77734 h 1.52344 v -8.77734 z m -37.41406,1.02539 c 0.77359,0 1.40306,0.28632 1.88867,0.85937 0.31621,0.36918 0.50841,0.92181 0.57617,1.66016 h -5.02344 c 0.0508,-0.7659 0.31475,-1.37665 0.78907,-1.83399 0.47996,-0.45733 1.06934,-0.68554 1.76953,-0.68554 z m -27.83008,0.008 c 0.75101,0 1.37831,0.28172 1.88086,0.84375 0.5082,0.55652 0.76172,1.37741 0.76172,2.46289 0,1.15161 -0.25135,2.00829 -0.75391,2.57031 -0.50255,0.56203 -1.13202,0.8418 -1.88867,0.8418 -0.7623,0 -1.39393,-0.27747 -1.89648,-0.83398 -0.50256,-0.56203 -0.75391,-1.40525 -0.75391,-2.5293 0,-1.12406 0.25135,-1.96497 0.75391,-2.52149 0.50255,-0.55651 1.13418,-0.83398 1.89648,-0.83398 z m 18.24024,0 c 0.69453,0 1.27763,0.28172 1.75195,0.84375 0.47432,0.56203 0.71289,1.44334 0.71289,2.64453 0,1.091 -0.23445,1.90302 -0.70313,2.4375 -0.46302,0.52897 -1.029,0.79297 -1.69531,0.79297 -0.66066,0 -1.23314,-0.27747 -1.71875,-0.83398 -0.48561,-0.55652 -0.72851,-1.39743 -0.72851,-2.52149 0,-1.16262 0.226,-2.01275 0.67773,-2.55273 0.45738,-0.53999 1.02553,-0.81055 1.70313,-0.81055 z m 54.64257,0 c 0.75101,0 1.37831,0.28172 1.88086,0.84375 0.5082,0.55652 0.76172,1.37741 0.76172,2.46289 0,1.15161 -0.25135,2.00829 -0.75391,2.57031 -0.50255,0.56203 -1.13201,0.8418 -1.88867,0.8418 -0.7623,0 -1.39588,-0.27747 -1.89843,-0.83398 -0.50256,-0.56203 -0.75391,-1.40525 -0.75391,-2.5293 0,-1.12406 0.25135,-1.96497 0.75391,-2.52149 0.50255,-0.55651 1.13613,-0.83398 1.89843,-0.83398 z m -131.69922,2.46289 v 4 z m 116.11524,0.87695 v 0.54493 c 0,0.65569 -0.0823,1.15216 -0.24609,1.48828 -0.21458,0.43529 -0.55044,0.77974 -1.00782,1.0332 -0.45738,0.24795 -0.97915,0.37109 -1.5664,0.37109 -0.5929,0 -1.04491,-0.132 -1.35547,-0.39648 -0.30492,-0.26448 -0.45703,-0.59546 -0.45703,-0.99219 0,-0.25897 0.0698,-0.49374 0.21093,-0.70312 0.14117,-0.2149 0.34182,-0.37613 0.60157,-0.48633 0.25974,-0.1102 0.7033,-0.21067 1.33007,-0.29883 1.10675,-0.15428 1.93687,-0.34014 2.49024,-0.56055 z m -116.11524,5.20313 v 3.59961 z m 0,5.59961 v 3.68164 z m 0,5.68164 v 3.59961 z m 0,5.59961 v 4.08008 z m 0,5.67969 v 4 z m 0,5.59961 v 4.08007 z m 0,6.08007 v 3.59961 z m 0,5.59961 v 3.67969 z m 314.07618,0.043 4.8125,12.11719 h 1.68554 l 4.86133,-12.11719 h -1.67773 l -3.35352,8.80274 c -0.2541,0.6612 -0.47793,1.32316 -0.66992,1.98437 -0.17505,-0.61713 -0.3926,-1.27908 -0.65234,-1.98437 l -3.22657,-8.80274 z m -120.48047,11.67969 4.8125,12.11719 h 1.68554 l 4.86133,-12.11719 h -1.67773 l -3.35352,8.80273 c -0.2541,0.66121 -0.47793,1.32317 -0.66992,1.98438 -0.17505,-0.61713 -0.3926,-1.27909 -0.65234,-1.98438 l -3.22657,-8.80273 z m -199.11914,1.59961 4.8125,12.11719 h 1.68554 l 4.86133,-12.11719 h -1.67773 l -3.35352,8.80273 c -0.2541,0.66121 -0.47793,1.32317 -0.66992,1.98438 -0.17505,-0.61713 -0.3926,-1.27909 -0.65234,-1.98438 l -3.22657,-8.80273 z M 334.79102,252 v 10.0957 h 3.5371 c 0.59291,0 1.11756,-0.0571 1.57227,-0.17187 0.45916,-0.11479 0.84895,-0.28156 1.16992,-0.50195 0.32543,-0.225 0.62455,-0.53032 0.89649,-0.91602 0.27193,-0.39029 0.49411,-0.88229 0.66797,-1.47461 0.17385,-0.59232 0.26171,-1.27225 0.26171,-2.03906 0,-0.89997 -0.13011,-1.69855 -0.38867,-2.39649 -0.2541,-0.70252 -0.63913,-1.27853 -1.15625,-1.72851 -0.39675,-0.34897 -0.8758,-0.5895 -1.4375,-0.72266 C 339.51285,252.04811 338.93027,252 338.16797,252 Z m -198.17188,0.40039 v 10.09766 h 1.29688 v -4.58789 h 4.5996 v -1.19141 h -4.5996 v -3.12695 h 5.3164 v -1.19141 z m 199.46875,0.79102 h 2.06055 c 0.77121,0 1.33002,0.0693 1.67773,0.20703 0.48146,0.19285 0.89027,0.57321 1.22461,1.14258 0.3388,0.56477 0.50781,1.37555 0.50781,2.43164 0,0.76221 -0.0879,1.41199 -0.26171,1.94922 -0.16941,0.53263 -0.40725,0.95661 -0.71485,1.27343 -0.21844,0.22499 -0.51281,0.39947 -0.88281,0.52344 -0.36555,0.12397 -0.87118,0.18555 -1.51758,0.18555 h -2.09375 z"
       transform="matrix(0.75000002,0,0,-0.75000002,105.25908,459.2128)" /></g></svg>
