<?xml version="1.0" encoding="UTF-8" standalone="no"?>
<!-- Created with Inkscape (http://www.inkscape.org/) -->

<svg
   version="1.1"
   id="svg9"
   xml:space="preserve"
   width="142.98445mm"
   height="100.00199mm"
   viewBox="0 0 540.41369 377.96026"
   sodipodi:docname="zustand.svg"
   inkscape:version="1.1.1 (3bf5ae0d25, 2021-09-20)"
   xmlns:inkscape="http://www.inkscape.org/namespaces/inkscape"
   xmlns:sodipodi="http://sodipodi.sourceforge.net/DTD/sodipodi-0.dtd"
   xmlns="http://www.w3.org/2000/svg"
   xmlns:svg="http://www.w3.org/2000/svg"><defs
     id="defs13" /><sodipodi:namedview
     id="namedview11"
     pagecolor="#505050"
     bordercolor="#eeeeee"
     borderopacity="1"
     inkscape:pageshadow="0"
     inkscape:pageopacity="0"
     inkscape:pagecheckerboard="0"
     showgrid="false"
     fit-margin-top="5"
     fit-margin-left="5"
     fit-margin-right="5"
     fit-margin-bottom="5"
     units="mm"
     inkscape:zoom="0.71347976"
     inkscape:cx="297.83606"
     inkscape:cy="220.74908"
     inkscape:window-width="1920"
     inkscape:window-height="1009"
     inkscape:window-x="-8"
     inkscape:window-y="-8"
     inkscape:window-maximized="1"
     inkscape:current-layer="g15"
     inkscape:document-units="mm" /><g
     id="g15"
     inkscape:groupmode="layer"
     inkscape:label="V203"
     transform="matrix(1.3333333,0,0,-1.3333333,-98.382373,670.6097)"><path
       id="path125"
       style="fill:#000000;fill-opacity:1;fill-rule:nonzero;stroke:none;stroke-width:1.33333"
       d="M 20.447266 18.898438 L 20.447266 30.341797 L 21.957031 30.341797 L 21.957031 25.689453 L 24.884766 25.689453 C 26.498617 25.689453 27.614903 25.35304 28.232422 24.681641 C 28.84994 24.005037 29.158203 23.1803 29.158203 22.207031 C 29.158203 21.639725 29.040156 21.120107 28.806641 20.646484 C 28.578314 20.172862 28.275298 19.805154 27.896484 19.544922 C 27.51767 19.279485 27.048718 19.101496 26.488281 19.007812 C 26.08871 18.934947 25.509581 18.898437 24.751953 18.898438 L 20.447266 18.898438 z M 21.957031 20.248047 L 24.876953 20.248047 C 25.561932 20.248047 26.030884 20.281949 26.285156 20.349609 C 26.679538 20.458907 26.99567 20.68579 27.234375 21.029297 C 27.478269 21.367599 27.601562 21.775079 27.601562 22.253906 C 27.601563 22.914896 27.396277 23.428644 26.986328 23.792969 C 26.576379 24.157294 25.883779 24.339844 24.908203 24.339844 L 21.957031 24.339844 L 21.957031 20.248047 z M 469.42773 28.498047 L 469.42773 39.941406 L 470.9375 39.941406 L 470.9375 35.976562 L 472.80469 34.150391 L 476.86914 39.941406 L 478.86133 39.941406 L 473.86328 33.134766 L 478.65039 28.498047 L 476.60352 28.498047 L 470.9375 34.173828 L 470.9375 28.498047 L 469.42773 28.498047 z M 484.53125 28.498047 L 484.53125 39.941406 L 486.04102 39.941406 L 486.04102 35.289062 L 488.96875 35.289062 C 490.5826 35.289063 491.69889 34.952649 492.31641 34.28125 C 492.93392 33.604646 493.24219 32.779909 493.24219 31.806641 C 493.24219 31.239334 493.12414 30.719716 492.89062 30.246094 C 492.6623 29.772471 492.35928 29.404763 491.98047 29.144531 C 491.60165 28.879094 491.1327 28.701105 490.57227 28.607422 C 490.17269 28.534557 489.59357 28.498047 488.83594 28.498047 L 484.53125 28.498047 z M 486.04102 29.847656 L 488.96094 29.847656 C 489.64592 29.847656 490.11487 29.881558 490.36914 29.949219 C 490.76352 30.058516 491.07965 30.2854 491.31836 30.628906 C 491.56225 30.967208 491.68555 31.374688 491.68555 31.853516 C 491.68555 32.514505 491.48026 33.028253 491.07031 33.392578 C 490.66036 33.756903 489.96776 33.939453 488.99219 33.939453 L 486.04102 33.939453 L 486.04102 29.847656 z M 458.6582 31.542969 L 458.6582 31.863281 L 457.69727 31.863281 L 457.37695 32.183594 L 457.05664 32.183594 L 456.73828 32.503906 L 456.41797 32.503906 L 456.41797 32.822266 L 456.09766 32.822266 L 456.09766 33.142578 L 455.77734 33.462891 L 455.77734 33.783203 L 455.45703 33.783203 L 455.45703 34.423828 L 455.13672 34.742188 L 455.13672 36.023438 L 455.45703 36.34375 L 455.45703 36.982422 L 455.77734 37.302734 L 455.77734 37.623047 L 456.09766 37.623047 L 456.09766 37.943359 L 456.34375 38.189453 L 450.6582 48.822266 L 442.97852 62.263672 L 435.61719 75.382812 L 428.25781 87.863281 L 420.57812 99.703125 L 413.2168 111.22266 L 405.53711 122.42383 L 397.85742 132.98242 L 390.17773 143.14258 L 382.49805 152.74219 L 374.49805 162.02344 L 366.49805 170.98242 L 358.25781 179.62305 L 349.9375 187.62305 L 341.29688 195.30273 L 332.33789 202.34375 L 323.37695 209.38281 L 314.09766 215.7832 L 304.49805 221.86328 L 294.57812 227.62305 L 284.33789 233.0625 L 273.77734 238.18359 L 262.89844 242.98242 L 251.69727 247.14258 L 240.17773 251.22266 L 228.33789 255.0625 L 215.85742 258.26367 L 203.05859 261.46289 L 189.69727 264.02344 L 175.9375 266.58398 L 161.53711 268.82227 L 150.33789 270.2832 L 150.33789 269.7832 L 150.01758 269.7832 L 150.01758 269.46289 L 149.69727 269.46289 L 149.69727 269.14258 L 149.37695 268.82227 L 149.05859 268.82227 L 149.05859 268.50391 L 148.73828 268.50391 L 148.41797 268.18359 L 147.77734 268.18359 L 147.77734 267.86328 L 146.37109 267.86328 L 53.376953 35.0625 L 51.777344 35.703125 L 144.57812 268.81055 L 144.57812 268.82227 L 144.25781 268.82227 L 144.25781 269.14258 L 143.9375 269.14258 L 143.9375 269.46289 L 143.61719 269.46289 L 143.61719 270.10352 L 143.29688 270.10352 L 143.29688 271.38281 L 142.97852 271.38281 L 142.97852 272.02344 L 143.29688 272.02344 L 143.29688 272.98242 L 143.61719 273.30273 L 143.61719 273.47266 L 140.73828 276.18359 L 134.6582 281.62305 L 128.57812 286.74219 L 121.85742 291.86328 L 114.81836 296.98242 L 107.45703 301.7832 L 100.09766 306.58398 L 92.097656 311.0625 L 76.097656 319.38281 L 67.457031 323.22266 L 59.136719 326.74219 L 50.498047 329.94336 L 41.857422 332.50391 L 32.898438 335.0625 L 25.216797 336.76953 L 25.216797 39.539062 L 28.417969 44.662109 L 30.017578 43.382812 L 25.216797 36.023438 L 23.617188 36.023438 L 18.898438 43.382812 L 19.537109 44.023438 L 20.177734 44.662109 L 23.296875 39.908203 L 23.296875 337.94336 L 23.296875 338.90234 L 24.257812 338.90234 L 501.66602 338.90234 L 497.05664 341.7832 L 497.69727 342.74219 L 498.33789 343.38281 L 505.69727 338.58398 L 505.69727 336.98242 L 498.33789 332.18359 L 497.05664 333.7832 L 502.17578 336.98242 L 459.9375 336.98242 L 459.9375 336.02344 L 458.01758 336.02344 L 458.01758 336.98242 L 31.982422 336.98242 L 33.216797 336.66211 L 42.177734 334.42383 L 51.136719 331.54297 L 59.777344 328.34375 L 68.417969 324.82227 L 76.738281 320.98242 L 85.058594 317.14258 L 93.058594 312.66211 L 101.05859 308.18359 L 108.73828 303.38281 L 116.09766 298.58398 L 122.81836 293.46289 L 129.53711 288.34375 L 135.9375 282.90234 L 142.01758 277.7832 L 144.89844 274.90234 L 145.2168 274.90234 L 145.2168 275.22266 L 146.17773 275.22266 L 146.17773 275.54297 L 147.45703 275.54297 L 147.77734 275.22266 L 148.41797 275.22266 L 148.73828 274.90234 L 149.05859 274.90234 L 149.05859 274.58398 L 149.37695 274.58398 L 149.37695 274.26367 L 149.69727 274.26367 L 149.69727 273.94336 L 150.01758 273.94336 L 150.01758 273.62305 L 150.33789 273.62305 L 150.33789 272.98242 L 150.6582 272.66211 L 150.6582 272.20312 L 161.85742 270.74219 L 176.25781 268.50391 L 190.01758 265.94336 L 203.37695 263.0625 L 216.17773 260.18359 L 228.6582 256.66211 L 240.81836 253.14258 L 252.33789 249.0625 L 263.85742 244.58398 L 274.73828 239.7832 L 285.29688 234.66211 L 295.53711 229.22266 L 305.45703 223.46289 L 315.05664 217.38281 L 324.33789 210.98242 L 333.61719 203.94336 L 342.57812 196.58398 L 351.2168 188.90234 L 359.53711 180.90234 L 367.77734 172.26367 L 375.77734 163.30273 L 383.77734 154.02344 L 391.77734 144.10352 L 399.45703 134.26367 L 414.81836 112.50391 L 422.17773 100.66211 L 429.85742 88.822266 L 437.2168 76.34375 L 444.89844 63.222656 L 452.25781 49.783203 L 458.15234 39.222656 L 459.9375 39.222656 L 460.57812 39.222656 L 460.57812 38.902344 L 460.89844 38.902344 L 460.89844 38.583984 L 461.2168 38.583984 L 461.2168 38.263672 L 461.53711 38.263672 L 461.85742 37.943359 L 461.85742 37.623047 L 462.17773 37.623047 L 462.17773 37.302734 L 462.49805 36.982422 L 462.49805 36.34375 L 462.81836 36.023438 L 462.81836 34.742188 L 462.49805 34.423828 L 462.49805 33.783203 L 462.17773 33.783203 L 462.17773 33.142578 L 461.85742 33.142578 L 461.85742 32.822266 L 461.53711 32.822266 L 461.53711 32.503906 L 461.2168 32.503906 L 461.2168 32.183594 L 460.57812 32.183594 L 460.57812 31.863281 L 459.29688 31.863281 L 459.29688 31.542969 L 458.6582 31.542969 z M 480.26758 38.341797 L 480.26758 39.941406 L 481.86328 39.941406 L 481.86328 38.341797 L 480.26758 38.341797 z M 493.39062 38.341797 L 493.39062 39.941406 L 494.98633 39.941406 L 494.98633 38.341797 L 493.39062 38.341797 z M 458.6582 41.142578 L 458.6582 44.982422 L 460.57812 44.982422 L 460.57812 41.142578 L 458.6582 41.142578 z M 458.6582 46.902344 L 458.6582 50.742188 L 460.57812 50.742188 L 460.57812 46.902344 L 458.6582 46.902344 z M 458.6582 52.662109 L 458.6582 56.503906 L 460.57812 56.503906 L 460.57812 52.662109 L 458.6582 52.662109 z M 458.6582 58.103516 L 458.6582 61.943359 L 460.57812 61.943359 L 460.57812 58.103516 L 458.6582 58.103516 z M 458.6582 63.863281 L 458.6582 67.703125 L 460.57812 67.703125 L 460.57812 63.863281 L 458.6582 63.863281 z M 458.6582 69.623047 L 458.6582 73.462891 L 460.57812 73.462891 L 460.57812 69.623047 L 458.6582 69.623047 z M 458.6582 75.382812 L 458.6582 78.902344 L 460.57812 78.902344 L 460.57812 75.382812 L 458.6582 75.382812 z M 458.6582 80.822266 L 458.6582 84.662109 L 460.57812 84.662109 L 460.57812 80.822266 L 458.6582 80.822266 z M 458.6582 86.583984 L 458.6582 90.423828 L 460.57812 90.423828 L 460.57812 86.583984 L 458.6582 86.583984 z M 458.6582 92.34375 L 458.6582 96.183594 L 460.57812 96.183594 L 460.57812 92.34375 L 458.6582 92.34375 z M 458.6582 98.103516 L 458.6582 101.62305 L 460.57812 101.62305 L 460.57812 98.103516 L 458.6582 98.103516 z M 458.6582 103.54297 L 458.6582 107.38281 L 460.57812 107.38281 L 460.57812 103.54297 L 458.6582 103.54297 z M 458.6582 109.30273 L 458.6582 113.14258 L 460.57812 113.14258 L 460.57812 109.30273 L 458.6582 109.30273 z M 458.6582 115.0625 L 458.6582 118.90234 L 460.57812 118.90234 L 460.57812 115.0625 L 458.6582 115.0625 z M 458.6582 120.50391 L 458.6582 124.34375 L 460.25781 124.34375 L 460.25781 120.50391 L 458.6582 120.50391 z M 458.6582 126.26367 L 458.6582 130.10352 L 460.25781 130.10352 L 460.25781 126.26367 L 458.6582 126.26367 z M 458.6582 132.02344 L 458.33789 135.7832 L 460.25781 135.7832 L 460.25781 132.02344 L 458.6582 132.02344 z M 205.85156 133.50195 C 205.23923 133.50195 204.76241 133.6167 204.41992 133.8457 C 204.08262 134.0695 203.84586 134.36419 203.71094 134.72852 C 203.61234 134.99916 203.5625 135.41185 203.5625 135.96875 L 203.5625 136.85156 L 202.32617 136.85156 L 202.32617 137.94531 L 203.5625 137.94531 L 203.5625 145.14258 L 204.95703 145.14258 L 204.95703 137.94531 L 206.56836 137.94531 L 206.56836 136.85156 L 204.95703 136.85156 L 204.95703 136.08594 C 204.95703 135.58629 205.04427 135.24662 205.2207 135.06445 C 205.39714 134.88229 205.69948 134.79102 206.125 134.79102 C 206.38446 134.79102 206.65862 134.81709 206.94922 134.86914 L 207.16016 133.64258 C 206.68275 133.54889 206.24594 133.50195 205.85156 133.50195 z M 212.39062 133.62695 L 212.39062 135.22852 L 213.85352 135.22852 L 213.85352 133.62695 L 212.39062 133.62695 z M 215.29297 133.62695 L 215.29297 135.22852 L 216.75586 135.22852 L 216.75586 133.62695 L 215.29297 133.62695 z M 207.65625 133.69727 L 207.65625 145.14258 L 209.05664 145.14258 L 209.05664 133.69727 L 207.65625 133.69727 z M 236.14648 133.69727 L 236.14648 135.31445 L 237.54688 135.31445 L 237.54688 133.69727 L 236.14648 133.69727 z M 222.85938 136.66406 C 222.42867 136.66406 222.0253 136.72144 221.64648 136.83594 C 221.27286 136.94524 220.97576 137.08084 220.75781 137.24219 C 220.46722 137.45037 220.23765 137.71377 220.06641 138.03125 C 219.90035 138.34353 219.81641 138.6832 219.81641 139.05273 C 219.81641 139.4587 219.91871 139.83162 220.12109 140.16992 C 220.32866 140.50302 220.62906 140.76641 221.02344 140.95898 C 221.42301 141.14635 222.13659 141.36867 223.16406 141.62891 C 223.92688 141.82148 224.4037 141.98056 224.5957 142.10547 C 224.87073 142.28763 225.00781 142.53799 225.00781 142.85547 C 225.00781 143.20938 224.85237 143.51972 224.54102 143.78516 C 224.22966 144.04539 223.75284 144.17383 223.10938 144.17383 C 222.4711 144.17383 221.97329 144.02713 221.61523 143.73047 C 221.26237 143.4338 221.04659 143.00612 220.96875 142.44922 L 219.58398 142.66797 C 219.73966 143.54755 220.09777 144.2106 220.6582 144.6582 C 221.22383 145.1058 222.04302 145.33008 223.11719 145.33008 C 223.76584 145.33008 224.34759 145.21794 224.86133 144.99414 C 225.37506 144.76514 225.76532 144.44632 226.03516 144.03516 C 226.31019 143.61878 226.44922 143.17545 226.44922 142.70703 C 226.44922 142.2282 226.33642 141.82659 226.11328 141.50391 C 225.89014 141.18122 225.58188 140.93803 225.1875 140.77148 C 224.79831 140.59973 224.10833 140.38067 223.11719 140.11523 C 222.43221 139.92787 222.01902 139.80791 221.87891 139.75586 C 221.63501 139.65697 221.45596 139.53179 221.3418 139.38086 C 221.22763 139.23513 221.17188 139.07083 221.17188 138.88867 C 221.17188 138.60242 221.30896 138.35402 221.58398 138.14062 C 221.85901 137.92723 222.31747 137.82031 222.96094 137.82031 C 223.50581 137.82031 223.92687 137.94027 224.22266 138.17969 C 224.52363 138.4191 224.70531 138.75095 224.76758 139.17773 L 226.13672 138.99023 C 226.0485 138.45416 225.88781 138.02842 225.6543 137.71094 C 225.42078 137.38825 225.05743 137.13268 224.56445 136.94531 C 224.07667 136.75795 223.50803 136.66406 222.85938 136.66406 z M 230.85742 136.66406 C 230.42672 136.66406 230.02139 136.72144 229.64258 136.83594 C 229.26895 136.94524 228.97381 137.08084 228.75586 137.24219 C 228.46526 137.45037 228.23374 137.71377 228.0625 138.03125 C 227.89644 138.34353 227.81445 138.6832 227.81445 139.05273 C 227.81445 139.4587 227.91481 139.83162 228.11719 140.16992 C 228.32476 140.50302 228.6271 140.76641 229.02148 140.95898 C 229.42106 141.14635 230.13464 141.36867 231.16211 141.62891 C 231.92493 141.82148 232.40175 141.98056 232.59375 142.10547 C 232.86878 142.28763 233.00586 142.53799 233.00586 142.85547 C 233.00586 143.20938 232.85042 143.51972 232.53906 143.78516 C 232.22771 144.04539 231.75089 144.17383 231.10742 144.17383 C 230.46915 144.17383 229.97134 144.02713 229.61328 143.73047 C 229.26041 143.4338 229.04464 143.00612 228.9668 142.44922 L 227.58008 142.66797 C 227.73576 143.54755 228.09386 144.2106 228.6543 144.6582 C 229.21992 145.1058 230.04106 145.33008 231.11523 145.33008 C 231.76389 145.33008 232.34369 145.21794 232.85742 144.99414 C 233.37116 144.76514 233.76336 144.44632 234.0332 144.03516 C 234.30823 143.61878 234.44531 143.17545 234.44531 142.70703 C 234.44531 142.2282 234.33447 141.82659 234.11133 141.50391 C 233.88819 141.18122 233.57993 140.93803 233.18555 140.77148 C 232.79635 140.59973 232.10638 140.38067 231.11523 140.11523 C 230.43026 139.92787 230.01706 139.80791 229.87695 139.75586 C 229.63306 139.65697 229.45401 139.53179 229.33984 139.38086 C 229.22568 139.23513 229.16797 139.07083 229.16797 138.88867 C 229.16797 138.60242 229.307 138.35402 229.58203 138.14062 C 229.85706 137.92723 230.31552 137.82031 230.95898 137.82031 C 231.50385 137.82031 231.92492 137.94027 232.2207 138.17969 C 232.52168 138.4191 232.70335 138.75095 232.76562 139.17773 L 234.13477 138.99023 C 234.04655 138.45416 233.88586 138.02842 233.65234 137.71094 C 233.41883 137.38825 233.05548 137.13268 232.5625 136.94531 C 232.07471 136.75795 231.50608 136.66406 230.85742 136.66406 z M 242.74805 136.66406 C 242.01637 136.66406 241.37885 136.84661 240.83398 137.21094 C 240.2943 137.57526 239.88111 138.09227 239.5957 138.76367 C 239.3103 139.42987 239.16797 140.16007 239.16797 140.95117 C 239.16797 142.1014 239.47885 143.08782 240.10156 143.91016 C 240.72427 144.73249 241.60379 145.14258 242.74023 145.14258 C 243.65354 145.14258 244.41697 144.78204 245.0293 144.05859 C 245.03449 144.97461 245.00038 145.57507 244.92773 145.86133 C 244.80319 146.32975 244.56381 146.69289 244.21094 146.95312 C 243.85807 147.21336 243.35764 147.34375 242.70898 147.34375 C 242.10703 147.34375 241.63283 147.21336 241.28516 146.95312 C 241.02569 146.76055 240.86763 146.45478 240.81055 146.0332 L 239.44727 145.83008 C 239.42651 146.72528 239.72098 147.39354 240.32812 147.83594 C 240.93527 148.28354 241.73084 148.50781 242.7168 148.50781 C 243.54707 148.50781 244.24492 148.35134 244.81055 148.03906 C 245.38136 147.72678 245.79718 147.30105 246.05664 146.75977 C 246.32129 146.22369 246.45312 145.31028 246.45312 144.01953 L 246.45312 136.85156 L 245.16211 136.85156 L 245.16211 137.85156 C 244.52902 137.06046 243.72362 136.66406 242.74805 136.66406 z M 211.22266 136.85156 L 211.22266 141.98828 C 211.22266 142.58682 211.25151 143.02494 211.30859 143.30078 C 211.39162 143.71195 211.53395 144.05945 211.73633 144.3457 C 211.9439 144.62675 212.25741 144.86146 212.67773 145.04883 C 213.10325 145.2362 213.55909 145.33008 214.04688 145.33008 C 215.15218 145.33008 216.02646 144.86262 216.66992 143.92578 L 216.66992 145.14258 L 217.92383 145.14258 L 217.92383 136.85156 L 216.52344 136.85156 L 216.52344 141.29492 C 216.52344 142.00275 216.44474 142.54323 216.28906 142.91797 C 216.13857 143.2875 215.88015 143.58219 215.51172 143.80078 C 215.14328 144.01417 214.74845 144.12109 214.32812 144.12109 C 213.9078 144.12109 213.55494 144.01678 213.26953 143.80859 C 212.98412 143.5952 212.7972 143.30312 212.70898 142.93359 C 212.6519 142.67857 212.62305 142.18307 212.62305 141.44922 L 212.62305 136.85156 L 211.22266 136.85156 z M 236.14648 136.85156 L 236.14648 145.14258 L 237.54688 145.14258 L 237.54688 136.85156 L 236.14648 136.85156 z M 458.33789 137.70312 L 458.33789 141.22266 L 460.25781 141.22266 L 460.25781 137.70312 L 458.33789 137.70312 z M 242.84961 137.82812 C 243.4827 137.82812 244.02248 138.0863 244.46875 138.60156 C 244.92021 139.11682 245.14648 139.88158 245.14648 140.89648 C 245.14648 141.95823 244.92808 142.73864 244.49219 143.23828 C 244.05629 143.73272 243.51651 143.98047 242.87305 143.98047 C 242.22439 143.98047 241.68461 143.73011 241.25391 143.23047 C 240.8232 142.73082 240.60742 141.93738 240.60742 140.84961 C 240.60742 139.85032 240.82582 139.0986 241.26172 138.59375 C 241.69761 138.08369 242.2269 137.82812 242.84961 137.82812 z M 458.33789 143.14258 L 458.33789 146.98242 L 460.25781 146.98242 L 460.25781 143.14258 L 458.33789 143.14258 z M 458.33789 148.90234 L 458.33789 152.74219 L 460.25781 152.74219 L 460.25781 148.90234 L 458.33789 148.90234 z M 458.33789 154.66211 L 458.33789 158.50391 L 460.25781 158.50391 L 460.25781 154.66211 L 458.33789 154.66211 z M 458.33789 160.42383 L 458.33789 163.94336 L 460.25781 163.94336 L 460.25781 160.42383 L 458.33789 160.42383 z M 458.33789 165.86328 L 458.33789 169.70312 L 460.25781 169.70312 L 460.25781 165.86328 L 458.33789 165.86328 z M 458.33789 171.62305 L 458.33789 175.46289 L 460.25781 175.46289 L 460.25781 171.62305 L 458.33789 171.62305 z M 458.33789 177.38281 L 458.33789 181.22266 L 460.25781 181.22266 L 460.25781 177.38281 L 458.33789 177.38281 z M 458.33789 182.82227 L 458.33789 186.66211 L 460.25781 186.66211 L 460.25781 182.82227 L 458.33789 182.82227 z M 458.33789 188.58398 L 458.33789 192.42383 L 460.25781 192.42383 L 460.25781 188.58398 L 458.33789 188.58398 z M 458.33789 194.34375 L 458.33789 198.18359 L 460.25781 198.18359 L 460.25781 194.34375 L 458.33789 194.34375 z M 458.33789 200.10352 L 458.33789 203.62305 L 460.25781 203.62305 L 460.25781 200.10352 L 458.33789 200.10352 z M 458.33789 205.54297 L 458.33789 209.38281 L 460.25781 209.38281 L 460.25781 205.54297 L 458.33789 205.54297 z M 458.33789 211.30273 L 458.33789 215.14258 L 460.25781 215.14258 L 460.25781 211.30273 L 458.33789 211.30273 z M 458.33789 217.0625 L 458.33789 220.90234 L 460.25781 220.90234 L 460.25781 217.0625 L 458.33789 217.0625 z M 458.33789 222.82227 L 458.33789 226.34375 L 460.25781 226.34375 L 460.25781 222.82227 L 458.33789 222.82227 z M 458.33789 228.26367 L 458.33789 232.10352 L 460.25781 232.10352 L 460.25781 228.26367 L 458.33789 228.26367 z M 55.851562 233.90234 C 55.239233 233.90234 54.762411 234.01709 54.419922 234.24609 C 54.082622 234.46989 53.845858 234.76263 53.710938 235.12695 C 53.612342 235.39759 53.564453 235.81224 53.564453 236.36914 L 53.564453 237.25195 L 52.326172 237.25195 L 52.326172 238.34375 L 53.564453 238.34375 L 53.564453 245.54297 L 54.957031 245.54297 L 54.957031 238.34375 L 56.568359 238.34375 L 56.568359 237.25195 L 54.957031 237.25195 L 54.957031 236.48633 C 54.957031 235.98668 55.044269 235.64505 55.220703 235.46289 C 55.397137 235.28073 55.699483 235.18945 56.125 235.18945 C 56.384462 235.18945 56.658622 235.21553 56.949219 235.26758 L 57.160156 234.04297 C 56.682747 233.94929 56.245944 233.90234 55.851562 233.90234 z M 458.33789 234.02344 L 458.33789 237.86328 L 460.25781 237.86328 L 460.25781 234.02344 L 458.33789 234.02344 z M 76.296875 234.35547 L 74.904297 235.19727 L 74.904297 237.25195 L 73.876953 237.25195 L 73.876953 238.34375 L 74.904297 238.34375 L 74.904297 243.11328 C 74.904297 243.95643 74.962009 244.51191 75.076172 244.77734 C 75.190335 245.03758 75.38775 245.24881 75.667969 245.41016 C 75.948187 245.5715 76.341065 245.65234 76.849609 245.65234 C 77.160963 245.65234 77.513822 245.61062 77.908203 245.52734 L 77.707031 244.28516 C 77.452759 244.32159 77.247474 244.33984 77.091797 244.33984 C 76.884228 244.33984 76.723538 244.30594 76.609375 244.23828 C 76.500401 244.17062 76.41908 244.07935 76.367188 243.96484 C 76.320484 243.85034 76.296875 243.59216 76.296875 243.19141 L 76.296875 238.34375 L 77.707031 238.34375 L 77.707031 237.25195 L 76.296875 237.25195 L 76.296875 234.35547 z M 61.105469 237.06445 C 59.963838 237.06445 59.034473 237.44846 58.318359 238.21875 C 57.602245 238.98904 57.244141 240.07195 57.244141 241.4668 C 57.244141 242.8148 57.596999 243.86381 58.302734 244.61328 C 59.013659 245.35755 59.974503 245.73047 61.183594 245.73047 C 62.143602 245.73047 62.93131 245.49576 63.548828 245.02734 C 64.166347 244.55893 64.590033 243.89914 64.818359 243.05078 L 63.371094 242.87305 C 63.158335 243.46638 62.869106 243.89733 62.505859 244.16797 C 62.142613 244.43861 61.70514 244.57422 61.191406 244.57422 C 60.501238 244.57422 59.924732 244.33169 59.462891 243.84766 C 59.001049 243.36362 58.743299 242.66667 58.691406 241.75586 L 64.857422 241.75586 C 64.862611 241.58931 64.865234 241.46413 64.865234 241.38086 C 64.865234 240.01204 64.514999 238.94999 63.814453 238.19531 C 63.113907 237.44064 62.210775 237.06445 61.105469 237.06445 z M 69.341797 237.06445 C 68.911091 237.06445 68.50772 237.12183 68.128906 237.23633 C 67.755282 237.34563 67.458182 237.47928 67.240234 237.64062 C 66.949637 237.84881 66.720073 238.1122 66.548828 238.42969 C 66.382773 238.74197 66.298828 239.0836 66.298828 239.45312 C 66.298828 239.85909 66.401136 240.23006 66.603516 240.56836 C 66.811085 240.90146 67.111478 241.16485 67.505859 241.35742 C 67.90543 241.54479 68.619017 241.76906 69.646484 242.0293 C 70.409301 242.22187 70.886123 242.38095 71.078125 242.50586 C 71.353154 242.68802 71.490234 242.93642 71.490234 243.25391 C 71.490234 243.60782 71.334791 243.91816 71.023438 244.18359 C 70.712084 244.44383 70.235262 244.57422 69.591797 244.57422 C 68.953521 244.57422 68.455713 244.42557 68.097656 244.12891 C 67.744788 243.83224 67.52901 243.40651 67.451172 242.84961 L 66.066406 243.06641 C 66.222083 243.94599 66.580188 244.61099 67.140625 245.05859 C 67.706251 245.50619 68.525438 245.73047 69.599609 245.73047 C 70.248263 245.73047 70.830016 245.61833 71.34375 245.39453 C 71.857484 245.16553 72.247738 244.84476 72.517578 244.43359 C 72.792607 244.01722 72.931641 243.57389 72.931641 243.10547 C 72.931641 242.62664 72.81884 242.22698 72.595703 241.9043 C 72.372566 241.58161 72.064303 241.33647 71.669922 241.16992 C 71.28073 240.99817 70.590753 240.77911 69.599609 240.51367 C 68.914631 240.3263 68.501437 240.2083 68.361328 240.15625 C 68.117434 240.05736 67.938382 239.93218 67.824219 239.78125 C 67.710056 239.63552 67.654297 239.47123 67.654297 239.28906 C 67.654297 239.00281 67.791377 238.75245 68.066406 238.53906 C 68.341436 238.32567 68.799895 238.21875 69.443359 238.21875 C 69.988229 238.21875 70.409292 238.33871 70.705078 238.57812 C 71.006054 238.81754 71.187729 239.15134 71.25 239.57812 L 72.619141 239.39062 C 72.530924 238.85455 72.370234 238.42686 72.136719 238.10938 C 71.903203 237.78669 71.539852 237.53307 71.046875 237.3457 C 70.559087 237.15834 69.990451 237.06445 69.341797 237.06445 z M 61.121094 238.21875 C 61.832018 238.21875 62.411148 238.48997 62.857422 239.03125 C 63.148019 239.37996 63.324448 239.90219 63.386719 240.59961 L 58.769531 240.59961 C 58.816234 239.87616 59.058245 239.29917 59.494141 238.86719 C 59.935225 238.4352 60.477629 238.21875 61.121094 238.21875 z M 458.33789 239.7832 L 458.33789 243.62305 L 460.25781 243.62305 L 460.25781 239.7832 L 458.33789 239.7832 z M 458.33789 245.22266 L 458.33789 249.0625 L 460.25781 249.0625 L 460.25781 245.22266 L 458.33789 245.22266 z M 458.33789 250.90234 L 458.33789 254.74219 L 460.25781 254.74219 L 460.25781 250.90234 L 458.33789 250.90234 z M 458.33789 256.66211 L 458.33789 260.50391 L 460.25781 260.50391 L 460.25781 256.66211 L 458.33789 256.66211 z M 458.33789 262.42383 L 458.33789 265.94336 L 459.9375 265.94336 L 460.25781 262.42383 L 458.33789 262.42383 z M 458.33789 267.86328 L 458.33789 271.70312 L 459.9375 271.70312 L 459.9375 267.86328 L 458.33789 267.86328 z M 458.33789 273.62305 L 458.33789 277.46289 L 459.9375 277.46289 L 459.9375 273.62305 L 458.33789 273.62305 z M 154.23242 277.93555 L 154.23242 279.28711 L 157.99219 279.28711 L 157.99219 289.38086 L 159.50195 289.38086 L 159.50195 279.28711 L 163.27734 279.28711 L 163.27734 277.93555 L 154.23242 277.93555 z M 165.00977 277.93555 L 165.00977 289.38086 L 166.51953 289.38086 L 166.51953 284.72852 L 169.44727 284.72852 C 171.06112 284.72852 172.17545 284.3921 172.79297 283.7207 C 173.41049 283.0441 173.7207 282.21936 173.7207 281.24609 C 173.7207 280.67879 173.60266 280.15917 173.36914 279.68555 C 173.14081 279.21192 172.8378 278.84422 172.45898 278.58398 C 172.08017 278.31855 171.61122 278.13861 171.05078 278.04492 C 170.65121 277.97206 170.07208 277.93555 169.31445 277.93555 L 165.00977 277.93555 z M 166.51953 279.28711 L 169.43945 279.28711 C 170.12443 279.28711 170.59338 279.32101 170.84766 279.38867 C 171.24204 279.49797 171.55817 279.72485 171.79688 280.06836 C 172.04077 280.40666 172.16406 280.81414 172.16406 281.29297 C 172.16406 281.95396 171.95878 282.46771 171.54883 282.83203 C 171.13888 283.19636 170.44628 283.37695 169.4707 283.37695 L 166.51953 283.37695 L 166.51953 279.28711 z M 458.01758 279.38281 L 458.01758 283.22266 L 459.9375 283.22266 L 459.9375 279.38281 L 458.01758 279.38281 z M 458.01758 285.14258 L 458.01758 288.66211 L 459.9375 288.66211 L 459.9375 285.14258 L 458.01758 285.14258 z M 173.54688 287.78125 L 173.54688 289.38086 L 175.14258 289.38086 L 175.14258 287.78125 L 173.54688 287.78125 z M 362.29102 289.58203 C 361.67869 289.58203 361.20186 289.69678 360.85938 289.92578 C 360.52207 290.14958 360.28531 290.44427 360.15039 290.80859 C 360.0518 291.07924 360.00391 291.49193 360.00391 292.04883 L 360.00391 292.93164 L 358.76562 292.93164 L 358.76562 294.02539 L 360.00391 294.02539 L 360.00391 301.22266 L 361.39648 301.22266 L 361.39648 294.02539 L 363.00781 294.02539 L 363.00781 292.93164 L 361.39648 292.93164 L 361.39648 292.16602 C 361.39648 291.66637 361.48372 291.32669 361.66016 291.14453 C 361.83659 290.96237 362.13894 290.87109 362.56445 290.87109 C 362.82391 290.87109 363.09807 290.89717 363.38867 290.94922 L 363.59961 289.72266 C 363.1222 289.62897 362.6854 289.58203 362.29102 289.58203 z M 365.35547 289.70703 L 365.35547 291.30859 L 366.81836 291.30859 L 366.81836 289.70703 L 365.35547 289.70703 z M 368.25781 289.70703 L 368.25781 291.30859 L 369.72266 291.30859 L 369.72266 289.70703 L 368.25781 289.70703 z M 391.5957 289.77734 L 391.5957 291.39453 L 392.99609 291.39453 L 392.99609 289.77734 L 391.5957 289.77734 z M 458.01758 290.58398 L 458.01758 294.42383 L 459.9375 294.42383 L 459.9375 290.58398 L 458.01758 290.58398 z M 336.75195 292.74414 C 336.02027 292.74414 335.38276 292.92669 334.83789 293.29102 C 334.29821 293.65534 333.88502 294.17235 333.59961 294.84375 C 333.3142 295.50994 333.17187 296.24014 333.17188 297.03125 C 333.17188 298.18148 333.48276 299.16595 334.10547 299.98828 C 334.72818 300.81061 335.6077 301.22266 336.74414 301.22266 C 337.65745 301.22266 338.42087 300.86016 339.0332 300.13672 C 339.03839 301.05274 339.00429 301.65515 338.93164 301.94141 C 338.8071 302.40982 338.56771 302.77297 338.21484 303.0332 C 337.86198 303.29344 337.36154 303.42383 336.71289 303.42383 C 336.11094 303.42383 335.63674 303.29344 335.28906 303.0332 C 335.0296 302.84063 334.87153 302.53486 334.81445 302.11328 L 333.45117 301.91016 C 333.43041 302.80536 333.72489 303.47362 334.33203 303.91602 C 334.93917 304.36362 335.73475 304.58789 336.7207 304.58789 C 337.55098 304.58789 338.24883 304.43142 338.81445 304.11914 C 339.38527 303.80686 339.80109 303.37917 340.06055 302.83789 C 340.3252 302.30181 340.45703 301.38841 340.45703 300.09766 L 340.45703 292.93164 L 339.16406 292.93164 L 339.16406 293.93164 C 338.53098 293.14053 337.72753 292.74414 336.75195 292.74414 z M 346.1543 292.74414 C 345.44337 292.74414 344.81898 292.84324 344.2793 293.04102 C 343.73962 293.23359 343.32642 293.51263 343.04102 293.87695 C 342.75561 294.23607 342.55032 294.70875 342.42578 295.29688 L 343.79492 295.48438 C 343.94541 294.89625 344.17693 294.48877 344.48828 294.25977 C 344.80482 294.02556 345.29214 293.9082 345.95117 293.9082 C 346.65691 293.9082 347.18882 294.06533 347.54688 294.38281 C 347.81153 294.61702 347.94531 295.02124 347.94531 295.59375 C 347.94531 295.6458 347.94269 295.76837 347.9375 295.96094 C 347.40301 296.1483 346.56875 296.30999 345.4375 296.44531 C 344.88225 296.51297 344.46839 296.58338 344.19336 296.65625 C 343.81973 296.76034 343.48262 296.91225 343.18164 297.11523 C 342.88585 297.31822 342.64384 297.58943 342.45703 297.92773 C 342.27541 298.26083 342.18359 298.63115 342.18359 299.03711 C 342.18359 299.72933 342.42823 300.29849 342.91602 300.74609 C 343.4038 301.18849 344.10165 301.41016 345.00977 301.41016 C 345.55982 301.41016 346.07337 301.31888 346.55078 301.13672 C 347.03338 300.95456 347.53381 300.64161 348.05273 300.19922 C 348.09425 300.58957 348.18869 300.9312 348.33398 301.22266 L 349.79688 301.22266 C 349.62044 300.90517 349.50172 300.57398 349.43945 300.23047 C 349.38237 299.88176 349.35352 299.05441 349.35352 297.74805 L 349.35352 295.875 C 349.35352 295.25044 349.32991 294.81754 349.2832 294.57812 C 349.20018 294.19298 349.05523 293.87678 348.84766 293.62695 C 348.64009 293.37193 348.31608 293.16069 347.875 292.99414 C 347.43392 292.82759 346.86003 292.74414 346.1543 292.74414 z M 354.32617 292.74414 C 353.89547 292.74414 353.4921 292.80151 353.11328 292.91602 C 352.73966 293.02531 352.44256 293.16092 352.22461 293.32227 C 351.93401 293.53045 351.70445 293.79384 351.5332 294.11133 C 351.36715 294.42361 351.2832 294.76328 351.2832 295.13281 C 351.2832 295.53877 351.38356 295.9117 351.58594 296.25 C 351.79351 296.5831 352.09585 296.84649 352.49023 297.03906 C 352.88981 297.22643 353.60339 297.44875 354.63086 297.70898 C 355.39368 297.90156 355.8705 298.06064 356.0625 298.18555 C 356.33753 298.36771 356.47461 298.61806 356.47461 298.93555 C 356.47461 299.28946 356.31917 299.59784 356.00781 299.86328 C 355.69646 300.12351 355.21964 300.25391 354.57617 300.25391 C 353.9379 300.25391 353.44009 300.10721 353.08203 299.81055 C 352.72916 299.51388 352.51339 299.08619 352.43555 298.5293 L 351.04883 298.74805 C 351.20451 299.62763 351.56261 300.29068 352.12305 300.73828 C 352.68867 301.18588 353.50981 301.41016 354.58398 301.41016 C 355.23264 301.41016 355.81439 301.29802 356.32812 301.07422 C 356.84186 300.84521 357.23211 300.52445 357.50195 300.11328 C 357.77698 299.69691 357.91602 299.25553 357.91602 298.78711 C 357.91602 298.30828 357.80322 297.90667 357.58008 297.58398 C 357.35694 297.2613 357.04868 297.01811 356.6543 296.85156 C 356.2651 296.67981 355.57513 296.46075 354.58398 296.19531 C 353.89901 296.00795 353.48581 295.88798 353.3457 295.83594 C 353.10181 295.73705 352.92276 295.61187 352.80859 295.46094 C 352.69443 295.31521 352.63672 295.15091 352.63672 294.96875 C 352.63672 294.68249 352.77575 294.43409 353.05078 294.2207 C 353.32581 294.00731 353.78427 293.90039 354.42773 293.90039 C 354.9726 293.90039 355.39367 294.02035 355.68945 294.25977 C 355.99043 294.49918 356.1721 294.83103 356.23438 295.25781 L 357.60352 295.07031 C 357.5153 294.53423 357.35461 294.1085 357.12109 293.79102 C 356.88758 293.46833 356.52423 293.21276 356.03125 293.02539 C 355.54346 292.83802 354.97483 292.74414 354.32617 292.74414 z M 367.54297 292.74414 C 366.52069 292.74414 365.65428 293.05187 364.94336 293.66602 C 364.09233 294.40508 363.66602 295.54276 363.66602 297.07812 C 363.66602 298.47817 364.0215 299.5487 364.73242 300.29297 C 365.44854 301.03723 366.38577 301.41016 367.54297 301.41016 C 368.26427 301.41016 368.92802 301.24065 369.53516 300.90234 C 370.14749 300.56404 370.61119 300.09137 370.92773 299.48242 C 371.24947 298.86827 371.41016 298.02789 371.41016 296.96094 C 371.41016 295.64416 371.04943 294.6134 370.32812 293.86914 C 369.60682 293.11967 368.67941 292.74414 367.54297 292.74414 z M 375.86133 292.74414 C 375.53441 292.74414 375.23206 292.83802 374.95703 293.02539 C 374.68719 293.21276 374.39204 293.60133 374.07031 294.18945 L 374.07031 292.93164 L 372.80859 292.93164 L 372.80859 301.22266 L 374.21094 301.22266 L 374.21094 296.88281 C 374.21094 296.28948 374.28768 295.74183 374.44336 295.24219 C 374.54714 294.91429 374.72095 294.65873 374.96484 294.47656 C 375.20874 294.2892 375.48485 294.19727 375.79102 294.19727 C 376.1335 294.19727 376.47587 294.29702 376.81836 294.5 L 377.30078 293.19727 C 376.81299 292.8954 376.33355 292.74414 375.86133 292.74414 z M 381.98047 292.74414 C 381.43041 292.74414 380.94047 292.86932 380.50977 293.11914 C 380.07906 293.36376 379.73407 293.68974 379.47461 294.0957 L 379.47461 292.93164 L 378.2207 292.93164 L 378.2207 301.22266 L 379.62109 301.22266 L 379.62109 296.92188 C 379.62109 296.1672 379.69717 295.58826 379.84766 295.1875 C 379.99814 294.78674 380.24015 294.48358 380.57227 294.27539 C 380.90957 294.0672 381.27359 293.96289 381.66797 293.96289 C 382.18689 293.96289 382.56074 294.11741 382.78906 294.42969 C 383.01739 294.74197 383.13281 295.21138 383.13281 295.83594 L 383.13281 301.22266 L 384.5332 301.22266 L 384.5332 296.40625 C 384.5332 295.55269 384.72537 294.93202 385.10938 294.54688 C 385.49338 294.15653 385.97545 293.96289 386.55664 293.96289 C 386.87837 293.96289 387.15973 294.03852 387.39844 294.18945 C 387.63714 294.34039 387.80045 294.53924 387.88867 294.78906 C 387.98208 295.03368 388.0293 295.4379 388.0293 296 L 388.0293 301.22266 L 389.42188 301.22266 L 389.42188 295.53125 C 389.42188 294.584 389.20085 293.88444 388.75977 293.43164 C 388.31868 292.97363 387.68904 292.74414 386.86914 292.74414 C 385.82092 292.74414 384.97025 293.2292 384.31641 294.19727 C 384.15554 293.73926 383.8768 293.38198 383.48242 293.12695 C 383.09323 292.87193 382.5928 292.74414 381.98047 292.74414 z M 398.14844 292.74414 C 397.41676 292.74414 396.77729 292.92669 396.23242 293.29102 C 395.69274 293.65534 395.27955 294.17235 394.99414 294.84375 C 394.70873 295.50994 394.56641 296.24014 394.56641 297.03125 C 394.56641 298.18148 394.87729 299.16595 395.5 299.98828 C 396.12271 300.81061 397.00418 301.22266 398.14062 301.22266 C 399.05393 301.22266 399.81541 300.86016 400.42773 300.13672 C 400.43292 301.05274 400.39882 301.65515 400.32617 301.94141 C 400.20163 302.40982 399.9642 302.77297 399.61133 303.0332 C 399.25846 303.29344 398.75803 303.42383 398.10938 303.42383 C 397.50742 303.42383 397.03127 303.29344 396.68359 303.0332 C 396.42413 302.84063 396.26607 302.53486 396.20898 302.11328 L 394.84766 301.91016 C 394.8269 302.80536 395.11942 303.47362 395.72656 303.91602 C 396.3337 304.36362 397.13123 304.58789 398.11719 304.58789 C 398.94746 304.58789 399.64531 304.43142 400.21094 304.11914 C 400.78175 303.80686 401.19562 303.37917 401.45508 302.83789 C 401.71973 302.30181 401.85352 301.38841 401.85352 300.09766 L 401.85352 292.93164 L 400.56055 292.93164 L 400.56055 293.93164 C 399.92746 293.14053 399.12401 292.74414 398.14844 292.74414 z M 391.5957 292.93164 L 391.5957 301.22266 L 392.99609 301.22266 L 392.99609 292.93164 L 391.5957 292.93164 z M 336.85352 293.9082 C 337.4866 293.9082 338.02638 294.16443 338.47266 294.67969 C 338.92412 295.19495 339.14844 295.96166 339.14844 296.97656 C 339.14844 298.03831 338.93199 298.81871 338.49609 299.31836 C 338.0602 299.8128 337.52042 300.05859 336.87695 300.05859 C 336.2283 300.05859 335.68852 299.81019 335.25781 299.31055 C 334.82711 298.8109 334.61133 298.01746 334.61133 296.92969 C 334.61133 295.9304 334.82973 295.17673 335.26562 294.67188 C 335.70152 294.16182 336.23081 293.9082 336.85352 293.9082 z M 367.54297 293.9082 C 368.23314 293.9082 368.80769 294.17225 369.26953 294.70312 C 369.73656 295.22879 369.9707 296.00594 369.9707 297.03125 C 369.9707 298.11902 369.73919 298.92811 369.27734 299.45898 C 368.8155 299.98986 368.23833 300.25391 367.54297 300.25391 C 366.84242 300.25391 366.26067 299.99247 365.79883 299.4668 C 365.33699 298.93592 365.10547 298.13987 365.10547 297.07812 C 365.10547 296.01638 365.33699 295.22098 365.79883 294.69531 C 366.26067 294.16964 366.84242 293.9082 367.54297 293.9082 z M 398.24805 293.9082 C 398.88113 293.9082 399.42091 294.16443 399.86719 294.67969 C 400.31865 295.19495 400.54492 295.96166 400.54492 296.97656 C 400.54492 298.03831 400.32652 298.81871 399.89062 299.31836 C 399.45473 299.8128 398.91495 300.05859 398.27148 300.05859 C 397.62283 300.05859 397.08305 299.81019 396.65234 299.31055 C 396.22164 298.8109 396.00781 298.01746 396.00781 296.92969 C 396.00781 295.9304 396.22426 295.17673 396.66016 294.67188 C 397.09605 294.16182 397.62534 293.9082 398.24805 293.9082 z M 458.01758 296.34375 L 458.01758 300.18359 L 459.9375 300.18359 L 459.9375 296.34375 L 458.01758 296.34375 z M 347.9375 297.0625 L 347.9375 297.57617 C 347.9375 298.19552 347.86143 298.66494 347.71094 298.98242 C 347.51375 299.39359 347.20548 299.71762 346.78516 299.95703 C 346.36483 300.19124 345.88538 300.30859 345.3457 300.30859 C 344.80083 300.30859 344.38502 300.18342 344.09961 299.93359 C 343.81939 299.68377 343.67969 299.37278 343.67969 298.99805 C 343.67969 298.75343 343.74332 298.53176 343.87305 298.33398 C 344.00278 298.131 344.18708 297.97714 344.42578 297.87305 C 344.66449 297.76895 345.07243 297.67507 345.64844 297.5918 C 346.66553 297.44607 347.42896 297.27069 347.9375 297.0625 z M 458.01758 302.10352 L 458.01758 305.94336 L 459.9375 305.94336 L 459.9375 302.10352 L 458.01758 302.10352 z M 458.01758 307.86328 L 458.01758 311.38281 L 459.9375 311.38281 L 459.9375 307.86328 L 458.01758 307.86328 z M 458.01758 313.30273 L 458.01758 317.14258 L 459.9375 317.14258 L 459.9375 313.30273 L 458.01758 313.30273 z M 458.01758 319.0625 L 458.01758 322.90234 L 459.9375 322.90234 L 459.9375 319.0625 L 458.01758 319.0625 z M 458.01758 324.82227 L 458.01758 328.66211 L 459.9375 328.66211 L 459.9375 324.82227 L 458.01758 324.82227 z M 458.01758 330.26367 L 458.01758 334.10352 L 459.9375 334.10352 L 459.9375 330.26367 L 458.01758 330.26367 z M 512.4707 332.25781 L 512.4707 333.60742 L 516.23047 333.60742 L 516.23047 343.70312 L 517.74023 343.70312 L 517.74023 333.60742 L 521.51562 333.60742 L 521.51562 332.25781 L 512.4707 332.25781 z M 452.31055 341.85742 L 452.31055 343.20898 L 456.07031 343.20898 L 456.07031 353.30273 L 457.58008 353.30273 L 457.58008 343.20898 L 461.35547 343.20898 L 461.35547 341.85742 L 452.31055 341.85742 z M 460.85156 349.44922 L 460.85156 359.0625 L 462.0625 359.0625 L 462.0625 356.30273 L 462.91602 355.50195 L 465.27539 359.0625 L 466.76758 359.0625 L 463.76172 354.68164 L 466.49219 352.09766 L 464.92578 352.09766 L 462.0625 354.93164 L 462.0625 349.44922 L 460.85156 349.44922 z M 470.1875 351.94141 C 469.90516 351.94141 469.64377 352.02035 469.40625 352.17773 C 469.17321 352.33512 468.91848 352.66028 468.64062 353.1543 L 468.64062 352.09766 L 467.55078 352.09766 L 467.55078 359.0625 L 468.76172 359.0625 L 468.76172 355.41602 C 468.76172 354.91763 468.82844 354.45876 468.96289 354.03906 C 469.05252 353.76364 469.20343 353.5495 469.41406 353.39648 C 469.6247 353.2391 469.86254 353.16016 470.12695 353.16016 C 470.42274 353.16016 470.71789 353.24551 471.01367 353.41602 L 471.42969 352.32227 C 471.00842 352.0687 470.59533 351.94141 470.1875 351.94141 z "
       transform="matrix(0.75000002,0,0,-0.75000002,73.786782,502.95729)" /></g></svg>
